<svg xmlns="http://www.w3.org/2000/svg" width="120" height="120" viewBox="0 0 120 120">
  <g id="Grupo_136709" data-name="Grupo 136709" transform="translate(-264.976 -3683)">
    <g id="Grupo_136705" data-name="Grupo 136705">
      <g id="Grupo_136449" data-name="Grupo 136449">
        <circle id="Elipse_5410" data-name="Elipse 5410" cx="60" cy="60" r="60" transform="translate(264.976 3683)" fill="#b13e8d"/>
        <g id="organizacion" transform="translate(283.943 3693.643)">
          <path id="Trazado_194554" data-name="Trazado 194554" d="M76.977,63.985l-1.849-.529-.45-1.8a8.1,8.1,0,0,0,3.384-6.577V50.036a6.064,6.064,0,0,0,.94-.764,5.957,5.957,0,0,0,1.764-4.249v-.166a4.636,4.636,0,0,0-1.351-3.293A4.522,4.522,0,0,0,77.767,40.5a6.918,6.918,0,0,0-1-1.7l.689-.285-4.14-9.992-5.17,2.143a.443.443,0,0,1-.537-.215.433.433,0,0,1,.024-.553l3.957-3.959-7.648-7.647-3.959,3.957a.446.446,0,0,1-.58.005.43.43,0,0,1-.187-.518l2.142-5.171L54.99,13.925c.034-.365.088-.726.088-1.092V11.583A10.584,10.584,0,0,0,44.494,1H41.326A10.582,10.582,0,0,0,30.743,11.583v1.249c0,.366.054.727.088,1.091l-6.368,2.638L26.6,21.732a.444.444,0,0,1-.215.537.434.434,0,0,1-.553-.026L21.88,18.286l-7.648,7.647,3.959,3.959a.448.448,0,0,1,.005.58.437.437,0,0,1-.519.189l-5.171-2.143L8.365,38.51l2.859,1.184a13.532,13.532,0,0,0-8.873,12.68v7.38A5.376,5.376,0,0,0,6.521,65,10.845,10.845,0,0,0,1,74.384V84.821H30.743V79.975l3.712,1.537L36.6,76.341a.445.445,0,0,1,.531-.227.433.433,0,0,1,.374.407v5.6H48.319v-5.6a.448.448,0,0,1,.407-.415.431.431,0,0,1,.5.234l2.142,5.171,3.712-1.536v4.847H84.821V74.384a10.862,10.862,0,0,0-7.844-10.4Zm-4.44.261L69.95,67.7l-2.589-3.452.345-1.379a7.951,7.951,0,0,0,4.487,0Zm2.82-9.168a5.408,5.408,0,1,1-10.816,0V51.643a2.712,2.712,0,0,1,2.174-2.651l1.2-.241a9.339,9.339,0,0,0,4.422,2.013l1.052.176a6.289,6.289,0,0,0,1,.082h.369a5.765,5.765,0,0,0,.594-.058ZM20.556,68.6H11.187L9.8,66.524l3.134-.9.689-2.759a7.967,7.967,0,0,0,4.487,0l.689,2.759,3.134.9Zm-1.8,2.7-2.882,4.322L12.989,71.3ZM15.872,48.847a40.26,40.26,0,0,0,5.136,4.071l.272.18v1.981a5.408,5.408,0,1,1-10.816,0V53.1l.272-.181a40.13,40.13,0,0,0,5.136-4.069ZM20.936,63,20.6,61.657a8.1,8.1,0,0,0,3.384-6.579V51.651l-1.476-.984a37.263,37.263,0,0,1-5.283-4.28V41.652a10.826,10.826,0,0,1,9.464,10.722v7.38a2.7,2.7,0,0,1-2.259,2.667Zm1.347-22.528A21.8,21.8,0,0,1,37.566,26.014q.3.262.616.492l-.46,1.837-1.378.46a10.217,10.217,0,0,0-3.975,2.457,10.1,10.1,0,0,0-2.98,7.192v8.515H56.43V38.452a10.1,10.1,0,0,0-2.98-7.192A10.232,10.232,0,0,0,49.474,28.8L48.1,28.343l-.46-1.837q.32-.231.616-.492A21.719,21.719,0,0,1,63.677,40.931a8.118,8.118,0,0,0-2.158,13.036l.319.319v.792a8.124,8.124,0,0,0,.235,1.906,21.584,21.584,0,0,1-33.727,5.941,5.38,5.38,0,0,0,1.045-3.17v-7.38a13.53,13.53,0,0,0-7.109-11.9Zm15.971-9.458,3.306,5.508v7.737H32.1V38.452a7.422,7.422,0,0,1,2.187-5.281,7.506,7.506,0,0,1,2.919-1.8Zm6.009,5.508,3.306-5.509,1.052.35a7.515,7.515,0,0,1,2.919,1.8,7.424,7.424,0,0,1,2.187,5.281v5.811H44.263Zm1.256-7.349-2.608,4.347L40.3,29.175l.365-1.459a7.946,7.946,0,0,0,4.486,0Zm2.8-9.249a5.408,5.408,0,0,1-10.816,0V16.249a4.068,4.068,0,0,1,2.988-3.914,4.113,4.113,0,0,0,3.158,2.551l2.409.4a2.7,2.7,0,0,1,2.26,2.667ZM62.134,49.911a5.322,5.322,0,0,1,2.6-6.488,9.278,9.278,0,0,0,1.174,3,5.409,5.409,0,0,0-3.773,3.489Zm15.927-5.056v.166a3.3,3.3,0,0,1-3.3,3.3H74.4a3.43,3.43,0,0,1-.562-.046L72.785,48.1a6.607,6.607,0,0,1-5.535-6.33,4.277,4.277,0,0,1,7.371-1.334A4.666,4.666,0,0,0,71.874,42.8l-.429.857,2.419,1.21.429-.857a2.014,2.014,0,0,1,1.858-1.1h0a1.89,1.89,0,0,1,1.348.56,1.95,1.95,0,0,1,.562,1.384ZM57.926,24.515a3.14,3.14,0,0,0,3.971-.358l2.046-2.046,3.825,3.823-2.046,2.047a3.188,3.188,0,0,0,3.46,5.178l2.673-1.107,1.887,4.556a6.893,6.893,0,0,0-7.912,2.208,24.471,24.471,0,0,0-15.75-15.1,8.064,8.064,0,0,0,.654-1.672,11.972,11.972,0,0,0,3.711-5.417l3.381,1.4L56.718,20.7a3.153,3.153,0,0,0,1.207,3.818ZM33.447,11.583A7.879,7.879,0,0,1,41.328,3.7H44.5a7.877,7.877,0,0,1,7.879,7.879v1.249a9.053,9.053,0,0,1-1.38,4.8,5.378,5.378,0,0,0-4.49-5.016l-2.409-.4a1.417,1.417,0,0,1-.4-2.665l1.174-.587L43.658,6.55l-1.175.587a4.1,4.1,0,0,0-2.09,2.451l-.161.031a6.781,6.781,0,0,0-5.434,6.63v1.326a8.925,8.925,0,0,1-1.352-4.743ZM14.572,38.155,11.9,37.047l2.07-5,2.674,1.107A3.188,3.188,0,0,0,20.1,27.98l-2.046-2.047,3.825-3.823,2.046,2.046A3.188,3.188,0,0,0,29.1,20.7L28,18.021l3.381-1.4a11.816,11.816,0,0,0,3.012,4.717l.687.654a8.053,8.053,0,0,0,.667,1.721A24.564,24.564,0,0,0,19.773,39.433a13.487,13.487,0,0,0-3.9-.579c-.091,0-.178.012-.269.014A3.092,3.092,0,0,0,14.572,38.155Zm-9.516,21.6v-7.38A10.826,10.826,0,0,1,14.52,41.652v4.735a37.452,37.452,0,0,1-5.283,4.28l-1.476.984v3.427a8.1,8.1,0,0,0,3.384,6.579L10.807,63l-3.491-.581a2.7,2.7,0,0,1-2.26-2.667ZM28.039,82.118H3.7V74.384A8.139,8.139,0,0,1,7.31,67.656L15.872,80.5l8.562-12.844a8.141,8.141,0,0,1,3.606,6.729Zm24.79-4.14L51.721,75.3a3.188,3.188,0,0,0-6.107,1.217v2.893H40.207V76.52A3.188,3.188,0,0,0,34.1,75.3l-1.107,2.674-2.25-.93V74.384A10.846,10.846,0,0,0,25.223,65a5.422,5.422,0,0,0,1.013-.347,24.279,24.279,0,0,0,37.245-4.7,8.128,8.128,0,0,0,1.741,1.7l-.45,1.8-1.848.529a10.859,10.859,0,0,0-7.845,10.4v2.662Zm4.954-3.594a8.146,8.146,0,0,1,5.884-7.8l1.7-.488L68.6,70.4V82.118H57.782Zm24.335,7.733H71.3V70.4l3.226-4.3,1.706.488a8.143,8.143,0,0,1,5.884,7.8Z" transform="translate(0 0)" fill="#fff"/>
          <path id="Trazado_194555" data-name="Trazado 194555" d="M55,57h2.7v2.7H55Z" transform="translate(19.006 19.71)" fill="#fff"/>
          <path id="Trazado_194556" data-name="Trazado 194556" d="M55,53h2.7v2.7H55Z" transform="translate(19.006 18.302)" fill="#fff"/>
          <path id="Trazado_194557" data-name="Trazado 194557" d="M33,45h2.7v2.7H33Z" transform="translate(11.263 15.486)" fill="#fff"/>
          <path id="Trazado_194558" data-name="Trazado 194558" d="M37,45h2.7v2.7H37Z" transform="translate(12.671 15.486)" fill="#fff"/>
          <path id="Trazado_194559" data-name="Trazado 194559" d="M29,45h2.7v2.7H29Z" transform="translate(9.855 15.486)" fill="#fff"/>
          <path id="Trazado_194560" data-name="Trazado 194560" d="M25,45h2.7v2.7H25Z" transform="translate(8.447 15.486)" fill="#fff"/>
        </g>
      </g>
    </g>
  </g>
</svg>
