<svg xmlns="http://www.w3.org/2000/svg" width="86.998" height="87" viewBox="0 0 86.998 87">
  <g id="Grupo_136701" data-name="Grupo 136701" transform="translate(-397 -2535.841)">
    <path id="manos" d="M87,56.779l-.761-26.77a5.379,5.379,0,0,0-5.415-4.818c-1.337.021-5.7.749-5.663,9.22l.058,14.539a6.934,6.934,0,0,1-.147,1.469,4.93,4.93,0,0,0-.607-.737,5.007,5.007,0,0,0-6.893-.054,1.372,1.372,0,0,0-.129.133,62.584,62.584,0,0,1-7.569,7.181c-.81.683-1.575,1.327-2.2,1.892-2.586,2.331-2.929,5.559-2.925,8.409l.024,18.4A1.358,1.358,0,0,0,56.133,87H70.978a1.358,1.358,0,0,0,1.358-1.358V75.833L84.05,64.12A9.806,9.806,0,0,0,87,56.779ZM82.127,62.2,70.018,74.31a1.358,1.358,0,0,0-.4.96v9.017H57.489l-.022-17.049c0-2.365.239-4.775,2.027-6.387.593-.534,1.307-1.136,2.133-1.832a65.27,65.27,0,0,0,7.827-7.426,2.258,2.258,0,0,1,3.092.01,2.207,2.207,0,0,1,.315,2.7l-.364.447-9.29,9.29a1.358,1.358,0,1,0,1.921,1.921l9.34-9.34c.223-.223,1.212-1.478,1.212-1.478a9.491,9.491,0,0,0,2.259-6.2L77.88,34.4c-.015-4.036,1.1-6.463,2.99-6.493a2.682,2.682,0,0,1,2.656,2.178l.761,26.77A7.055,7.055,0,0,1,82.127,62.2Zm-52.79-3.367c-.628-.566-1.395-1.212-2.207-1.9a62.757,62.757,0,0,1-7.564-7.172,1.387,1.387,0,0,0-.126-.131,4.993,4.993,0,0,0-6.889.046,4.924,4.924,0,0,0-.611.74,6.867,6.867,0,0,1-.145-1.468l.053-14.541c.032-8.469-4.326-9.2-5.663-9.218A5.385,5.385,0,0,0,.77,30.012L.014,56.778a9.767,9.767,0,0,0,2.955,7.344L14.68,75.833v9.812A1.358,1.358,0,0,0,16.039,87h14.84a1.358,1.358,0,0,0,1.358-1.357l.024-18.4C32.266,64.39,31.922,61.159,29.337,58.833Zm.185,25.454H17.4V75.27a1.358,1.358,0,0,0-.4-.96L4.89,62.2a7.021,7.021,0,0,1-2.161-5.345l.756-26.767a2.672,2.672,0,0,1,2.621-2.18h.035c1.887.03,3.005,2.456,2.99,6.491L9.078,48.94a9.441,9.441,0,0,0,2.26,6.206s.983,1.249,1.209,1.474v0l9.335,9.34a1.358,1.358,0,1,0,1.921-1.921L14.519,54.75,14.15,54.3a2.2,2.2,0,0,1,.322-2.7,2.247,2.247,0,0,1,3.085,0,65.415,65.415,0,0,0,7.822,7.418c.829.7,1.544,1.3,2.14,1.838,1.787,1.608,2.03,4.019,2.026,6.387ZM58.692,46.57A1.358,1.358,0,0,0,60.2,46.29l3.5-3.5a1.358,1.358,0,0,0,.281-1.512l-1.395-3.135-.11-.25a22.114,22.114,0,0,0,2.792-6.733l3.454-1.327a1.358,1.358,0,0,0,.872-1.268V23.625a1.358,1.358,0,0,0-.87-1.267l-3.457-1.332a22.125,22.125,0,0,0-2.79-6.732l1.5-3.388A1.358,1.358,0,0,0,63.7,9.395l-3.5-3.5a1.358,1.358,0,0,0-1.512-.281L55.3,7.124a22.053,22.053,0,0,0-6.729-2.789L47.247.876A1.358,1.358,0,0,0,45.979,0H41.037a1.358,1.358,0,0,0-1.267.87L38.53,4.091l-.093.245a22.042,22.042,0,0,0-6.728,2.787l-3.39-1.506a1.358,1.358,0,0,0-1.512.281l-3.5,3.5a1.358,1.358,0,0,0-.281,1.512l1.4,3.149.108.241a22.138,22.138,0,0,0-2.791,6.729l-3.458,1.332a1.358,1.358,0,0,0-.87,1.267v4.942a1.358,1.358,0,0,0,.872,1.268L21.5,31.066l.247.1A22.05,22.05,0,0,0,24.535,37.9L23.029,41.28a1.358,1.358,0,0,0,.281,1.512l3.5,3.5a1.358,1.358,0,0,0,1.512.281l3.388-1.5a22.121,22.121,0,0,0,6.732,2.79l1.332,3.457a1.358,1.358,0,0,0,1.267.87h4.942a1.358,1.358,0,0,0,1.268-.872L48.479,48.1l.1-.247a22.121,22.121,0,0,0,6.736-2.791ZM54.433,42.4a19.455,19.455,0,0,1-7.121,2.951,1.359,1.359,0,0,0-1,.841l-1.262,3.276H41.97L40.711,46.2A1.358,1.358,0,0,0,39.7,45.35a19.451,19.451,0,0,1-7.12-2.951,1.359,1.359,0,0,0-1.306-.114l-3.211,1.424-2.178-2.178,1.426-3.2a1.359,1.359,0,0,0-.113-1.313A19.381,19.381,0,0,1,24.25,29.9a1.359,1.359,0,0,0-.841-1l-3.276-1.262V24.557L23.4,23.3a1.359,1.359,0,0,0,.846-1A19.465,19.465,0,0,1,27.2,15.173a1.359,1.359,0,0,0,.113-1.313l-1.426-3.2,2.178-2.178,3.2,1.426a1.358,1.358,0,0,0,1.312-.113A19.372,19.372,0,0,1,39.7,6.842a1.358,1.358,0,0,0,1.008-.849L41.97,2.721h3.076L46.307,6a1.358,1.358,0,0,0,1.005.843,19.383,19.383,0,0,1,7.115,2.949,1.358,1.358,0,0,0,1.31.114l3.207-1.427,2.178,2.178L59.7,13.866a1.359,1.359,0,0,0,.114,1.305,19.455,19.455,0,0,1,2.95,7.12,1.358,1.358,0,0,0,.846,1.007l3.27,1.258v3.076l-2.346.9-.93.361a1.358,1.358,0,0,0-.841,1,19.444,19.444,0,0,1-2.95,7.116,1.359,1.359,0,0,0-.115,1.3l1.424,3.213-2.177,2.177-3.206-1.423A1.357,1.357,0,0,0,54.433,42.4ZM43.508,11.718A14.376,14.376,0,1,0,57.882,26.1,14.394,14.394,0,0,0,43.508,11.718Zm0,26.034A11.659,11.659,0,1,1,55.165,26.1,11.672,11.672,0,0,1,43.508,37.753Z" transform="translate(396.991 2535.837)" fill="#b13e8d"/>
  </g>
</svg>
