<svg xmlns="http://www.w3.org/2000/svg" width="86.997" height="86.999" viewBox="0 0 86.997 86.999">
  <g id="Grupo_136702" data-name="Grupo 136702" transform="translate(-749 -2535.842)">
    <g id="curriculum" transform="translate(748.993 2535.842)">
      <g id="Grupo_136379" data-name="Grupo 136379" transform="translate(0.007)">
        <g id="Grupo_136378" data-name="Grupo 136378" transform="translate(0)">
          <path id="Trazado_194493" data-name="Trazado 194493" d="M70.354,25.276a1.7,1.7,0,0,0,1.7-1.7V5.1a5.1,5.1,0,0,0-5.1-5.1H5.1a5.1,5.1,0,0,0-5.1,5.1V81.9A5.1,5.1,0,0,0,5.1,87H66.955a5.1,5.1,0,0,0,5.1-5.1V69.383a1.7,1.7,0,0,0-3.4,0V81.9a1.7,1.7,0,0,1-1.7,1.7H5.1a1.7,1.7,0,0,1-1.7-1.7V5.1A1.7,1.7,0,0,1,5.1,3.4H66.955a1.7,1.7,0,0,1,1.7,1.7V23.576A1.7,1.7,0,0,0,70.354,25.276Z" transform="translate(-0.007)" fill="#b13e8d"/>
        </g>
      </g>
      <g id="Grupo_136381" data-name="Grupo 136381" transform="translate(20.397 9.176)">
        <g id="Grupo_136380" data-name="Grupo 136380">
          <path id="Trazado_194494" data-name="Trazado 194494" d="M135.64,54a15.625,15.625,0,0,0-10.725,27,1.679,1.679,0,0,0,.182.17,15.6,15.6,0,0,0,21.085,0,1.7,1.7,0,0,0,.182-.17A15.625,15.625,0,0,0,135.64,54Zm0,27.867a12.169,12.169,0,0,1-7.39-2.492,8.5,8.5,0,0,1,14.78,0A12.169,12.169,0,0,1,135.64,81.867Zm-2.719-12.914v-1.1a2.719,2.719,0,0,1,5.437,0v1.1a2.719,2.719,0,0,1-5.437,0Zm12.564,7.932a11.788,11.788,0,0,0-5.006-4.2,6.085,6.085,0,0,0,1.278-3.736v-1.1a6.117,6.117,0,1,0-12.234,0v1.1a6.085,6.085,0,0,0,1.278,3.736,11.788,11.788,0,0,0-5.006,4.2,12.234,12.234,0,1,1,19.69,0Z" transform="translate(-120.007 -54)" fill="#b13e8d"/>
        </g>
      </g>
      <g id="Grupo_136383" data-name="Grupo 136383" transform="translate(34.331 74.425)">
        <g id="Grupo_136382" data-name="Grupo 136382">
          <path id="Trazado_194495" data-name="Trazado 194495" d="M212.882,438h-9.176a1.7,1.7,0,0,0,0,3.4h9.176a1.7,1.7,0,0,0,0-3.4Z" transform="translate(-202.007 -438)" fill="#b13e8d"/>
        </g>
      </g>
      <g id="Grupo_136385" data-name="Grupo 136385" transform="translate(19.378 64.909)">
        <g id="Grupo_136384" data-name="Grupo 136384">
          <path id="Trazado_194496" data-name="Trazado 194496" d="M139.835,382H115.706a1.7,1.7,0,1,0,0,3.4h24.129a1.7,1.7,0,1,0,0-3.4Z" transform="translate(-114.007 -382)" fill="#b13e8d"/>
        </g>
      </g>
      <g id="Grupo_136387" data-name="Grupo 136387" transform="translate(19.378 55.394)">
        <g id="Grupo_136386" data-name="Grupo 136386">
          <path id="Trazado_194497" data-name="Trazado 194497" d="M139.835,326H115.706a1.7,1.7,0,1,0,0,3.4h24.129a1.7,1.7,0,1,0,0-3.4Z" transform="translate(-114.007 -326)" fill="#b13e8d"/>
        </g>
      </g>
      <g id="Grupo_136389" data-name="Grupo 136389" transform="translate(12.119 45.878)">
        <g id="Grupo_136388" data-name="Grupo 136388">
          <path id="Trazado_194498" data-name="Trazado 194498" d="M74.189,270.5a1.7,1.7,0,1,0,.5,1.2A1.712,1.712,0,0,0,74.189,270.5Z" transform="translate(-71.287 -270)" fill="#b13e8d"/>
        </g>
      </g>
      <g id="Grupo_136391" data-name="Grupo 136391" transform="translate(12.119 55.394)">
        <g id="Grupo_136390" data-name="Grupo 136390">
          <path id="Trazado_194499" data-name="Trazado 194499" d="M74.189,326.5a1.7,1.7,0,1,0,.5,1.2A1.715,1.715,0,0,0,74.189,326.5Z" transform="translate(-71.287 -326)" fill="#b13e8d"/>
        </g>
      </g>
      <g id="Grupo_136393" data-name="Grupo 136393" transform="translate(12.119 64.909)">
        <g id="Grupo_136392" data-name="Grupo 136392">
          <path id="Trazado_194500" data-name="Trazado 194500" d="M74.189,382.5a1.7,1.7,0,1,0,.5,1.2A1.715,1.715,0,0,0,74.189,382.5Z" transform="translate(-71.287 -382)" fill="#b13e8d"/>
        </g>
      </g>
      <g id="Grupo_136395" data-name="Grupo 136395" transform="translate(19.378 45.878)">
        <g id="Grupo_136394" data-name="Grupo 136394">
          <path id="Trazado_194501" data-name="Trazado 194501" d="M139.835,270H115.706a1.7,1.7,0,1,0,0,3.4h24.129a1.7,1.7,0,1,0,0-3.4Z" transform="translate(-114.007 -270)" fill="#b13e8d"/>
        </g>
      </g>
      <g id="Grupo_136397" data-name="Grupo 136397" transform="translate(50.572 21.185)">
        <g id="Grupo_136396" data-name="Grupo 136396">
          <path id="Trazado_194502" data-name="Trazado 194502" d="M330.454,125.634a7.137,7.137,0,0,0-9.749,2.612l-21.383,37.036a1.7,1.7,0,0,0-.217.661L297.6,179.426a1.7,1.7,0,0,0,2.7,1.557l10.923-8.045a1.7,1.7,0,0,0,.464-.519l21.383-37.036A7.145,7.145,0,0,0,330.454,125.634Zm-29.046,50.309.786-7.04,4.918,2.839Zm8.182-6.694-6.475-3.738,17.159-29.721,6.475,3.738Zm20.533-35.565-1.675,2.9-6.475-3.738,1.675-2.9a3.738,3.738,0,0,1,6.475,3.738Z" transform="translate(-297.589 -124.675)" fill="#b13e8d"/>
        </g>
      </g>
    </g>
  </g>
</svg>
