<svg xmlns="http://www.w3.org/2000/svg" width="95.339" height="86.701" viewBox="0 0 95.339 86.701">
  <g id="Grupo_136703" data-name="Grupo 136703" transform="translate(-1097 -2526.214)">
    <g id="retroalimentacion" transform="translate(1091.99 2518.759)">
      <g id="Grupo_136398" data-name="Grupo 136398" transform="translate(38.127 7.455)">
        <path id="Trazado_194503" data-name="Trazado 194503" d="M31.261,35.442a3.134,3.134,0,0,1-1.84-.6,3.1,3.1,0,0,1-1.148-3.467l2-6.171-5.249-3.811a3.124,3.124,0,0,1,1.832-5.634h6.487l2-6.167a3.122,3.122,0,0,1,5.922,0l2,6.167h6.487A3.125,3.125,0,0,1,51.6,21.388L46.347,25.2l2,6.171a3.125,3.125,0,0,1-4.79,3.485l-1.749-1.27A1.766,1.766,0,1,1,43.89,30.73l.7.51-2-6.167a1.764,1.764,0,0,1,.641-1.973l5.246-3.811H41.993a1.767,1.767,0,0,1-1.68-1.22l-2-6.166-2,6.164a1.767,1.767,0,0,1-1.68,1.22H28.147L33.392,23.1a1.761,1.761,0,0,1,.641,1.973l-2,6.167.7-.514a1.767,1.767,0,0,1,2.077,2.859l-1.745,1.27a3.064,3.064,0,0,1-1.8.588Z" transform="translate(-23.761 -7.455)" fill="#b13e8d"/>
      </g>
      <g id="Grupo_136399" data-name="Grupo 136399" transform="translate(37.289 58.421)">
        <path id="Trazado_194504" data-name="Trazado 194504" d="M25.052,48.106a1.766,1.766,0,0,1-1.766-1.766V38.078a1.766,1.766,0,1,1,3.532,0V46.34A1.766,1.766,0,0,1,25.052,48.106Z" transform="translate(-23.286 -36.312)" fill="#b13e8d"/>
      </g>
      <g id="Grupo_136400" data-name="Grupo 136400" transform="translate(37.289 51.258)">
        <path id="Trazado_194505" data-name="Trazado 194505" d="M25.052,42.953a1.766,1.766,0,0,1-1.766-1.766,9,9,0,0,1,11.321-8.61,1.766,1.766,0,1,1-.943,3.4,5.47,5.47,0,0,0-6.846,5.2,1.767,1.767,0,0,1-1.766,1.768Z" transform="translate(-23.286 -32.256)" fill="#b13e8d"/>
      </g>
      <g id="Grupo_136401" data-name="Grupo 136401" transform="translate(55.454 28.101)">
        <path id="Trazado_194506" data-name="Trazado 194506" d="M35.337,47.7a1.766,1.766,0,0,1-1.766-1.766V20.911a1.766,1.766,0,1,1,3.532,0v25.02A1.766,1.766,0,0,1,35.337,47.7Z" transform="translate(-33.571 -19.145)" fill="#b13e8d"/>
      </g>
      <g id="Grupo_136402" data-name="Grupo 136402" transform="translate(46.37 23.707)">
        <path id="Trazado_194507" data-name="Trazado 194507" d="M39.278,24.584a1.766,1.766,0,0,1-1.766-1.766,2.438,2.438,0,0,0-.805-1.955,3.048,3.048,0,0,0-1.971-.673,2.6,2.6,0,0,0-2.775,2.628,1.766,1.766,0,0,1-3.532,0,6.04,6.04,0,0,1,6.307-6.16,6.04,6.04,0,0,1,6.307,6.16A1.763,1.763,0,0,1,39.278,24.584Z" transform="translate(-28.428 -16.657)" fill="#b13e8d"/>
      </g>
      <g id="Grupo_136403" data-name="Grupo 136403" transform="translate(81.001 50.274)">
        <path id="Trazado_194508" data-name="Trazado 194508" d="M49.8,48.864A1.766,1.766,0,0,1,48.036,47.1V33.465a1.766,1.766,0,0,1,3.532,0V47.1A1.766,1.766,0,0,1,49.8,48.864Z" transform="translate(-48.036 -31.699)" fill="#b13e8d"/>
      </g>
      <g id="Grupo_136404" data-name="Grupo 136404" transform="translate(64.537 43.494)">
        <path id="Trazado_194509" data-name="Trazado 194509" d="M40.48,43.731a1.766,1.766,0,0,1-1.766-1.766V29.626a1.766,1.766,0,0,1,3.532,0V41.965A1.766,1.766,0,0,1,40.48,43.731Z" transform="translate(-38.714 -27.86)" fill="#b13e8d"/>
      </g>
      <g id="Grupo_136405" data-name="Grupo 136405" transform="translate(73.054 46.639)">
        <path id="Trazado_194510" data-name="Trazado 194510" d="M45.3,44.049a1.766,1.766,0,0,1-1.766-1.766V31.407a1.766,1.766,0,0,1,3.532,0V42.283A1.766,1.766,0,0,1,45.3,44.049Z" transform="translate(-43.536 -29.641)" fill="#b13e8d"/>
      </g>
      <g id="Grupo_136406" data-name="Grupo 136406" transform="translate(64.539 42.52)">
        <path id="Trazado_194511" data-name="Trazado 194511" d="M49,34.96a1.766,1.766,0,0,1-1.766-1.766,2.185,2.185,0,0,0-.715-1.749,2.747,2.747,0,0,0-1.775-.6,2.337,2.337,0,0,0-2.492,2.353,1.766,1.766,0,0,1-3.532,0,5.771,5.771,0,0,1,6.024-5.885,5.772,5.772,0,0,1,6.024,5.885A1.769,1.769,0,0,1,49,34.96Z" transform="translate(-38.715 -27.309)" fill="#b13e8d"/>
      </g>
      <g id="Grupo_136407" data-name="Grupo 136407" transform="translate(55.452 39.101)">
        <path id="Trazado_194512" data-name="Trazado 194512" d="M44.421,33.3a1.766,1.766,0,0,1-1.766-1.766,2.443,2.443,0,0,0-.805-1.955,3.066,3.066,0,0,0-1.971-.669A2.6,2.6,0,0,0,37.1,31.53a1.766,1.766,0,0,1-3.532,0,6.041,6.041,0,0,1,6.309-6.157,6.04,6.04,0,0,1,6.307,6.157A1.762,1.762,0,0,1,44.421,33.3Z" transform="translate(-33.57 -25.373)" fill="#b13e8d"/>
      </g>
      <g id="Grupo_136408" data-name="Grupo 136408" transform="translate(73.054 46.516)">
        <path id="Trazado_194513" data-name="Trazado 194513" d="M53.25,36.861A1.766,1.766,0,0,1,51.484,35.1a2.212,2.212,0,0,0-4.415,0,1.766,1.766,0,0,1-3.532,0c0-7.365,11.48-7.365,11.48,0A1.766,1.766,0,0,1,53.25,36.861Z" transform="translate(-43.536 -29.572)" fill="#b13e8d"/>
      </g>
      <g id="Grupo_136409" data-name="Grupo 136409" transform="translate(46.372 28.101)">
        <path id="Trazado_194514" data-name="Trazado 194514" d="M30.2,54.3a1.766,1.766,0,0,1-1.766-1.766V20.911a1.766,1.766,0,0,1,3.532,0V52.536A1.766,1.766,0,0,1,30.2,54.3Z" transform="translate(-28.429 -19.145)" fill="#b13e8d"/>
      </g>
      <g id="Grupo_136410" data-name="Grupo 136410" transform="translate(37.289 66.685)">
        <path id="Trazado_194515" data-name="Trazado 194515" d="M27.521,50.749a1.76,1.76,0,0,1-1.286-.555,10.818,10.818,0,0,1-2.949-7.437,1.766,1.766,0,1,1,3.532,0,7.291,7.291,0,0,0,1.989,5.016,1.764,1.764,0,0,1-1.286,2.976Z" transform="translate(-23.286 -40.991)" fill="#b13e8d"/>
      </g>
      <g id="Grupo_136411" data-name="Grupo 136411" transform="translate(46.372 59.726)">
        <path id="Trazado_194516" data-name="Trazado 194516" d="M30.2,43a1.766,1.766,0,0,1-1.766-1.766V38.817a1.766,1.766,0,1,1,3.532,0v2.418A1.766,1.766,0,0,1,30.2,43Z" transform="translate(-28.429 -37.051)" fill="#b13e8d"/>
      </g>
      <g id="Grupo_136412" data-name="Grupo 136412" transform="translate(46.455 90.624)">
        <path id="Trazado_194517" data-name="Trazado 194517" d="M57.528,58.077H30.242a1.766,1.766,0,1,1,0-3.532H57.528a1.766,1.766,0,0,1,0,3.532Z" transform="translate(-28.476 -54.545)" fill="#b13e8d"/>
      </g>
      <g id="Grupo_136413" data-name="Grupo 136413" transform="translate(73.741 80.027)">
        <path id="Trazado_194518" data-name="Trazado 194518" d="M45.691,62.674a1.766,1.766,0,0,1-1.766-1.766v-10.6a1.766,1.766,0,0,1,3.532,0v10.6A1.766,1.766,0,0,1,45.691,62.674Z" transform="translate(-43.925 -48.545)" fill="#b13e8d"/>
      </g>
      <g id="Grupo_136414" data-name="Grupo 136414" transform="translate(46.455 80.027)">
        <path id="Trazado_194519" data-name="Trazado 194519" d="M57.528,52.077H30.242a1.766,1.766,0,1,1,0-3.532H57.528a1.766,1.766,0,0,1,0,3.532Z" transform="translate(-28.476 -48.545)" fill="#b13e8d"/>
      </g>
      <g id="Grupo_136415" data-name="Grupo 136415" transform="translate(46.455 80.027)">
        <path id="Trazado_194520" data-name="Trazado 194520" d="M30.242,62.674a1.766,1.766,0,0,1-1.766-1.766v-10.6a1.766,1.766,0,1,1,3.532,0v10.6A1.766,1.766,0,0,1,30.242,62.674Z" transform="translate(-28.476 -48.545)" fill="#b13e8d"/>
      </g>
      <g id="Grupo_136416" data-name="Grupo 136416" transform="translate(39.758 72.911)">
        <path id="Trazado_194521" data-name="Trazado 194521" d="M33.147,55.164a1.76,1.76,0,0,1-1.286-.555l-6.7-7.116a1.766,1.766,0,1,1,2.572-2.421l6.7,7.116a1.764,1.764,0,0,1-1.286,2.976Z" transform="translate(-24.684 -44.516)" fill="#b13e8d"/>
      </g>
      <g id="Grupo_136417" data-name="Grupo 136417" transform="translate(73.74 78.434)">
        <path id="Trazado_194522" data-name="Trazado 194522" d="M45.691,52.768a1.764,1.764,0,0,1-1.286-2.976l1.5-1.593a1.766,1.766,0,1,1,2.572,2.421l-1.5,1.593A1.767,1.767,0,0,1,45.691,52.768Z" transform="translate(-43.925 -47.643)" fill="#b13e8d"/>
      </g>
      <g id="Grupo_136418" data-name="Grupo 136418" transform="translate(75.24 63.909)">
        <path id="Trazado_194523" data-name="Trazado 194523" d="M46.54,57.476A1.764,1.764,0,0,1,45.255,54.5a19.362,19.362,0,0,0,5.281-13.315,1.766,1.766,0,0,1,3.532,0,22.88,22.88,0,0,1-6.242,15.737,1.767,1.767,0,0,1-1.286.555Z" transform="translate(-44.774 -39.419)" fill="#b13e8d"/>
      </g>
      <g id="Grupo_136419" data-name="Grupo 136419" transform="translate(5.01 15.754)">
        <path id="Trazado_194524" data-name="Trazado 194524" d="M7.312,18.125a1.762,1.762,0,0,1-1.035-.337,3.124,3.124,0,0,1,1.832-5.634,1.765,1.765,0,0,1,.759,3.359,1.769,1.769,0,0,1-1.556,2.612Z" transform="translate(-5.01 -12.154)" fill="#b13e8d"/>
      </g>
      <g id="Grupo_136420" data-name="Grupo 136420" transform="translate(6.34 15.754)">
        <path id="Trazado_194525" data-name="Trazado 194525" d="M15.3,15.686H7.529a1.766,1.766,0,1,1,0-3.532H15.3a1.766,1.766,0,0,1,0,3.532Z" transform="translate(-5.763 -12.154)" fill="#b13e8d"/>
      </g>
      <g id="Grupo_136421" data-name="Grupo 136421" transform="translate(5.547 18.192)">
        <path id="Trazado_194526" data-name="Trazado 194526" d="M13.366,21.635a1.771,1.771,0,0,1-1.037-.337L6.042,16.73a1.766,1.766,0,1,1,2.077-2.856l6.288,4.567a1.765,1.765,0,0,1-1.04,3.193Z" transform="translate(-5.314 -13.534)" fill="#b13e8d"/>
      </g>
      <g id="Grupo_136422" data-name="Grupo 136422" transform="translate(9.37 30.15)">
        <path id="Trazado_194527" data-name="Trazado 194527" d="M10.616,25.593a3.13,3.13,0,0,1-1.84-.6,3.1,3.1,0,0,1-1.148-3.467,1.766,1.766,0,0,1,3.432.316A1.766,1.766,0,0,1,12.423,25a3.054,3.054,0,0,1-1.807.588Z" transform="translate(-7.478 -20.305)" fill="#b13e8d"/>
      </g>
      <g id="Grupo_136423" data-name="Grupo 136423" transform="translate(9.432 22.758)">
        <path id="Trazado_194528" data-name="Trazado 194528" d="M9.28,27.044A1.766,1.766,0,0,1,7.6,24.732l2.4-7.39a1.766,1.766,0,1,1,3.359,1.09l-2.4,7.39A1.764,1.764,0,0,1,9.28,27.044Z" transform="translate(-7.514 -16.12)" fill="#b13e8d"/>
      </g>
      <g id="Grupo_136424" data-name="Grupo 136424" transform="translate(11.506 27.089)">
        <path id="Trazado_194529" data-name="Trazado 194529" d="M10.456,26.672a1.765,1.765,0,0,1-1.04-3.193L15.7,18.911a1.766,1.766,0,1,1,2.077,2.856l-6.288,4.567A1.755,1.755,0,0,1,10.456,26.672Z" transform="translate(-8.688 -18.572)" fill="#b13e8d"/>
      </g>
      <g id="Grupo_136425" data-name="Grupo 136425" transform="translate(24.079 30.153)">
        <path id="Trazado_194530" data-name="Trazado 194530" d="M18.34,25.592a3.061,3.061,0,0,1-1.8-.583A1.765,1.765,0,0,1,17.9,21.844a1.766,1.766,0,0,1,3.432-.316,3.091,3.091,0,0,1-1.137,3.46,3.169,3.169,0,0,1-1.851.6Z" transform="translate(-15.807 -20.307)" fill="#b13e8d"/>
      </g>
      <g id="Grupo_136426" data-name="Grupo 136426" transform="translate(23.753 22.759)">
        <path id="Trazado_194531" data-name="Trazado 194531" d="M19.788,27.044a1.765,1.765,0,0,1-1.68-1.22l-2.4-7.39a1.766,1.766,0,1,1,3.359-1.09l2.4,7.39a1.767,1.767,0,0,1-1.134,2.225,1.831,1.831,0,0,1-.546.085Z" transform="translate(-15.622 -16.12)" fill="#b13e8d"/>
      </g>
      <g id="Grupo_136427" data-name="Grupo 136427" transform="translate(17.793 27.091)">
        <path id="Trazado_194532" data-name="Trazado 194532" d="M20.3,26.671a1.767,1.767,0,0,1-1.037-.337l-6.286-4.567a1.766,1.766,0,1,1,2.077-2.856l6.286,4.567a1.765,1.765,0,0,1-1.04,3.193Z" transform="translate(-12.248 -18.573)" fill="#b13e8d"/>
      </g>
      <g id="Grupo_136428" data-name="Grupo 136428" transform="translate(29.247 15.756)">
        <path id="Trazado_194533" data-name="Trazado 194533" d="M21.294,18.125a1.767,1.767,0,0,1-1.554-2.61,1.765,1.765,0,0,1,.759-3.359,3.125,3.125,0,0,1,1.832,5.634A1.765,1.765,0,0,1,21.294,18.125Z" transform="translate(-18.733 -12.155)" fill="#b13e8d"/>
      </g>
      <g id="Grupo_136429" data-name="Grupo 136429" transform="translate(23.752 18.193)">
        <path id="Trazado_194534" data-name="Trazado 194534" d="M17.39,21.635a1.765,1.765,0,0,1-1.04-3.193l6.288-4.567a1.766,1.766,0,1,1,2.077,2.856L18.427,21.3a1.759,1.759,0,0,1-1.037.337Z" transform="translate(-15.622 -13.535)" fill="#b13e8d"/>
      </g>
      <g id="Grupo_136430" data-name="Grupo 136430" transform="translate(21.478 15.754)">
        <path id="Trazado_194535" data-name="Trazado 194535" d="M23.87,15.686H16.1a1.766,1.766,0,0,1,0-3.532H23.87a1.766,1.766,0,1,1,0,3.532Z" transform="translate(-14.334 -12.154)" fill="#b13e8d"/>
      </g>
      <g id="Grupo_136431" data-name="Grupo 136431" transform="translate(16.511 7.455)">
        <path id="Trazado_194536" data-name="Trazado 194536" d="M15.853,11.9a1.77,1.77,0,0,1-1.282-.553,1.766,1.766,0,0,1-2.962-1.763,3.123,3.123,0,0,1,5.922,0A1.768,1.768,0,0,1,16.4,11.812,1.748,1.748,0,0,1,15.853,11.9Z" transform="translate(-11.522 -7.455)" fill="#b13e8d"/>
      </g>
      <g id="Grupo_136432" data-name="Grupo 136432" transform="translate(14.111 8.363)">
        <path id="Trazado_194537" data-name="Trazado 194537" d="M11.929,18.893a1.766,1.766,0,0,1-1.68-2.312l2.4-7.39a1.766,1.766,0,1,1,3.359,1.09l-2.4,7.39A1.768,1.768,0,0,1,11.929,18.893Z" transform="translate(-10.163 -7.969)" fill="#b13e8d"/>
      </g>
      <g id="Grupo_136433" data-name="Grupo 136433" transform="translate(19.074 8.365)">
        <path id="Trazado_194538" data-name="Trazado 194538" d="M17.141,18.892a1.771,1.771,0,0,1-1.68-1.22l-2.4-7.39a1.766,1.766,0,0,1,3.359-1.093l2.4,7.39a1.762,1.762,0,0,1-1.68,2.314Z" transform="translate(-12.973 -7.97)" fill="#b13e8d"/>
      </g>
      <g id="Grupo_136434" data-name="Grupo 136434" transform="translate(71.248 15.754)">
        <path id="Trazado_194539" data-name="Trazado 194539" d="M44.816,18.125a1.762,1.762,0,0,1-1.035-.337,3.124,3.124,0,0,1,1.832-5.634,1.765,1.765,0,0,1,.759,3.359,1.769,1.769,0,0,1-1.556,2.612Z" transform="translate(-42.514 -12.154)" fill="#b13e8d"/>
      </g>
      <g id="Grupo_136435" data-name="Grupo 136435" transform="translate(72.58 15.754)">
        <path id="Trazado_194540" data-name="Trazado 194540" d="M52.8,15.686H45.034a1.766,1.766,0,1,1,0-3.532H52.8a1.766,1.766,0,0,1,0,3.532Z" transform="translate(-43.268 -12.154)" fill="#b13e8d"/>
      </g>
      <g id="Grupo_136436" data-name="Grupo 136436" transform="translate(71.785 18.194)">
        <path id="Trazado_194541" data-name="Trazado 194541" d="M50.87,21.634a1.771,1.771,0,0,1-1.037-.337L43.546,16.73a1.766,1.766,0,1,1,2.077-2.856l6.288,4.567a1.765,1.765,0,0,1-1.04,3.193Z" transform="translate(-42.818 -13.535)" fill="#b13e8d"/>
      </g>
      <g id="Grupo_136437" data-name="Grupo 136437" transform="translate(75.606 30.15)">
        <path id="Trazado_194542" data-name="Trazado 194542" d="M48.121,25.593a3.126,3.126,0,0,1-1.847-.6,3.093,3.093,0,0,1-1.141-3.463,1.765,1.765,0,0,1,3.43.316,1.765,1.765,0,0,1,1.358,3.165,3.036,3.036,0,0,1-1.8.586Z" transform="translate(-44.981 -20.305)" fill="#b13e8d"/>
      </g>
      <g id="Grupo_136438" data-name="Grupo 136438" transform="translate(75.671 22.758)">
        <path id="Trazado_194543" data-name="Trazado 194543" d="M46.784,27.044a1.766,1.766,0,0,1-1.68-2.312l2.4-7.39a1.766,1.766,0,1,1,3.359,1.09l-2.4,7.39A1.764,1.764,0,0,1,46.784,27.044Z" transform="translate(-45.018 -16.12)" fill="#b13e8d"/>
      </g>
      <g id="Grupo_136439" data-name="Grupo 136439" transform="translate(77.744 27.089)">
        <path id="Trazado_194544" data-name="Trazado 194544" d="M47.96,26.672a1.765,1.765,0,0,1-1.04-3.193l6.288-4.567a1.766,1.766,0,1,1,2.077,2.856L49,26.334a1.755,1.755,0,0,1-1.037.337Z" transform="translate(-46.192 -18.572)" fill="#b13e8d"/>
      </g>
      <g id="Grupo_136440" data-name="Grupo 136440" transform="translate(90.318 30.153)">
        <path id="Trazado_194545" data-name="Trazado 194545" d="M55.844,25.592a3.061,3.061,0,0,1-1.8-.583A1.765,1.765,0,0,1,55.4,21.844a1.766,1.766,0,0,1,3.432-.316,3.091,3.091,0,0,1-1.137,3.46A3.169,3.169,0,0,1,55.844,25.592Z" transform="translate(-53.311 -20.307)" fill="#b13e8d"/>
      </g>
      <g id="Grupo_136441" data-name="Grupo 136441" transform="translate(89.991 22.759)">
        <path id="Trazado_194546" data-name="Trazado 194546" d="M57.292,27.044a1.765,1.765,0,0,1-1.68-1.22l-2.4-7.39a1.766,1.766,0,1,1,3.359-1.09l2.4,7.39a1.767,1.767,0,0,1-1.134,2.225A1.831,1.831,0,0,1,57.292,27.044Z" transform="translate(-53.126 -16.12)" fill="#b13e8d"/>
      </g>
      <g id="Grupo_136442" data-name="Grupo 136442" transform="translate(84.032 27.091)">
        <path id="Trazado_194547" data-name="Trazado 194547" d="M57.8,26.671a1.767,1.767,0,0,1-1.037-.337L50.48,21.766a1.766,1.766,0,1,1,2.077-2.856l6.286,4.567a1.765,1.765,0,0,1-1.04,3.193Z" transform="translate(-49.752 -18.573)" fill="#b13e8d"/>
      </g>
      <g id="Grupo_136443" data-name="Grupo 136443" transform="translate(95.486 15.756)">
        <path id="Trazado_194548" data-name="Trazado 194548" d="M58.8,18.125a1.767,1.767,0,0,1-1.554-2.61A1.765,1.765,0,0,1,58,12.155a3.125,3.125,0,0,1,1.832,5.634A1.765,1.765,0,0,1,58.8,18.125Z" transform="translate(-56.237 -12.155)" fill="#b13e8d"/>
      </g>
      <g id="Grupo_136444" data-name="Grupo 136444" transform="translate(89.991 18.193)">
        <path id="Trazado_194549" data-name="Trazado 194549" d="M54.894,21.635a1.765,1.765,0,0,1-1.04-3.193l6.288-4.567a1.766,1.766,0,1,1,2.077,2.856L55.931,21.3a1.759,1.759,0,0,1-1.037.337Z" transform="translate(-53.126 -13.535)" fill="#b13e8d"/>
      </g>
      <g id="Grupo_136445" data-name="Grupo 136445" transform="translate(87.716 15.754)">
        <path id="Trazado_194550" data-name="Trazado 194550" d="M61.374,15.686H53.6a1.766,1.766,0,1,1,0-3.532h7.769a1.766,1.766,0,0,1,0,3.532Z" transform="translate(-51.838 -12.154)" fill="#b13e8d"/>
      </g>
      <g id="Grupo_136446" data-name="Grupo 136446" transform="translate(82.75 7.455)">
        <path id="Trazado_194551" data-name="Trazado 194551" d="M53.357,11.9a1.77,1.77,0,0,1-1.282-.553,1.766,1.766,0,0,1-2.962-1.763,3.123,3.123,0,0,1,5.922,0A1.768,1.768,0,0,1,53.9,11.812a1.748,1.748,0,0,1-.542.087Z" transform="translate(-49.026 -7.455)" fill="#b13e8d"/>
      </g>
      <g id="Grupo_136447" data-name="Grupo 136447" transform="translate(80.349 8.363)">
        <path id="Trazado_194552" data-name="Trazado 194552" d="M49.433,18.893a1.766,1.766,0,0,1-1.68-2.312l2.4-7.39a1.766,1.766,0,1,1,3.359,1.09l-2.4,7.39A1.77,1.77,0,0,1,49.433,18.893Z" transform="translate(-47.667 -7.969)" fill="#b13e8d"/>
      </g>
      <g id="Grupo_136448" data-name="Grupo 136448" transform="translate(85.313 8.365)">
        <path id="Trazado_194553" data-name="Trazado 194553" d="M54.645,18.892a1.771,1.771,0,0,1-1.68-1.22l-2.4-7.39a1.766,1.766,0,0,1,3.359-1.093l2.4,7.39a1.762,1.762,0,0,1-1.68,2.314Z" transform="translate(-50.477 -7.97)" fill="#b13e8d"/>
      </g>
    </g>
  </g>
</svg>
