<svg xmlns="http://www.w3.org/2000/svg" xmlns:xlink="http://www.w3.org/1999/xlink" width="88" height="88" viewBox="0 0 88 88">
  <defs>
    <filter id="Rect치ngulo_40719" x="0" y="0" width="88" height="88" filterUnits="userSpaceOnUse">
      <feOffset dy="3" input="SourceAlpha"/>
      <feGaussianBlur stdDeviation="3" result="blur"/>
      <feFlood flood-opacity="0.161"/>
      <feComposite operator="in" in2="blur"/>
      <feComposite in="SourceGraphic"/>
    </filter>
  </defs>
  <g id="Grupo_136730" data-name="Grupo 136730" transform="translate(-998.333 -155)">
    <g id="Grupo_128459" data-name="Grupo 128459" transform="translate(773.333 -754)">
      <g transform="matrix(1, 0, 0, 1, 225, 909)" filter="url(#Rect치ngulo_40719)">
        <path id="Rect치ngulo_40719-2" data-name="Rect치ngulo 40719" d="M10,0H60A10,10,0,0,1,70,10V70a0,0,0,0,1,0,0H10A10,10,0,0,1,0,60V10A10,10,0,0,1,10,0Z" transform="translate(9 6)" fill="#b13e8d"/>
      </g>
      <g id="innovacion" transform="translate(244.078 924.078)">
        <path id="Trazado_194098" data-name="Trazado 194098" d="M50.43,53.509l-1.137,1.137,2.176,2.176,5.392-5.392-1.137-1.137-4.255,4.255Z" transform="translate(-9.469 -9.665)" fill="#fff"/>
        <path id="Trazado_194099" data-name="Trazado 194099" d="M11.724,6.293,7.469,10.548,6.43,9.509,5.293,10.645l2.176,2.176L12.861,7.43Z" transform="translate(-0.842 -1.038)" fill="#fff"/>
        <path id="Trazado_194100" data-name="Trazado 194100" d="M30.431,20a6.431,6.431,0,1,0,6.431,6.431A6.439,6.439,0,0,0,30.431,20Zm0,11.255a4.824,4.824,0,1,1,4.824-4.824A4.828,4.828,0,0,1,30.431,31.255Z" transform="translate(-4.51 -3.725)" fill="#fff"/>
        <path id="Trazado_194101" data-name="Trazado 194101" d="M31.216,24a3.216,3.216,0,1,0,3.216,3.216A3.219,3.219,0,0,0,31.216,24Zm0,4.824a1.608,1.608,0,1,1,1.608-1.608A1.609,1.609,0,0,1,31.216,28.824Z" transform="translate(-5.294 -4.51)" fill="#fff"/>
        <path id="Trazado_194102" data-name="Trazado 194102" d="M38.277,21.574l.672-1.405-4.214-4.216-1.406.672c-.125-.055-.252-.108-.379-.158L32.432,15H26.47l-.518,1.468q-.191.075-.379.158l-1.406-.672-4.214,4.216.672,1.405c-.055.126-.109.252-.158.379L19,22.47v5.961l1.468.519q.075.189.158.379l-.672,1.406,4.214,4.214,1.406-.672c.125.055.252.109.379.158L26.47,35.9h5.962l.518-1.468q.189-.075.379-.158l1.406.672,4.214-4.214-.672-1.406c.055-.126.109-.252.158-.379l1.468-.518V22.471l-1.468-.519Q38.359,21.763,38.277,21.574Zm.018,5.72-1.12.395-.125.368a7.911,7.911,0,0,1-.383.921l-.172.35.514,1.072L34.4,33.006l-1.073-.514-.351.172a7.753,7.753,0,0,1-.921.383l-.369.125-.394,1.121H27.608l-.395-1.12-.369-.125a7.752,7.752,0,0,1-.921-.383l-.351-.172-1.073.514L21.894,30.4l.514-1.072-.172-.35a7.911,7.911,0,0,1-.383-.921l-.125-.368-1.119-.4V23.608l1.12-.395.125-.368a7.911,7.911,0,0,1,.383-.921l.172-.35L21.895,20.5,24.5,17.895l1.073.513.351-.172a7.831,7.831,0,0,1,.921-.383l.368-.126.394-1.118h3.685l.395,1.119.368.126a7.832,7.832,0,0,1,.921.383l.351.172L34.4,17.9,37.008,20.5l-.514,1.072.172.35a7.911,7.911,0,0,1,.383.921l.125.368,1.119.395Z" transform="translate(-3.529 -2.745)" fill="#fff"/>
        <path id="Trazado_194103" data-name="Trazado 194103" d="M5,53h9.647v1.608H5Z" transform="translate(-0.784 -10.196)" fill="#fff"/>
        <path id="Trazado_194104" data-name="Trazado 194104" d="M15,57h1.608v1.608H15Z" transform="translate(-2.745 -10.98)" fill="#fff"/>
        <path id="Trazado_194105" data-name="Trazado 194105" d="M5,57h6.431v1.608H5Z" transform="translate(-0.784 -10.98)" fill="#fff"/>
        <path id="Trazado_194106" data-name="Trazado 194106" d="M40.725,12.255H50.844V1H46.02V2.608H42.8V4.216H39.589v6.9l-2.463,2.462a14.452,14.452,0,0,0-25.563,7.308c-.042.339-.069.677-.088,1.014H9.843a.8.8,0,0,1-.8-.8V15.423a7.235,7.235,0,1,0-1.608,0V21.1A2.415,2.415,0,0,0,9.843,23.51h1.64a14.479,14.479,0,0,0,1.106,4.824H9.039a2.415,2.415,0,0,0-2.412,2.412v8.843H3.412A2.415,2.415,0,0,0,1,42v6.431a2.415,2.415,0,0,0,2.412,2.412H14.667a2.415,2.415,0,0,0,2.412-2.412V42a2.415,2.415,0,0,0-2.412-2.412V38.171a1.8,1.8,0,0,0-3.405-.8L10.15,39.589H8.235V30.745a.8.8,0,0,1,.8-.8h4.341a14.425,14.425,0,0,0,4.983,5.1,2.4,2.4,0,0,0,.5,4.451,2.391,2.391,0,0,0,1.608,3.216A2.39,2.39,0,0,0,21.9,45.872v.952a4.02,4.02,0,0,0,8.039,0v-.952a2.39,2.39,0,0,0,1.431-3.161A2.391,2.391,0,0,0,32.98,39.5a2.4,2.4,0,0,0,.5-4.451A14.449,14.449,0,0,0,40.366,23.51H42a.8.8,0,0,1,.8.8V36.42a7.235,7.235,0,1,0,1.608,0V24.314A2.415,2.415,0,0,0,42,21.9H40.35a14.468,14.468,0,0,0-2.269-7Zm6.9-9.647h1.608v8.039H47.628ZM46.02,4.216v6.431H44.412V4.216ZM41.2,5.824H42.8v4.824H41.2ZM2.608,8.235a5.628,5.628,0,1,1,5.628,5.628A5.634,5.634,0,0,1,2.608,8.235ZM11.144,41.2l1.555-3.11a.2.2,0,0,1,.36.084V41.2h1.608a.8.8,0,0,1,.8.8v6.431a.8.8,0,0,1-.8.8H3.412a.8.8,0,0,1-.8-.8V42a.8.8,0,0,1,.8-.8Zm38.092,2.412a5.628,5.628,0,1,1-5.628-5.628A5.635,5.635,0,0,1,49.236,43.608ZM25.922,49.236a2.415,2.415,0,0,1-2.412-2.412v-.8h4.824v.8A2.415,2.415,0,0,1,25.922,49.236Zm3.216-4.824H22.706a.8.8,0,1,1,0-1.608h6.431a.8.8,0,1,1,0,1.608ZM30.745,41.2H21.1a.8.8,0,1,1,0-1.608h9.647a.8.8,0,1,1,0,1.608Zm1.228-7.142-.424.227v2.092h.8a.8.8,0,1,1,0,1.608H19.49a.8.8,0,1,1,0-1.608h.8V34.281l-.424-.227a12.863,12.863,0,1,1,12.1,0Z" fill="#fff"/>
      </g>
    </g>
  </g>
</svg>
