<svg xmlns="http://www.w3.org/2000/svg" xmlns:xlink="http://www.w3.org/1999/xlink" width="88" height="88" viewBox="0 0 88 88">
  <defs>
    <filter id="Trazado_188616" x="0" y="0" width="88" height="88" filterUnits="userSpaceOnUse">
      <feOffset dy="3" input="SourceAlpha"/>
      <feGaussianBlur stdDeviation="3" result="blur"/>
      <feFlood flood-opacity="0.161"/>
      <feComposite operator="in" in2="blur"/>
      <feComposite in="SourceGraphic"/>
    </filter>
  </defs>
  <g id="Grupo_136731" data-name="Grupo 136731" transform="translate(-1236.333 -188)">
    <g id="Grupo_128476" data-name="Grupo 128476" transform="translate(15 70)">
      <g transform="matrix(1, 0, 0, 1, 1221.33, 118)" filter="url(#Trazado_188616)">
        <path id="Trazado_188616-2" data-name="Trazado 188616" d="M7.778,0H62.222A7.778,7.778,0,0,1,70,7.778V70H7.778A7.778,7.778,0,0,1,0,62.222V7.778A7.778,7.778,0,0,1,7.778,0Z" transform="translate(9 6)" fill="#f7ca18"/>
      </g>
      <g id="_20-manual" data-name="20-manual" transform="translate(1238.389 132.739)">
        <path id="Trazado_194107" data-name="Trazado 194107" d="M27.734,45.785a.836.836,0,0,1-.489-.157c-6.023-4.305-13.846-4.895-21.4-4.895A.842.842,0,0,1,5,39.89V2.842A.842.842,0,0,1,5.842,2c7.639,0,15.561.6,21.892,4.869C34.065,2.6,41.988,2,49.627,2a.842.842,0,0,1,.842.842V30.628H48.785V3.684c-7.293.047-14.761.75-20.561,4.892a.842.842,0,0,1-.978,0c-5.8-4.139-13.268-4.842-20.561-4.892V39.048c7.377.047,14.952.758,21.05,4.867a23.429,23.429,0,0,1,3.878-2.105l.663,1.548a21.613,21.613,0,0,0-4.053,2.263.836.836,0,0,1-.489.163Z" transform="translate(-0.79)" fill="#6836bf"/>
        <path id="Trazado_194108" data-name="Trazado 194108" d="M24.133,41.142c-3.382-1.447-7.446-2.205-13.177-2.458L11.03,37c5.944.262,10.188,1.063,13.767,2.593Z" transform="translate(-1.731 -5.53)" fill="#6836bf"/>
        <path id="Trazado_194109" data-name="Trazado 194109" d="M24.133,36.142c-3.382-1.447-7.446-2.205-13.177-2.458L11.03,32c5.944.262,10.188,1.063,13.767,2.593Z" transform="translate(-1.731 -4.74)" fill="#6836bf"/>
        <path id="Trazado_194110" data-name="Trazado 194110" d="M24.133,31.142c-3.382-1.447-7.446-2.205-13.177-2.458L11.03,27c5.944.262,10.188,1.063,13.767,2.593Z" transform="translate(-1.731 -3.95)" fill="#6836bf"/>
        <path id="Trazado_194111" data-name="Trazado 194111" d="M24.133,26.142c-3.382-1.447-7.446-2.205-13.177-2.458L11.03,22c5.944.262,10.188,1.063,13.767,2.593Z" transform="translate(-1.731 -3.16)" fill="#6836bf"/>
        <path id="Trazado_194112" data-name="Trazado 194112" d="M24.133,21.142c-3.382-1.447-7.446-2.205-13.177-2.458L11.03,17c5.944.262,10.188,1.063,13.767,2.593Z" transform="translate(-1.731 -2.37)" fill="#6836bf"/>
        <path id="Trazado_194113" data-name="Trazado 194113" d="M24.133,16.142c-3.382-1.447-7.446-2.205-13.177-2.458L11.03,12c5.944.262,10.188,1.063,13.767,2.593Z" transform="translate(-1.731 -1.58)" fill="#6836bf"/>
        <path id="Trazado_194114" data-name="Trazado 194114" d="M37.27,36.142l-.663-1.548c3.578-1.531,7.823-2.332,13.767-2.593l.074,1.684C44.715,33.937,40.652,34.695,37.27,36.142Z" transform="translate(-5.783 -4.74)" fill="#6836bf"/>
        <path id="Trazado_194115" data-name="Trazado 194115" d="M37.27,31.142l-.663-1.548c3.578-1.531,7.823-2.332,13.767-2.593l.074,1.684C44.715,28.937,40.652,29.695,37.27,31.142Z" transform="translate(-5.783 -3.95)" fill="#6836bf"/>
        <path id="Trazado_194116" data-name="Trazado 194116" d="M37.27,26.142l-.663-1.548c3.578-1.531,7.823-2.332,13.767-2.593l.074,1.684C44.715,23.937,40.652,24.695,37.27,26.142Z" transform="translate(-5.783 -3.16)" fill="#6836bf"/>
        <path id="Trazado_194117" data-name="Trazado 194117" d="M37.27,21.142l-.663-1.548c3.578-1.531,7.823-2.332,13.767-2.593l.074,1.684C44.715,18.937,40.652,19.695,37.27,21.142Z" transform="translate(-5.783 -2.37)" fill="#6836bf"/>
        <path id="Trazado_194118" data-name="Trazado 194118" d="M37.27,16.142l-.663-1.548c3.578-1.531,7.823-2.332,13.767-2.593l.074,1.684C44.715,13.937,40.652,14.695,37.27,16.142Z" transform="translate(-5.783 -1.58)" fill="#6836bf"/>
        <rect id="Rectángulo_43567" data-name="Rectángulo 43567" width="2" height="41" transform="translate(25.944 7.26)" fill="#6836bf"/>
        <path id="Trazado_194119" data-name="Trazado 194119" d="M32,49.785H4.21A4.215,4.215,0,0,1,0,45.574V10.21A4.215,4.215,0,0,1,4.21,6h.842V7.684H4.21A2.526,2.526,0,0,0,1.684,10.21V45.574A2.526,2.526,0,0,0,4.21,48.1H32Z" transform="translate(0 -0.632)" fill="#6836bf"/>
        <path id="Trazado_194120" data-name="Trazado 194120" d="M63.052,33.786H61.368V10.21a2.526,2.526,0,0,0-2.526-2.526H58V6h.842a4.215,4.215,0,0,1,4.21,4.21Z" transform="translate(-9.163 -0.632)" fill="#6836bf"/>
        <path id="Trazado_194121" data-name="Trazado 194121" d="M50.63,57.892H47.262a.842.842,0,0,1-.842-.842V54.974a8.24,8.24,0,0,1-1.363-.567l-1.469,1.469a.842.842,0,0,1-1.191,0L40.016,53.5a.842.842,0,0,1,0-1.191l1.469-1.469a8.24,8.24,0,0,1-.567-1.363H38.842A.842.842,0,0,1,38,48.63V45.262a.842.842,0,0,1,.842-.842h2.076a8.24,8.24,0,0,1,.567-1.363l-1.469-1.469a.842.842,0,0,1,0-1.191L42.4,38.016a.842.842,0,0,1,1.191,0l1.469,1.469a8.3,8.3,0,0,1,1.363-.567V36.842A.842.842,0,0,1,47.262,36H50.63a.842.842,0,0,1,.842.842v2.076a8.3,8.3,0,0,1,1.363.567L54.3,38.016a.842.842,0,0,1,1.191,0L57.877,40.4a.842.842,0,0,1,0,1.191l-1.469,1.469a8.24,8.24,0,0,1,.567,1.363H59.05a.842.842,0,0,1,.842.842V48.63a.842.842,0,0,1-.842.842H56.974a8.24,8.24,0,0,1-.567,1.363L57.877,52.3a.842.842,0,0,1,0,1.191L55.5,55.877a.842.842,0,0,1-1.191,0l-1.469-1.469a8.24,8.24,0,0,1-1.363.567V57.05A.842.842,0,0,1,50.63,57.892ZM48.1,56.208h1.684V54.331a.842.842,0,0,1,.655-.821,6.706,6.706,0,0,0,2.083-.865.842.842,0,0,1,1.044.116l1.33,1.33L56.091,52.9l-1.33-1.33a.842.842,0,0,1-.116-1.044,6.706,6.706,0,0,0,.869-2.083.842.842,0,0,1,.817-.655h1.878V46.1H56.331a.842.842,0,0,1-.821-.655,6.706,6.706,0,0,0-.865-2.083.842.842,0,0,1,.116-1.044l1.33-1.33L54.9,39.8l-1.33,1.33a.842.842,0,0,1-1.043.117,6.726,6.726,0,0,0-2.084-.866.842.842,0,0,1-.655-.821V37.684H48.1v1.878a.842.842,0,0,1-.655.821,6.726,6.726,0,0,0-2.084.866.842.842,0,0,1-1.043-.117l-1.33-1.33L41.8,40.992l1.33,1.33a.842.842,0,0,1,.116,1.044,6.706,6.706,0,0,0-.865,2.083.842.842,0,0,1-.821.655H39.684v1.684h1.878a.842.842,0,0,1,.821.655,6.706,6.706,0,0,0,.865,2.083.842.842,0,0,1-.116,1.044L41.8,52.9l1.191,1.191,1.33-1.33a.842.842,0,0,1,1.044-.116,6.706,6.706,0,0,0,2.083.869.842.842,0,0,1,.655.817Z" transform="translate(-6.004 -5.372)" fill="#6836bf"/>
        <path id="Trazado_194122" data-name="Trazado 194122" d="M50.052,53.1A5.052,5.052,0,1,1,55.1,48.052,5.052,5.052,0,0,1,50.052,53.1Zm0-8.42a3.368,3.368,0,1,0,3.368,3.368A3.368,3.368,0,0,0,50.052,44.684Z" transform="translate(-7.11 -6.478)" fill="#6836bf"/>
        <path id="Trazado_194123" data-name="Trazado 194123" d="M28.208,52.894H8.842A.842.842,0,0,1,8,52.052V47H9.684v4.21H28.208Z" transform="translate(-1.264 -7.11)" fill="#6836bf"/>
      </g>
    </g>
  </g>
</svg>
