<svg xmlns="http://www.w3.org/2000/svg" xmlns:xlink="http://www.w3.org/1999/xlink" width="108" height="108" viewBox="0 0 108 108">
  <defs>
    <filter id="Rect치ngulo_43676" x="0" y="0" width="108" height="108" filterUnits="userSpaceOnUse">
      <feOffset dy="3" input="SourceAlpha"/>
      <feGaussianBlur stdDeviation="3" result="blur"/>
      <feFlood flood-opacity="0.161"/>
      <feComposite operator="in" in2="blur"/>
      <feComposite in="SourceGraphic"/>
    </filter>
  </defs>
  <g id="Grupo_136636" data-name="Grupo 136636" transform="translate(7025.457 9883.811)">
    <g id="Grupo_136635" data-name="Grupo 136635">
      <g transform="matrix(1, 0, 0, 1, -7025.46, -9883.81)" filter="url(#Rect치ngulo_43676)">
        <path id="Rect치ngulo_43676-2" data-name="Rect치ngulo 43676" d="M10,0H80A10,10,0,0,1,90,10V90a0,0,0,0,1,0,0H10A10,10,0,0,1,0,80V10A10,10,0,0,1,10,0Z" transform="translate(9 6)" fill="#f6f6f6"/>
      </g>
      <g id="grupo" transform="translate(-7004.817 -9865.879)">
        <g id="Grupo_136302" data-name="Grupo 136302" transform="translate(15.873 2.815)">
          <g id="Grupo_136301" data-name="Grupo 136301" transform="translate(0 0)">
            <path id="Trazado_194287" data-name="Trazado 194287" d="M128.885,21.182a1.07,1.07,0,0,0-1.408-.556,32.923,32.923,0,0,0-3.412,1.723A1.07,1.07,0,1,0,125.14,24.2a30.742,30.742,0,0,1,3.189-1.61A1.07,1.07,0,0,0,128.885,21.182Z" transform="translate(-123.532 -20.537)" fill="#6836bf"/>
          </g>
        </g>
        <g id="Grupo_136304" data-name="Grupo 136304" transform="translate(37.298 0.671)">
          <g id="Grupo_136303" data-name="Grupo 136303">
            <path id="Trazado_194288" data-name="Trazado 194288" d="M295.256,4.741a32.792,32.792,0,0,0-3.724-.873,1.07,1.07,0,0,0-.366,2.109,30.673,30.673,0,0,1,3.48.815,1.07,1.07,0,0,0,.61-2.052Z" transform="translate(-290.279 -3.852)" fill="#6836bf"/>
          </g>
        </g>
        <g id="Grupo_136306" data-name="Grupo 136306" transform="translate(29.923 0.202)">
          <g id="Grupo_136305" data-name="Grupo 136305" transform="translate(0 0)">
            <path id="Trazado_194289" data-name="Trazado 194289" d="M237.71.254C237.1.219,236.47.2,235.851.2h0c-.651,0-1.311.019-1.96.058a1.07,1.07,0,0,0,.062,2.139l.064,0c.607-.036,1.225-.054,1.834-.054h0c.579,0,1.165.016,1.74.048A1.07,1.07,0,1,0,237.71.254Z" transform="translate(-232.88 -0.202)" fill="#6836bf"/>
          </g>
        </g>
        <g id="Grupo_136308" data-name="Grupo 136308" transform="translate(62.779 24.621)">
          <g id="Grupo_136307" data-name="Grupo 136307">
            <path id="Trazado_194290" data-name="Trazado 194290" d="M491.38,194.841a32.9,32.9,0,0,0-.667-3.766,1.07,1.07,0,1,0-2.082.5,30.775,30.775,0,0,1,.624,3.52,1.07,1.07,0,1,0,2.126-.25Z" transform="translate(-488.601 -190.252)" fill="#6836bf"/>
          </g>
        </g>
        <g id="Grupo_136310" data-name="Grupo 136310" transform="translate(61.735 39.361)">
          <g id="Grupo_136309" data-name="Grupo 136309">
            <path id="Trazado_194291" data-name="Trazado 194291" d="M482.848,305.007a1.071,1.071,0,0,0-1.288.8,30.669,30.669,0,0,1-1.024,3.427,1.07,1.07,0,1,0,2.012.732,32.793,32.793,0,0,0,1.1-3.667A1.07,1.07,0,0,0,482.848,305.007Z" transform="translate(-480.472 -304.978)" fill="#6836bf"/>
          </g>
        </g>
        <g id="Grupo_136312" data-name="Grupo 136312" transform="translate(44.38 2.775)">
          <g id="Grupo_136311" data-name="Grupo 136311">
            <path id="Trazado_194292" data-name="Trazado 194292" d="M350.312,22.03a32.873,32.873,0,0,0-3.421-1.714,1.07,1.07,0,1,0-.845,1.966,30.769,30.769,0,0,1,3.2,1.6,1.07,1.07,0,1,0,1.069-1.855Z" transform="translate(-345.398 -20.228)" fill="#6836bf"/>
          </g>
        </g>
        <g id="Grupo_136314" data-name="Grupo 136314" transform="translate(0.858 39.394)">
          <g id="Grupo_136313" data-name="Grupo 136313">
            <path id="Trazado_194293" data-name="Trazado 194293" d="M9.812,309.482a30.648,30.648,0,0,1-1.027-3.424,1.07,1.07,0,1,0-2.083.494,32.768,32.768,0,0,0,1.1,3.664,1.07,1.07,0,0,0,2.011-.734Z" transform="translate(-6.674 -305.235)" fill="#6836bf"/>
          </g>
        </g>
        <g id="Grupo_136316" data-name="Grupo 136316" transform="translate(22.648 0.689)">
          <g id="Grupo_136315" data-name="Grupo 136315">
            <path id="Trazado_194294" data-name="Trazado 194294" d="M181.989,4.874a1.07,1.07,0,0,0-1.24-.868,32.8,32.8,0,0,0-3.721.885,1.07,1.07,0,1,0,.616,2.05,30.668,30.668,0,0,1,3.477-.827A1.07,1.07,0,0,0,181.989,4.874Z" transform="translate(-176.265 -3.99)" fill="#6836bf"/>
          </g>
        </g>
        <g id="Grupo_136318" data-name="Grupo 136318" transform="translate(63.433 31.957)">
          <g id="Grupo_136317" data-name="Grupo 136317">
            <path id="Trazado_194295" data-name="Trazado 194295" d="M494.972,247.347a1.07,1.07,0,0,0-1.07,1.07v.068a31.243,31.243,0,0,1-.2,3.57,1.07,1.07,0,1,0,2.126.246,33.363,33.363,0,0,0,.219-3.816v-.068A1.07,1.07,0,0,0,494.972,247.347Z" transform="translate(-493.69 -247.347)" fill="#6836bf"/>
          </g>
        </g>
        <g id="Grupo_136320" data-name="Grupo 136320" transform="translate(33.689 63.365)">
          <g id="Grupo_136319" data-name="Grupo 136319">
            <path id="Trazado_194296" data-name="Trazado 194296" d="M268,492.685a1.07,1.07,0,0,0-1.239-.869,30.954,30.954,0,0,1-3.552.413,1.07,1.07,0,0,0,.061,2.139l.063,0a33.048,33.048,0,0,0,3.8-.441A1.07,1.07,0,0,0,268,492.685Z" transform="translate(-262.197 -491.8)" fill="#6836bf"/>
          </g>
        </g>
        <g id="Grupo_136322" data-name="Grupo 136322" transform="translate(26.315 63.371)">
          <g id="Grupo_136321" data-name="Grupo 136321">
            <path id="Trazado_194297" data-name="Trazado 194297" d="M209.6,492.27a30.976,30.976,0,0,1-3.552-.409,1.07,1.07,0,1,0-.368,2.109,33.094,33.094,0,0,0,3.8.437l.062,0a1.07,1.07,0,0,0,.06-2.139Z" transform="translate(-204.799 -491.845)" fill="#6836bf"/>
          </g>
        </g>
        <g id="Grupo_136324" data-name="Grupo 136324" transform="translate(19.235 61.259)">
          <g id="Grupo_136323" data-name="Grupo 136323">
            <path id="Trazado_194298" data-name="Trazado 194298" d="M154.551,476.717a30.6,30.6,0,0,1-3.361-1.221,1.07,1.07,0,0,0-.847,1.966,32.8,32.8,0,0,0,3.6,1.307,1.07,1.07,0,1,0,.611-2.051Z" transform="translate(-149.695 -475.408)" fill="#6836bf"/>
          </g>
        </g>
        <g id="Grupo_136326" data-name="Grupo 136326" transform="translate(0.209 24.72)">
          <g id="Grupo_136325" data-name="Grupo 136325">
            <path id="Trazado_194299" data-name="Trazado 194299" d="M3.567,191.051a1.07,1.07,0,0,0-1.287.8,32.939,32.939,0,0,0-.655,3.768,1.07,1.07,0,0,0,.942,1.185,1.083,1.083,0,0,0,.123.007,1.07,1.07,0,0,0,1.062-.948,30.76,30.76,0,0,1,.613-3.522A1.07,1.07,0,0,0,3.567,191.051Z" transform="translate(-1.618 -191.022)" fill="#6836bf"/>
          </g>
        </g>
        <g id="Grupo_136328" data-name="Grupo 136328" transform="translate(40.965 61.246)">
          <g id="Grupo_136327" data-name="Grupo 136327">
            <path id="Trazado_194300" data-name="Trazado 194300" d="M324.348,475.955a1.07,1.07,0,0,0-1.407-.557,30.677,30.677,0,0,1-3.358,1.224,1.07,1.07,0,1,0,.614,2.051,32.8,32.8,0,0,0,3.594-1.31A1.071,1.071,0,0,0,324.348,475.955Z" transform="translate(-318.819 -475.31)" fill="#6836bf"/>
          </g>
        </g>
        <g id="Grupo_136330" data-name="Grupo 136330" transform="translate(0.001 32.058)">
          <g id="Grupo_136329" data-name="Grupo 136329" transform="translate(0)">
            <path id="Trazado_194301" data-name="Trazado 194301" d="M2.35,252.775a31.205,31.205,0,0,1-.209-3.57,1.07,1.07,0,0,0-1.07-1.069h0A1.07,1.07,0,0,0,0,249.207a33.36,33.36,0,0,0,.223,3.816,1.07,1.07,0,0,0,1.062.946,1.09,1.09,0,0,0,.125-.007A1.07,1.07,0,0,0,2.35,252.775Z" transform="translate(-0.001 -248.136)" fill="#6836bf"/>
          </g>
        </g>
        <g id="Grupo_136332" data-name="Grupo 136332" transform="translate(0.605 4.385)">
          <g id="Grupo_136331" data-name="Grupo 136331">
            <path id="Trazado_194302" data-name="Trazado 194302" d="M21.2,43.65a.966.966,0,1,0-1.828.624,5.8,5.8,0,0,1,.31,1.878v2.579a.344.344,0,0,1-.344.344H6.976a.344.344,0,0,1-.344-.344V46.152a5.823,5.823,0,0,1,1.936-4.331,5.652,5.652,0,1,0-.9-1.766,7.755,7.755,0,0,0-2.971,6.1v2.579a2.277,2.277,0,0,0,2.275,2.275H19.342a2.277,2.277,0,0,0,2.275-2.275V46.152A7.735,7.735,0,0,0,21.2,43.65ZM13.1,34.689a3.733,3.733,0,1,1-3.733,3.733A3.737,3.737,0,0,1,13.1,34.689Z" transform="translate(-4.702 -32.758)" fill="#6836bf"/>
          </g>
        </g>
        <g id="Grupo_136334" data-name="Grupo 136334" transform="translate(48.267 4.385)">
          <g id="Grupo_136333" data-name="Grupo 136333">
            <path id="Trazado_194303" data-name="Trazado 194303" d="M392.154,43.651a.966.966,0,1,0-1.828.624,5.806,5.806,0,0,1,.31,1.878v2.579a.344.344,0,0,1-.344.344H377.927a.344.344,0,0,1-.344-.344V46.153a5.823,5.823,0,0,1,1.936-4.331,5.651,5.651,0,1,0-.9-1.766,7.755,7.755,0,0,0-2.971,6.1v2.579a2.277,2.277,0,0,0,2.275,2.275h12.365a2.277,2.277,0,0,0,2.275-2.275V46.153A7.735,7.735,0,0,0,392.154,43.651Zm-8.107-8.961a3.733,3.733,0,1,1-3.733,3.733A3.737,3.737,0,0,1,384.046,34.69Z" transform="translate(-375.653 -32.759)" fill="#6836bf"/>
          </g>
        </g>
        <g id="Grupo_136336" data-name="Grupo 136336" transform="translate(48.267 43.556)">
          <g id="Grupo_136335" data-name="Grupo 136335">
            <path id="Trazado_194304" data-name="Trazado 194304" d="M392.153,348.519a.965.965,0,1,0-1.827.624,5.805,5.805,0,0,1,.31,1.878V353.6a.344.344,0,0,1-.344.344H377.926a.344.344,0,0,1-.344-.344v-2.579a5.823,5.823,0,0,1,1.936-4.331,5.651,5.651,0,1,0-.9-1.766,7.755,7.755,0,0,0-2.971,6.1V353.6a2.277,2.277,0,0,0,2.275,2.275h12.365a2.277,2.277,0,0,0,2.275-2.275v-2.579A7.736,7.736,0,0,0,392.153,348.519Zm-8.107-8.961a3.733,3.733,0,1,1-3.733,3.733A3.737,3.737,0,0,1,384.046,339.558Z" transform="translate(-375.652 -337.627)" fill="#6836bf"/>
          </g>
        </g>
        <g id="Grupo_136338" data-name="Grupo 136338" transform="translate(0.605 43.556)">
          <g id="Grupo_136337" data-name="Grupo 136337">
            <path id="Trazado_194305" data-name="Trazado 194305" d="M21.2,348.519a.965.965,0,1,0-1.827.624,5.8,5.8,0,0,1,.31,1.878V353.6a.344.344,0,0,1-.344.344H6.977a.344.344,0,0,1-.344-.344v-2.579a5.823,5.823,0,0,1,1.936-4.331,5.651,5.651,0,1,0-.9-1.766,7.755,7.755,0,0,0-2.971,6.1V353.6a2.277,2.277,0,0,0,2.275,2.275H19.342a2.277,2.277,0,0,0,2.275-2.275v-2.579A7.735,7.735,0,0,0,21.2,348.519ZM13.1,339.558a3.733,3.733,0,1,1-3.733,3.733A3.737,3.737,0,0,1,13.1,339.558Z" transform="translate(-4.702 -337.627)" fill="#6836bf"/>
          </g>
        </g>
        <g id="Grupo_136340" data-name="Grupo 136340" transform="translate(15.303 22.425)">
          <g id="Grupo_136339" data-name="Grupo 136339">
            <path id="Trazado_194306" data-name="Trazado 194306" d="M145.82,173.165H135.545a8.969,8.969,0,0,0-8.835,7.492h-.351a7.376,7.376,0,0,0-7.263,7.469,7.459,7.459,0,0,0,4.128,6.738c1.24,3,5.107,4.443,5.278,4.5a.965.965,0,0,0,1.21-1.306,6.987,6.987,0,0,1-.653-2.467h5.4a7.271,7.271,0,0,0,6.67-4.516h1.537a8.392,8.392,0,0,1-.857,3.334.965.965,0,0,0,1.2,1.32c.214-.076,5.089-1.833,6.584-5.484a8.957,8.957,0,0,0-3.766-17.084Zm2.64,15.468a.949.949,0,0,0-.552.587,7.5,7.5,0,0,1-3.552,3.737,8.673,8.673,0,0,0,.191-2.945.968.968,0,0,0-.96-.864h-8.041a6.975,6.975,0,0,1-2.616-.507.96.96,0,0,0-1.041.207l-.014.014a.958.958,0,0,0,.321,1.566,8.9,8.9,0,0,0,3.35.651h3.418a5.289,5.289,0,0,1-4.507,2.585H128.12a.963.963,0,0,0-.959.853,7.285,7.285,0,0,0,.066,2.027,5.47,5.47,0,0,1-2.306-2.658,1,1,0,0,0-.555-.624,5.519,5.519,0,0,1-3.339-5.136,5.444,5.444,0,0,1,5.332-5.538h.241a8.882,8.882,0,0,0,.633,2.869.958.958,0,0,0,1.567.325l.014-.014a.958.958,0,0,0,.209-1.036,6.982,6.982,0,0,1-.5-2.765,7.091,7.091,0,0,1,7.123-6.869H145.7a7.143,7.143,0,0,1,7.144,7.048A7,7,0,0,1,148.46,188.633Z" transform="translate(-119.097 -173.165)" fill="#6836bf"/>
          </g>
        </g>
      </g>
    </g>
  </g>
</svg>
