<svg xmlns="http://www.w3.org/2000/svg" xmlns:xlink="http://www.w3.org/1999/xlink" width="623" height="554" viewBox="0 0 623 554">
  <defs>
    <filter id="Rectángulo_43807" x="33" y="17" width="108" height="108" filterUnits="userSpaceOnUse">
      <feOffset dy="3" input="SourceAlpha"/>
      <feGaussianBlur stdDeviation="3" result="blur"/>
      <feFlood flood-opacity="0.161"/>
      <feComposite operator="in" in2="blur"/>
      <feComposite in="SourceGraphic"/>
    </filter>
    <filter id="Rectángulo_43808" x="33" y="402" width="108" height="108" filterUnits="userSpaceOnUse">
      <feOffset dy="3" input="SourceAlpha"/>
      <feGaussianBlur stdDeviation="3" result="blur-2"/>
      <feFlood flood-opacity="0.161"/>
      <feComposite operator="in" in2="blur-2"/>
      <feComposite in="SourceGraphic"/>
    </filter>
    <filter id="Rectángulo_40720" x="497" y="17" width="108" height="108" filterUnits="userSpaceOnUse">
      <feOffset dy="3" input="SourceAlpha"/>
      <feGaussianBlur stdDeviation="3" result="blur-3"/>
      <feFlood flood-opacity="0.161"/>
      <feComposite operator="in" in2="blur-3"/>
      <feComposite in="SourceGraphic"/>
    </filter>
    <filter id="Rectángulo_43806" x="497" y="402" width="108" height="108" filterUnits="userSpaceOnUse">
      <feOffset dy="3" input="SourceAlpha"/>
      <feGaussianBlur stdDeviation="3" result="blur-4"/>
      <feFlood flood-opacity="0.161"/>
      <feComposite operator="in" in2="blur-4"/>
      <feComposite in="SourceGraphic"/>
    </filter>
  </defs>
  <g id="Grupo_136632" data-name="Grupo 136632" transform="translate(6287 5153)">
    <g id="Grupo_136619" data-name="Grupo 136619" transform="translate(-6769 -10021)">
      <g id="Arrows" transform="translate(483.005 4806.118)">
        <g id="_04" data-name="04" transform="translate(149.102 402.138)">
          <path id="Trazado_194561" data-name="Trazado 194561" d="M396.146,367.558c-56.988,32.744-129.929,27.72-182-15.116L194.8,371.788l9.3,9.338-55.125,14.612,14.906-55.062,8.793,8.835,19.241-19.261,22.36-22.36A131.782,131.782,0,0,0,224.7,319.7c42.144,42.144,106.4,48.99,155.786,20.622Z" transform="translate(-148.974 -307.89)" fill="#6836bf"/>
        </g>
        <g id="_03" data-name="03" transform="translate(395.815 242.478)">
          <path id="Trazado_194562" data-name="Trazado 194562" d="M334.344,441.412l8.835-8.772-41.621-41.622a131.675,131.675,0,0,0,11.787-10.4c42.165-42.165,49.011-106.419,20.643-155.807l27.238-15.661c32.744,56.989,27.718,129.931-15.116,182.02l19.345,19.324,9.338-9.3,14.614,55.146Z" transform="translate(-301.558 -209.145)" fill="#b13e8d"/>
        </g>
        <g id="_02" data-name="02" transform="translate(236.154 155.112)">
          <path id="Trazado_194563" data-name="Trazado 194563" d="M449.986,155.112,435.08,210.153l-8.794-8.835-19.239,19.26-7.641,7.643-14.719,14.717a132.024,132.024,0,0,0-10.426-11.787c-42.146-42.165-106.4-49.011-155.788-20.622l-15.66-27.238c56.989-32.765,129.931-27.739,182,15.1l19.345-19.324-9.3-9.359Z" transform="translate(-202.813 -155.112)" fill="#6836bf"/>
        </g>
        <g id="_01" data-name="01" transform="translate(148.766 155.426)">
          <path id="Trazado_194564" data-name="Trazado 194564" d="M224.828,231.032C182.663,273.2,175.817,337.451,204.185,386.82L176.947,402.5c-32.744-57.01-27.72-129.931,15.116-182.02l-19.346-19.345-9.338,9.3-14.613-55.125,55.063,14.927L194.995,179l19.26,19.262,7.641,7.62,14.719,14.74A125.615,125.615,0,0,0,224.828,231.032Z" transform="translate(-148.766 -155.306)" fill="#b13e8d"/>
        </g>
      </g>
      <g id="organizacion" transform="translate(749 5035.499)">
        <g id="Grupo_136488" data-name="Grupo 136488" transform="translate(0 0.168)">
          <path id="Trazado_195251" data-name="Trazado 195251" d="M83.663,67.356a16.33,16.33,0,0,0-10.438,3.758L66.6,64.485a21.835,21.835,0,0,0,0-28.633l6.629-6.629a16.422,16.422,0,1,0-2.21-2.21l-6.629,6.629a21.835,21.835,0,0,0-28.633,0l-6.667-6.667a16.434,16.434,0,1,0-2.2,2.216l6.661,6.661a21.835,21.835,0,0,0,0,28.633l-6.661,6.661a16.422,16.422,0,1,0,2.2,2.216l6.667-6.667a21.835,21.835,0,0,0,28.633,0l6.629,6.629a16.4,16.4,0,1,0,12.648-5.968Zm0-37.5a13.205,13.205,0,0,1-7.589-2.392l.017-2.9a7.581,7.581,0,0,1,3.624-6.458,7.246,7.246,0,0,0,7.9,0,7.588,7.588,0,0,1,3.624,6.473l.028,2.875A13.2,13.2,0,0,1,83.663,29.856ZM79.516,12.007a4.147,4.147,0,1,1,4.147,4.147A4.151,4.151,0,0,1,79.516,12.007Zm-9.135,4.567a13.281,13.281,0,1,1,23.976,7.863,10.709,10.709,0,0,0-4.516-8.6,7.272,7.272,0,1,0-12.357,0,10.7,10.7,0,0,0-4.516,8.6A13.208,13.208,0,0,1,70.381,16.574ZM16.406,29.856a13.2,13.2,0,0,1-7.589-2.391l.017-2.9a7.581,7.581,0,0,1,3.624-6.458,7.246,7.246,0,0,0,7.9,0,7.588,7.588,0,0,1,3.624,6.473l.028,2.874A13.2,13.2,0,0,1,16.406,29.856ZM12.26,12.007a4.147,4.147,0,1,1,4.147,4.147A4.151,4.151,0,0,1,12.26,12.007Zm10.325,3.828a7.272,7.272,0,1,0-12.358,0,10.7,10.7,0,0,0-4.516,8.6,13.282,13.282,0,1,1,21.39,0A10.709,10.709,0,0,0,22.585,15.835ZM16.406,97.043a13.2,13.2,0,0,1-7.589-2.391l.017-2.9A7.581,7.581,0,0,1,12.458,85.3a7.246,7.246,0,0,0,7.9,0,7.588,7.588,0,0,1,3.624,6.473l.028,2.874A13.2,13.2,0,0,1,16.406,97.043ZM12.26,79.195a4.147,4.147,0,1,1,4.147,4.147A4.151,4.151,0,0,1,12.26,79.195Zm17.428,4.567A13.207,13.207,0,0,1,27.1,91.625a10.709,10.709,0,0,0-4.516-8.6,7.272,7.272,0,1,0-12.358,0,10.7,10.7,0,0,0-4.516,8.6,13.279,13.279,0,1,1,23.976-7.863ZM61.006,65.388a18.71,18.71,0,0,1-21.875,0V61.106a10.953,10.953,0,0,1,5.552-9.521,9.343,9.343,0,0,0,10.771,0,10.953,10.953,0,0,1,5.552,9.521ZM43.819,43.918a6.25,6.25,0,1,1,6.25,6.25A6.257,6.257,0,0,1,43.819,43.918ZM64.131,62.556v-1.45a14.08,14.08,0,0,0-6.4-11.794,9.375,9.375,0,1,0-15.322,0,14.079,14.079,0,0,0-6.4,11.794v1.45a18.75,18.75,0,1,1,28.125,0ZM83.663,97.043a13.205,13.205,0,0,1-7.589-2.391l.017-2.9A7.581,7.581,0,0,1,79.715,85.3a7.246,7.246,0,0,0,7.9,0,7.588,7.588,0,0,1,3.624,6.473l.028,2.875A13.2,13.2,0,0,1,83.663,97.043ZM79.516,79.195a4.147,4.147,0,1,1,4.147,4.147A4.151,4.151,0,0,1,79.516,79.195ZM94.357,91.625a10.709,10.709,0,0,0-4.516-8.6,7.271,7.271,0,1,0-12.357,0,10.7,10.7,0,0,0-4.516,8.6,13.281,13.281,0,1,1,21.39,0Z" transform="translate(0 -0.168)" fill="#b13e8d"/>
        </g>
      </g>
    </g>
    <text id="Tipos_de_cultura_organizacional" data-name="Tipos de cultura
organizacional" transform="translate(-6064 -4864.036)" fill="#12263f" font-size="20" font-family="Roboto-Bold, Roboto" font-weight="700"><tspan x="-72.583" y="21">Tipos de cultura</tspan><tspan x="-66.206" y="45">organizacional</tspan></text>
    <g id="Grupo_136620" data-name="Grupo 136620" transform="translate(-6769 -9967)">
      <g transform="matrix(1, 0, 0, 1, 482, 4814)" filter="url(#Rectángulo_43807)">
        <path id="Rectángulo_43807-2" data-name="Rectángulo 43807" d="M10,0H80A10,10,0,0,1,90,10V90a0,0,0,0,1,0,0H10A10,10,0,0,1,0,80V10A10,10,0,0,1,10,0Z" transform="translate(42 23)" fill="#f6f6f6"/>
      </g>
      <g id="Grupo_136478" data-name="Grupo 136478" transform="translate(14.474 4336.778)">
        <g id="Grupo_136469" data-name="Grupo 136469" transform="translate(527.19 509.97)">
          <path id="Trazado_195229" data-name="Trazado 195229" d="M627.194,524.358a7.194,7.194,0,1,1,7.194-7.194A7.2,7.2,0,0,1,627.194,524.358Zm0-11.51a4.316,4.316,0,1,0,4.316,4.316A4.321,4.321,0,0,0,627.194,512.848Z" transform="translate(-620 -509.97)" fill="#6836bf"/>
        </g>
        <g id="Grupo_136470" data-name="Grupo 136470" transform="translate(580.424 547.378)">
          <path id="Trazado_195230" data-name="Trazado 195230" d="M1361.439,1063.061a1.439,1.439,0,0,1-1.439-1.439v-30.214a1.439,1.439,0,0,1,2.878,0v30.214A1.439,1.439,0,0,1,1361.439,1063.061Z" transform="translate(-1360 -1029.97)" fill="#6836bf"/>
        </g>
        <g id="Grupo_136471" data-name="Grupo 136471" transform="translate(525.148 527.24)">
          <path id="Trazado_195231" data-name="Trazado 195231" d="M620.117,773.047H607.168a1.439,1.439,0,0,1,0-2.878h12.949a2.878,2.878,0,1,0,0-5.755l-10.687.009h0a1.439,1.439,0,0,1-1.249-.724l-4.57-7.989a5.765,5.765,0,0,0-3.919-2.74,4.491,4.491,0,0,0-4.088,1.362,4.312,4.312,0,0,0-.986,3.967,1.439,1.439,0,1,1-2.788.711,7.182,7.182,0,0,1,1.641-6.609,7.323,7.323,0,0,1,6.652-2.276,8.638,8.638,0,0,1,5.942,4.082l.029.049,4.17,7.29,9.853-.008a5.755,5.755,0,1,1,0,11.51Z" transform="translate(-591.606 -750.032)" fill="#6836bf"/>
        </g>
        <g id="Grupo_136472" data-name="Grupo 136472" transform="translate(519.996 534.429)">
          <path id="Trazado_195232" data-name="Trazado 195232" d="M554.422,896.008a5.76,5.76,0,0,1-5.617-4.558l-3.566-15.581H530.884a7.189,7.189,0,0,1-6.971-5.417q-.008-.031-.015-.063L520.026,851.7a1.439,1.439,0,0,1,2.818-.584l3.866,18.657a4.313,4.313,0,0,0,4.175,3.221h15.5a1.439,1.439,0,0,1,1.4,1.118l3.824,16.71.005.025a2.878,2.878,0,0,0,5.633-1.179l-4.585-20.682a1.439,1.439,0,0,1,2.809-.623l4.586,20.69,0,.015a5.755,5.755,0,0,1-4.446,6.817A5.81,5.81,0,0,1,554.422,896.008Z" transform="translate(-519.996 -849.966)" fill="#6836bf"/>
        </g>
        <g id="Grupo_136473" data-name="Grupo 136473" transform="translate(563.682 513.186)">
          <path id="Trazado_195233" data-name="Trazado 195233" d="M1128.716,583.448a1.44,1.44,0,0,1-1.392-1.806l6.825-25.9a1.439,1.439,0,1,1,2.782.733l-6.825,25.9A1.439,1.439,0,0,1,1128.716,583.448Z" transform="translate(-1127.276 -554.672)" fill="#6836bf"/>
        </g>
        <g id="Grupo_136474" data-name="Grupo 136474" transform="translate(553.088 547.378)">
          <path id="Trazado_195234" data-name="Trazado 195234" d="M1014.53,1032.848H981.439a1.439,1.439,0,0,1,0-2.878h33.091a1.439,1.439,0,1,1,0,2.878Z" transform="translate(-980 -1029.97)" fill="#6836bf"/>
        </g>
        <g id="Grupo_136475" data-name="Grupo 136475" transform="translate(524.313 571.841)">
          <path id="Trazado_195235" data-name="Trazado 195235" d="M601.581,1378.663a1.439,1.439,0,0,1-1.439-1.439c0-2.042-3.545-4.316-8.632-4.316s-8.633,2.275-8.633,4.316a1.439,1.439,0,0,1-2.878,0c0-2.076,1.305-3.964,3.675-5.319a17.307,17.307,0,0,1,15.671,0c2.37,1.354,3.675,3.243,3.675,5.319A1.439,1.439,0,0,1,601.581,1378.663Z" transform="translate(-580 -1370.03)" fill="#6836bf"/>
        </g>
        <g id="Grupo_136476" data-name="Grupo 136476" transform="translate(534.384 557.449)">
          <path id="Trazado_195236" data-name="Trazado 195236" d="M721.439,1187.24A1.439,1.439,0,0,1,720,1185.8v-14.392a1.439,1.439,0,0,1,2.878,0V1185.8A1.439,1.439,0,0,1,721.439,1187.24Z" transform="translate(-720 -1169.97)" fill="#6836bf"/>
        </g>
        <g id="Grupo_136477" data-name="Grupo 136477" transform="translate(566.037 530.113)">
          <path id="Trazado_195237" data-name="Trazado 195237" d="M1167.194,810.113a1.439,1.439,0,0,1-1.439-1.439V792.847h-4.316a1.439,1.439,0,0,1,0-2.878h5.755a1.439,1.439,0,0,1,1.439,1.439v17.265A1.439,1.439,0,0,1,1167.194,810.113Z" transform="translate(-1160 -789.97)" fill="#6836bf"/>
        </g>
      </g>
    </g>
    <g id="Grupo_136621" data-name="Grupo 136621" transform="translate(-6769 -9967)">
      <g transform="matrix(1, 0, 0, 1, 482, 4814)" filter="url(#Rectángulo_43808)">
        <path id="Rectángulo_43808-2" data-name="Rectángulo 43808" d="M10,0H80A10,10,0,0,1,90,10V90a0,0,0,0,1,0,0H10A10,10,0,0,1,0,80V10A10,10,0,0,1,10,0Z" transform="translate(42 408)" fill="#f6f6f6"/>
      </g>
      <g id="Grupo_136487" data-name="Grupo 136487" transform="translate(-967.649 4319.447)">
        <path id="Trazado_195249" data-name="Trazado 195249" d="M1541.492,954.321a1.058,1.058,0,1,1-1.376-1.607q.935-.8,1.861-1.661.869-.806,1.8-1.739a65.972,65.972,0,0,0,5.3-5.977A62.9,62.9,0,0,0,1557,930.223a61.811,61.811,0,0,0,2.293-5.929l-3.257-.964a1.059,1.059,0,0,1-.559-1.636l1.253-1.726a1.061,1.061,0,0,1,.245-.243l10.156-7.675a1.06,1.06,0,0,1,1.652.538l5.184,14.292a1.057,1.057,0,0,1-1.292,1.375l-4.037-1.194a71.445,71.445,0,0,1-2.724,7.083,72.5,72.5,0,0,1-4.01,7.7,74.634,74.634,0,0,1-11.217,14.377q-2.155,2.154-4.484,4.132t-4.78,3.735a1.057,1.057,0,0,1-1.235-1.715q2.364-1.7,4.648-3.635,2.213-1.881,4.351-4.016a71.961,71.961,0,0,0,10.9-13.962,70.412,70.412,0,0,0,3.893-7.476,69.043,69.043,0,0,0,2.942-7.821l0-.007a1.058,1.058,0,0,1,1.313-.716l3.023.9-4-11.029-8.911,6.734-.281.388,2.868.849a1.058,1.058,0,0,1,.7,1.322,63.894,63.894,0,0,1-2.709,7.188,64.927,64.927,0,0,1-8.179,13.552,68.074,68.074,0,0,1-5.47,6.176q-.874.874-1.861,1.789-.945.875-1.927,1.719Zm-26.457,19.447a1.057,1.057,0,1,1,.464,2.063,69.312,69.312,0,0,1-7.559,1.295,67.961,67.961,0,0,1-7.61.438,1.056,1.056,0,0,1-1.056-1.056h0v-7.616a1.061,1.061,0,0,1,1.061-1.061l.092,0a58.028,58.028,0,0,0,7.267-.484,59.76,59.76,0,0,0,7.313-1.42,1.057,1.057,0,0,1,.53,2.046,61.884,61.884,0,0,1-7.577,1.469,60.236,60.236,0,0,1-6.564.49v5.5q3.132-.057,6.309-.42A67.405,67.405,0,0,0,1515.035,973.768Z" transform="translate(0 0)" fill="#6836bf" fill-rule="evenodd"/>
        <path id="Trazado_195250" data-name="Trazado 195250" d="M1559.782,984.252v34.994a1.061,1.061,0,0,1-1.061,1.061H1544.1a1.061,1.061,0,0,1-1.061-1.061V984.252l-13.893-19.131a3.6,3.6,0,0,1-.654-2.768l.007-.041a3.613,3.613,0,0,1,1.488-2.373,4.053,4.053,0,0,1,2.771-.787,3.558,3.558,0,0,1,2.556,1.513c3.7,5.019,7.306,10.165,10.947,15.231h10.279l10.966-15.237a3.711,3.711,0,0,1,5.168-.834l0,0a4.333,4.333,0,0,1,1.061,1.032,3.51,3.51,0,0,1,.586,1.5,3.6,3.6,0,0,1-.654,2.763l-13.892,19.131Zm-9.431,33.934v-17.112a1.06,1.06,0,1,1,2.121,0v17.112h5.189V983.91a1.07,1.07,0,0,1,.2-.621l14.1-19.411a1.561,1.561,0,0,0,.264-.557,1.623,1.623,0,0,0,.017-.632,1.453,1.453,0,0,0-.23-.618,2.208,2.208,0,0,0-.5-.48,1.043,1.043,0,0,1-.125-.089,1.6,1.6,0,0,0-1.129-.238h0a1.578,1.578,0,0,0-.99.58,1.136,1.136,0,0,1-.1.13L1557.995,977.5a1.061,1.061,0,0,1-.912.52h-11.357v0a1.054,1.054,0,0,1-.857-.439L1533.6,961.9a1.48,1.48,0,0,0-1.054-.641,1.945,1.945,0,0,0-1.319.4l0,0a1.586,1.586,0,0,0-.431.451,1.555,1.555,0,0,0-.206.557l0,.031a1.6,1.6,0,0,0,.017.628,1.566,1.566,0,0,0,.264.557l14.062,19.364a1.055,1.055,0,0,1,.237.668v34.276Zm1.06-57.693a5.166,5.166,0,1,0,3.653,8.823v0a5.167,5.167,0,0,0,0-7.306l-.048-.052a5.147,5.147,0,0,0-3.605-1.462Zm-5.153.013a7.286,7.286,0,1,0,10.3,10.3l0,0a7.286,7.286,0,0,0,0-10.306l-.062-.057a7.281,7.281,0,0,0-10.244.057Z" transform="translate(-23.218 -37.037)" fill="#6836bf" fill-rule="evenodd"/>
      </g>
    </g>
    <g id="Grupo_136622" data-name="Grupo 136622" transform="translate(-6769 -9967)">
      <g transform="matrix(1, 0, 0, 1, 482, 4814)" filter="url(#Rectángulo_40720)">
        <path id="Rectángulo_40720-2" data-name="Rectángulo 40720" d="M10,0H80A10,10,0,0,1,90,10V90a0,0,0,0,1,0,0H10A10,10,0,0,1,0,80V10A10,10,0,0,1,10,0Z" transform="translate(506 23)" fill="#f6f6f6"/>
      </g>
      <g id="Grupo_136468" data-name="Grupo 136468" transform="translate(-3.395 4313.511)">
        <path id="Trazado_195219" data-name="Trazado 195219" d="M1337.366,1159.085a.967.967,0,0,1-.686-.284l-2.67-2.67a.97.97,0,0,1,1.372-1.372l1.984,1.984,4.78-4.78a.97.97,0,0,1,1.372,1.372l-5.466,5.466A.968.968,0,0,1,1337.366,1159.085Z" transform="translate(-313.223 -602.016)" fill="#6836bf"/>
        <path id="Trazado_195220" data-name="Trazado 195220" d="M1337.366,1616.823a.967.967,0,0,1-.686-.284l-2.67-2.67a.97.97,0,0,1,1.372-1.372l1.984,1.984,4.78-4.78a.97.97,0,0,1,1.372,1.372l-5.466,5.466A.967.967,0,0,1,1337.366,1616.823Z" transform="translate(-313.223 -1049.596)" fill="#6836bf"/>
        <path id="Trazado_195221" data-name="Trazado 195221" d="M1337.366,2074.561a.968.968,0,0,1-.686-.284l-2.67-2.67a.97.97,0,0,1,1.372-1.372l1.984,1.984,4.78-4.78a.97.97,0,0,1,1.372,1.372l-5.466,5.466A.968.968,0,0,1,1337.366,2074.561Z" transform="translate(-313.223 -1497.176)" fill="#6836bf"/>
        <path id="Trazado_195222" data-name="Trazado 195222" d="M1337.366,2532.3a.967.967,0,0,1-.686-.284l-2.67-2.67a.97.97,0,0,1,1.372-1.372l1.984,1.984,4.78-4.78a.97.97,0,0,1,1.372,1.372l-5.466,5.466A.968.968,0,0,1,1337.366,2532.3Z" transform="translate(-313.223 -1944.755)" fill="#6836bf"/>
        <path id="Trazado_195223" data-name="Trazado 195223" d="M1954.315,1276.761h-13.969a.97.97,0,0,1,0-1.94h13.969a.97.97,0,1,1,0,1.94Z" transform="translate(-905.431 -722.425)" fill="#6836bf"/>
        <path id="Trazado_195224" data-name="Trazado 195224" d="M1954.315,1734.5h-13.969a.97.97,0,0,1,0-1.94h13.969a.97.97,0,1,1,0,1.94Z" transform="translate(-905.431 -1170.005)" fill="#6836bf"/>
        <path id="Trazado_195225" data-name="Trazado 195225" d="M2233.416,2115.618l-2.788-.33a11.86,11.86,0,0,0-1.074-2.6l1.737-2.2a.924.924,0,0,0-.072-1.225l-2.82-2.82a.923.923,0,0,0-1.225-.072l-2.2,1.737a11.868,11.868,0,0,0-2.6-1.074l-.33-2.788a.924.924,0,0,0-.917-.815h-3.988a.923.923,0,0,0-.917.815l-.33,2.788a11.864,11.864,0,0,0-2.6,1.074l-2.2-1.737a.923.923,0,0,0-1.225.072l-2.82,2.82a.924.924,0,0,0-.072,1.225l1.737,2.2a11.872,11.872,0,0,0-1.074,2.6l-2.788.33a.923.923,0,0,0-.815.917v3.988a.923.923,0,0,0,.815.917l2.788.33a11.864,11.864,0,0,0,1.074,2.6l-1.737,2.2a.924.924,0,0,0,.072,1.225l2.82,2.82a.924.924,0,0,0,1.225.072l2.2-1.737a11.864,11.864,0,0,0,2.6,1.074l.33,2.788a.923.923,0,0,0,.917.815h3.922a.923.923,0,0,0,.914-.793l.4-2.809a11.868,11.868,0,0,0,2.6-1.074l2.2,1.737a.923.923,0,0,0,1.225-.072l2.82-2.82a.924.924,0,0,0,.072-1.225l-1.737-2.2a11.852,11.852,0,0,0,1.074-2.6l2.788-.33a.924.924,0,0,0,.815-.917v-3.988A.924.924,0,0,0,2233.416,2115.618Zm-14.282,9.138a6.227,6.227,0,1,1,6.226-6.227A6.227,6.227,0,0,1,2219.134,2124.756Z" transform="translate(-1164.219 -1532.647)" fill="#6836bf"/>
        <path id="Trazado_195226" data-name="Trazado 195226" d="M1041.487,593.586h-23.655a2.409,2.409,0,0,1-2.406-2.406V546.027a2.409,2.409,0,0,1,2.406-2.406h7.547v.513a1.167,1.167,0,0,0,1.167,1.167h17.266a1.167,1.167,0,0,0,1.167-1.167v-.513h7.547a2.409,2.409,0,0,1,2.406,2.406v23.489h2.031v-23.49a4.442,4.442,0,0,0-4.437-4.437h-7.547v-.74a1.167,1.167,0,0,0-1.167-1.167h-3.382a1.894,1.894,0,0,1-1.784-1.247,3.684,3.684,0,0,0-6.933,0,1.894,1.894,0,0,1-1.784,1.247h-3.382a1.167,1.167,0,0,0-1.167,1.167v.74h-7.547a4.442,4.442,0,0,0-4.437,4.437v45.154a4.442,4.442,0,0,0,4.437,4.437H1041.6A2.2,2.2,0,0,1,1041.487,593.586Zm-6.308-55.714a1.311,1.311,0,1,1-1.311,1.311A1.311,1.311,0,0,1,1035.179,537.873Z" fill="#6836bf"/>
        <path id="Trazado_195227" data-name="Trazado 195227" d="M1950.4,2190.3h-10.05a.97.97,0,0,0,0,1.94h8.084l1.753-1.754A2.18,2.18,0,0,1,1950.4,2190.3Z" transform="translate(-905.431 -1617.584)" fill="#6836bf"/>
        <path id="Trazado_195228" data-name="Trazado 195228" d="M1939.376,2649a.97.97,0,0,0,.97.97h3.634v-.923a2.185,2.185,0,0,1,.251-1.017h-3.885A.97.97,0,0,0,1939.376,2649Z" transform="translate(-905.431 -2065.164)" fill="#6836bf"/>
      </g>
    </g>
    <g id="Grupo_136623" data-name="Grupo 136623" transform="translate(-6769 -9967)">
      <g transform="matrix(1, 0, 0, 1, 482, 4814)" filter="url(#Rectángulo_43806)">
        <path id="Rectángulo_43806-2" data-name="Rectángulo 43806" d="M10,0H80A10,10,0,0,1,90,10V90a0,0,0,0,1,0,0H10A10,10,0,0,1,0,80V10A10,10,0,0,1,10,0Z" transform="translate(506 408)" fill="#f6f6f6"/>
      </g>
      <g id="Grupo_136486" data-name="Grupo 136486" transform="translate(-537.429 5068.918)">
        <g id="Grupo_136481" data-name="Grupo 136481" transform="translate(1532.431 159.463)">
          <g id="Grupo_136480" data-name="Grupo 136480">
            <path id="Trazado_195238" data-name="Trazado 195238" d="M1793.986,181.029a1.027,1.027,0,0,1-1.027-1.027V160.49a1.027,1.027,0,1,1,2.054,0V180A1.027,1.027,0,0,1,1793.986,181.029Z" transform="translate(-1766.203 -159.463)" fill="#6836bf"/>
            <path id="Trazado_195239" data-name="Trazado 195239" d="M1793.982,191.788a1.027,1.027,0,0,1-.342-2l14.156-5-14.049-3.306a1.027,1.027,0,0,1,.47-2l17.459,4.108a1.027,1.027,0,0,1,.107,1.968l-17.459,6.162A1.023,1.023,0,0,1,1793.982,191.788Z" transform="translate(-1766.2 -177.41)" fill="#6836bf"/>
            <g id="Grupo_136479" data-name="Grupo 136479" transform="translate(0 18.484)">
              <path id="Trazado_195240" data-name="Trazado 195240" d="M1586.674,379.941a1.026,1.026,0,0,1-.847-.445l-25.623-37.22L1534.3,379.051a1.027,1.027,0,0,1-1.679-1.182l26.755-37.98a.967.967,0,0,1,.845-.436,1.028,1.028,0,0,1,.84.445l26.46,38.435a1.027,1.027,0,0,1-.845,1.609Z" transform="translate(-1532.431 -339.451)" fill="#6836bf"/>
              <path id="Trazado_195241" data-name="Trazado 195241" d="M1976.987,481.22a1.023,1.023,0,0,1-.747-.322l-19.9-21.079-10.3,9.7a1.027,1.027,0,0,1-1.408-1.5l11.042-10.4a1.026,1.026,0,0,1,1.451.043l20.6,21.825a1.027,1.027,0,0,1-.747,1.732Z" transform="translate(-1902.018 -445.234)" fill="#6836bf"/>
            </g>
          </g>
          <path id="Trazado_195242" data-name="Trazado 195242" d="M1744.958,461.359a1.027,1.027,0,0,1-.606-1.856l12.632-9.218-13.673-5.563a1.027,1.027,0,0,1-.349-1.668l4.736-4.859.138-5.369a1,1,0,0,1,1.052-1,1.027,1.027,0,0,1,1,1.053l-.148,5.772a1.026,1.026,0,0,1-.291.691l-3.952,4.054,13.966,5.683a1.027,1.027,0,0,1,.218,1.781l-14.121,10.3A1.021,1.021,0,0,1,1744.958,461.359Z" transform="translate(-1721.079 -403.85)" fill="#6836bf"/>
        </g>
        <g id="Grupo_136485" data-name="Grupo 136485" transform="translate(1540.842 222.324)">
          <g id="Grupo_136482" data-name="Grupo 136482">
            <path id="Trazado_195243" data-name="Trazado 195243" d="M1627.687,785.936h-12.324a1.027,1.027,0,0,1-1.027-1.027V772.585a1.027,1.027,0,0,1,1.027-1.027h7.189a1.027,1.027,0,0,1,0,2.054h-6.162v10.27h10.27V777.72a1.027,1.027,0,1,1,2.054,0v7.189A1.027,1.027,0,0,1,1627.687,785.936Z" transform="translate(-1614.336 -771.558)" fill="#6836bf"/>
            <path id="Trazado_195244" data-name="Trazado 195244" d="M1652.06,789.619a1.026,1.026,0,0,1-.717-.292l-2.738-2.67a1.027,1.027,0,0,1,1.434-1.47l1.887,1.84,4.566-6.292a1.027,1.027,0,0,1,1.663,1.206l-5.264,7.253a1.03,1.03,0,0,1-.744.42C1652.118,789.618,1652.089,789.619,1652.06,789.619Z" transform="translate(-1644.807 -779.414)" fill="#6836bf"/>
          </g>
          <g id="Grupo_136483" data-name="Grupo 136483" transform="translate(46.018)">
            <path id="Trazado_195245" data-name="Trazado 195245" d="M2075.782,785.936h-12.323a1.027,1.027,0,0,1-1.027-1.027V772.585a1.027,1.027,0,0,1,1.027-1.027h7.189a1.027,1.027,0,0,1,0,2.054h-6.162v10.27h10.27V777.72a1.027,1.027,0,1,1,2.054,0v7.189A1.027,1.027,0,0,1,2075.782,785.936Z" transform="translate(-2062.432 -771.558)" fill="#6836bf"/>
            <path id="Trazado_195246" data-name="Trazado 195246" d="M2100.156,789.619a1.027,1.027,0,0,1-.717-.292l-2.738-2.67a1.027,1.027,0,1,1,1.434-1.47l1.887,1.84,4.566-6.292a1.027,1.027,0,1,1,1.663,1.206l-5.264,7.253a1.03,1.03,0,0,1-.744.42C2100.214,789.618,2100.185,789.619,2100.156,789.619Z" transform="translate(-2092.903 -779.414)" fill="#6836bf"/>
          </g>
          <g id="Grupo_136484" data-name="Grupo 136484" transform="translate(23.009)">
            <path id="Trazado_195247" data-name="Trazado 195247" d="M1851.735,785.936h-12.324a1.027,1.027,0,0,1-1.027-1.027V772.585a1.027,1.027,0,0,1,1.027-1.027h7.189a1.027,1.027,0,0,1,0,2.054h-6.162v10.27h10.27V777.72a1.027,1.027,0,1,1,2.054,0v7.189A1.027,1.027,0,0,1,1851.735,785.936Z" transform="translate(-1838.384 -771.558)" fill="#6836bf"/>
            <path id="Trazado_195248" data-name="Trazado 195248" d="M1876.108,789.619a1.027,1.027,0,0,1-.717-.292l-2.738-2.67a1.027,1.027,0,0,1,1.434-1.47l1.887,1.84,4.566-6.292a1.027,1.027,0,1,1,1.662,1.206l-5.263,7.253a1.029,1.029,0,0,1-.744.42C1876.166,789.618,1876.137,789.619,1876.108,789.619Z" transform="translate(-1868.855 -779.414)" fill="#6836bf"/>
          </g>
        </g>
      </g>
    </g>
    <g id="Grupo_135761" data-name="Grupo 135761" transform="translate(-6454 -6434)">
      <circle id="Elipse_4800" data-name="Elipse 4800" cx="27" cy="27" r="27" transform="translate(736 1281)" fill="#7fc733" opacity="0.5"/>
      <circle id="Elipse_4801" data-name="Elipse 4801" cx="15" cy="15" r="15" transform="translate(748 1293)" fill="#7fc733"/>
    </g>
    <g id="Grupo_135761-2" data-name="Grupo 135761" transform="translate(-7023 -6434)">
      <circle id="Elipse_4800-2" data-name="Elipse 4800" cx="27" cy="27" r="27" transform="translate(736 1281)" fill="#7fc733" opacity="0.5"/>
      <circle id="Elipse_4801-2" data-name="Elipse 4801" cx="15" cy="15" r="15" transform="translate(748 1293)" fill="#7fc733"/>
    </g>
    <g id="Grupo_135761-3" data-name="Grupo 135761" transform="translate(-6454 -6053)">
      <circle id="Elipse_4800-3" data-name="Elipse 4800" cx="27" cy="27" r="27" transform="translate(736 1281)" fill="#7fc733" opacity="0.5"/>
      <circle id="Elipse_4801-3" data-name="Elipse 4801" cx="15" cy="15" r="15" transform="translate(748 1293)" fill="#7fc733"/>
    </g>
    <g id="Grupo_135761-4" data-name="Grupo 135761" transform="translate(-7023 -6053)">
      <circle id="Elipse_4800-4" data-name="Elipse 4800" cx="27" cy="27" r="27" transform="translate(736 1281)" fill="#7fc733" opacity="0.5"/>
      <circle id="Elipse_4801-4" data-name="Elipse 4801" cx="15" cy="15" r="15" transform="translate(748 1293)" fill="#7fc733"/>
    </g>
    <g id="Grupo_136628" data-name="Grupo 136628" transform="translate(-6832 -6984)">
      <text id="Orientada_a_las_normas" data-name="Orientada a las normas" transform="translate(1048 1960)" fill="#12263f" font-size="16" font-family="Roboto-Bold, Roboto" font-weight="700"><tspan x="-41.438" y="17">Orientada a </tspan><tspan x="-39.766" y="35">las normas</tspan></text>
    </g>
    <g id="Grupo_136629" data-name="Grupo 136629" transform="translate(-7296 -6984)">
      <text id="Orientada_al_poder" data-name="Orientada al poder" transform="translate(1048 1960)" fill="#12263f" font-size="16" font-family="Roboto-Bold, Roboto" font-weight="700"><tspan x="-43.559" y="17">Orientada al </tspan><tspan x="-20.777" y="35">poder</tspan></text>
    </g>
    <g id="Grupo_136630" data-name="Grupo 136630" transform="translate(-6832 -6606)">
      <text id="Orientada_a_los_resultados" data-name="Orientada a los resultados" transform="translate(1036 1968)" fill="#12263f" font-size="16" font-family="Roboto-Bold, Roboto" font-weight="700"><tspan x="-54.188" y="17">Orientada a los </tspan><tspan x="-38.09" y="35">resultados</tspan></text>
    </g>
    <g id="Grupo_136631" data-name="Grupo 136631" transform="translate(-7296 -6606)">
      <text id="Orientada_a_las_personas" data-name="Orientada a las personas" transform="translate(1036 1968)" fill="#12263f" font-size="16" font-family="Roboto-Bold, Roboto" font-weight="700"><tspan x="-53.953" y="17">Orientada a las </tspan><tspan x="-33.266" y="35">personas</tspan></text>
    </g>
  </g>
</svg>
