<svg xmlns="http://www.w3.org/2000/svg" xmlns:xlink="http://www.w3.org/1999/xlink" width="88" height="88" viewBox="0 0 88 88">
  <defs>
    <filter id="Rect치ngulo_40821" x="0" y="0" width="88" height="88" filterUnits="userSpaceOnUse">
      <feOffset dy="3" input="SourceAlpha"/>
      <feGaussianBlur stdDeviation="3" result="blur"/>
      <feFlood flood-opacity="0.161"/>
      <feComposite operator="in" in2="blur"/>
      <feComposite in="SourceGraphic"/>
    </filter>
  </defs>
  <g id="Grupo_136729" data-name="Grupo 136729" transform="translate(-933.333 -270)">
    <g id="Grupo_128460" data-name="Grupo 128460" transform="translate(27 34)">
      <g id="Grupo_135807" data-name="Grupo 135807">
        <g transform="matrix(1, 0, 0, 1, 906.33, 236)" filter="url(#Rect치ngulo_40821)">
          <path id="Rect치ngulo_40821-2" data-name="Rect치ngulo 40821" d="M10,0H60A10,10,0,0,1,70,10V70a0,0,0,0,1,0,0H10A10,10,0,0,1,0,60V10A10,10,0,0,1,10,0Z" transform="translate(9 6)" fill="#7fc733"/>
        </g>
        <g id="equipo" transform="translate(926.586 252.257)">
          <path id="Trazado_194088" data-name="Trazado 194088" d="M45.713,42.924a4.936,4.936,0,0,0-2.821-8.209V28.043a.821.821,0,0,0-.242-.583l-3.321-3.321c.15-.285.309-.566.441-.858a.823.823,0,0,0-.188-.942L38.046,20.9a13.9,13.9,0,0,0,.417-1.561l2.063-.482a.825.825,0,0,0,.633-.722c.054-.557.083-1.108.083-1.639s-.028-1.083-.083-1.64a.825.825,0,0,0-.633-.722l-2.063-.482a13.947,13.947,0,0,0-.417-1.561l1.536-1.44a.825.825,0,0,0,.188-.942,16.494,16.494,0,0,0-1.644-2.837.821.821,0,0,0-.91-.308l-2,.608a13.953,13.953,0,0,0-1.15-1.15l.609-2a.826.826,0,0,0-.308-.91A16.493,16.493,0,0,0,31.53,1.471a.828.828,0,0,0-.942.188L29.148,3.2a13.946,13.946,0,0,0-1.561-.418L27.106.716a.824.824,0,0,0-.722-.633,16.411,16.411,0,0,0-3.28,0,.825.825,0,0,0-.722.633L21.9,2.778a14.123,14.123,0,0,0-1.561.417L18.9,1.659a.83.83,0,0,0-.942-.188,16.494,16.494,0,0,0-2.837,1.644.825.825,0,0,0-.308.91l.608,2a14.134,14.134,0,0,0-1.15,1.149l-2-.608a.826.826,0,0,0-.91.307A16.534,16.534,0,0,0,9.723,9.711a.823.823,0,0,0,.188.942l1.538,1.44a13.946,13.946,0,0,0-.418,1.561l-2.063.482a.824.824,0,0,0-.633.722c-.055.557-.083,1.108-.083,1.64s.028,1.083.083,1.639a.824.824,0,0,0,.633.722l2.063.482a13.947,13.947,0,0,0,.417,1.561l-1.537,1.44a.826.826,0,0,0-.188.942c.132.292.291.573.441.858l-3.32,3.321a.819.819,0,0,0-.242.583v6.672a4.936,4.936,0,0,0-2.821,8.209A4.118,4.118,0,0,0,0,47.015v1.646a.824.824,0,0,0,.825.825h13.2a.824.824,0,0,0,.825-.825V47.015a4.119,4.119,0,0,0-3.777-4.092,4.936,4.936,0,0,0-2.821-8.209V28.384L11.033,25.6c.114.17.214.35.334.515a.824.824,0,0,0,.91.307l2-.608a14.015,14.015,0,0,0,1.15,1.15l-.609,2a.825.825,0,0,0,.308.91,16.478,16.478,0,0,0,2.838,1.644.825.825,0,0,0,.942-.188l1.44-1.537a13.938,13.938,0,0,0,1.56.418l.482,2.063a.825.825,0,0,0,.722.633c.276.027.543.027.815.041v1.766A4.936,4.936,0,0,0,21.1,42.925a4.115,4.115,0,0,0-3.777,4.09v1.646a.824.824,0,0,0,.825.825h13.2a.824.824,0,0,0,.825-.825V47.015a4.119,4.119,0,0,0-3.777-4.092,4.936,4.936,0,0,0-2.821-8.209V32.949c.272-.014.538-.014.815-.041a.824.824,0,0,0,.722-.633l.482-2.063a14.036,14.036,0,0,0,1.561-.418l1.44,1.537a.828.828,0,0,0,.942.188,16.525,16.525,0,0,0,2.837-1.644.825.825,0,0,0,.308-.91l-.608-2a13.953,13.953,0,0,0,1.15-1.15l2,.609a.827.827,0,0,0,.91-.307c.119-.167.221-.346.334-.517l2.78,2.783v6.331a4.936,4.936,0,0,0-2.821,8.209,4.118,4.118,0,0,0-3.777,4.092v1.646a.824.824,0,0,0,.825.825h13.2a.824.824,0,0,0,.825-.825V47.015A4.118,4.118,0,0,0,45.713,42.924ZM13.2,47.015v.822H1.653v-.822a2.48,2.48,0,0,1,2.477-2.478h6.592A2.481,2.481,0,0,1,13.2,47.015Zm-2.474-7.426a3.3,3.3,0,1,1-3.3-3.3A3.3,3.3,0,0,1,10.726,39.589ZM30.52,47.015v.822H18.973v-.822a2.48,2.48,0,0,1,2.477-2.478h6.592A2.481,2.481,0,0,1,30.52,47.015Zm-2.474-7.426a3.3,3.3,0,1,1-3.3-3.3A3.3,3.3,0,0,1,28.046,39.589Zm9.076-14.916-1.939-.59a.822.822,0,0,0-.877.265A12.358,12.358,0,0,1,32.6,26.054a.826.826,0,0,0-.265.877l.59,1.939a15.05,15.05,0,0,1-1.542.894l-1.4-1.49a.822.822,0,0,0-.892-.209,12.344,12.344,0,0,1-2.318.62.824.824,0,0,0-.67.626l-.467,2a14.346,14.346,0,0,1-1.785,0l-.467-2a.825.825,0,0,0-.67-.626,12.3,12.3,0,0,1-2.318-.62.817.817,0,0,0-.892.208l-1.4,1.49a14.873,14.873,0,0,1-1.542-.893l.59-1.939a.826.826,0,0,0-.265-.877,12.336,12.336,0,0,1-1.706-1.707.823.823,0,0,0-.877-.265l-1.939.59a15.013,15.013,0,0,1-.894-1.542l1.49-1.4a.824.824,0,0,0,.209-.891,12.314,12.314,0,0,1-.621-2.318.823.823,0,0,0-.626-.67l-2-.467Q9.9,16.934,9.9,16.5c0-.292.01-.59.028-.892l2-.467a.824.824,0,0,0,.626-.67,12.291,12.291,0,0,1,.62-2.317.824.824,0,0,0-.208-.892l-1.49-1.4a14.765,14.765,0,0,1,.893-1.542l1.939.59a.823.823,0,0,0,.877-.265,12.378,12.378,0,0,1,1.707-1.706.825.825,0,0,0,.265-.877l-.59-1.939a15.05,15.05,0,0,1,1.542-.894l1.4,1.49a.826.826,0,0,0,.892.209,12.336,12.336,0,0,1,2.318-.62.824.824,0,0,0,.67-.626l.467-2a14.344,14.344,0,0,1,1.785,0l.467,2a.824.824,0,0,0,.67.626,12.3,12.3,0,0,1,2.318.62.821.821,0,0,0,.892-.208l1.4-1.49a14.873,14.873,0,0,1,1.542.893l-.591,1.939a.827.827,0,0,0,.265.877A12.358,12.358,0,0,1,34.3,8.644a.823.823,0,0,0,.877.265l1.939-.59a15.088,15.088,0,0,1,.894,1.542l-1.49,1.4a.824.824,0,0,0-.209.892,12.309,12.309,0,0,1,.62,2.318.824.824,0,0,0,.626.67l2,.467c.02.3.03.6.03.892s-.01.59-.028.892l-2,.467a.824.824,0,0,0-.626.67,12.329,12.329,0,0,1-.62,2.318.824.824,0,0,0,.209.891l1.49,1.4A14.916,14.916,0,0,1,37.121,24.673ZM42.067,36.29a3.3,3.3,0,1,1-3.3,3.3A3.3,3.3,0,0,1,42.067,36.29ZM47.84,47.837H36.293v-.822a2.48,2.48,0,0,1,2.478-2.478h6.592a2.481,2.481,0,0,1,2.477,2.478Zm0,0" fill="#12263f"/>
          <path id="Trazado_194089" data-name="Trazado 194089" d="M146.726,56.008A10.722,10.722,0,1,0,157.448,66.73,10.734,10.734,0,0,0,146.726,56.008Zm-5.733,17.745a4.126,4.126,0,0,1,4.084-3.724h3.3a4.125,4.125,0,0,1,4.083,3.724,9.044,9.044,0,0,1-11.466,0Zm5.733-5.374a3.3,3.3,0,1,1,3.3-3.3A3.3,3.3,0,0,1,146.726,68.379Zm7.122,3.952a5.817,5.817,0,0,0-3.713-3.673,4.949,4.949,0,1,0-6.818,0,5.817,5.817,0,0,0-3.713,3.673,9.072,9.072,0,1,1,14.244,0Zm0,0" transform="translate(-121.979 -50.234)" fill="#12263f"/>
          <path id="Trazado_194090" data-name="Trazado 194090" d="M432,152.008h1.65v1.65H432Zm0,0" transform="translate(-387.463 -136.337)" fill="#12263f"/>
          <path id="Trazado_194091" data-name="Trazado 194091" d="M464,152.008h1.65v1.65H464Zm0,0" transform="translate(-416.164 -136.337)" fill="#12263f"/>
          <path id="Trazado_194092" data-name="Trazado 194092" d="M464,184.008h1.65v1.65H464Zm0,0" transform="translate(-416.164 -165.038)" fill="#12263f"/>
          <path id="Trazado_194093" data-name="Trazado 194093" d="M464,120.008h1.65v1.65H464Zm0,0" transform="translate(-416.164 -107.636)" fill="#12263f"/>
          <path id="Trazado_194094" data-name="Trazado 194094" d="M0,152.008h1.65v1.65H0Zm0,0" transform="translate(0 -136.337)" fill="#12263f"/>
          <path id="Trazado_194095" data-name="Trazado 194095" d="M0,184.008h1.65v1.65H0Zm0,0" transform="translate(0 -165.038)" fill="#12263f"/>
          <path id="Trazado_194096" data-name="Trazado 194096" d="M0,120.008h1.65v1.65H0Zm0,0" transform="translate(0 -107.636)" fill="#12263f"/>
          <path id="Trazado_194097" data-name="Trazado 194097" d="M32,152.008h1.65v1.65H32Zm0,0" transform="translate(-28.701 -136.337)" fill="#12263f"/>
        </g>
      </g>
    </g>
  </g>
</svg>
