<svg xmlns="http://www.w3.org/2000/svg" xmlns:xlink="http://www.w3.org/1999/xlink" width="108" height="108" viewBox="0 0 108 108">
  <defs>
    <filter id="Rectángulo_41178" x="0" y="0" width="108" height="108" filterUnits="userSpaceOnUse">
      <feOffset dy="3" input="SourceAlpha"/>
      <feGaussianBlur stdDeviation="3" result="blur"/>
      <feFlood flood-opacity="0.161"/>
      <feComposite operator="in" in2="blur"/>
      <feComposite in="SourceGraphic"/>
    </filter>
  </defs>
  <g id="Grupo_136607" data-name="Grupo 136607" transform="translate(14066.523 11697.586)">
    <g id="Grupo_136606" data-name="Grupo 136606" transform="translate(-18 -470)">
      <g transform="matrix(1, 0, 0, 1, -14048.52, -11227.59)" filter="url(#Rectángulo_41178)">
        <path id="Rectángulo_41178-2" data-name="Rectángulo 41178" d="M10,0H80A10,10,0,0,1,90,10V90a0,0,0,0,1,0,0H10A10,10,0,0,1,0,80V10A10,10,0,0,1,10,0Z" transform="translate(9 6)" fill="#f6f6f6"/>
      </g>
    </g>
    <g id="_20-manual" data-name="20-manual" transform="translate(-14043 -11677)">
      <path id="Trazado_194196" data-name="Trazado 194196" d="M32,54a.993.993,0,0,1-.581-.187C24.266,48.7,14.975,48,6,48a1,1,0,0,1-1-1V3A1,1,0,0,1,6,2c9.072,0,18.481.712,26,5.783C39.519,2.712,48.928,2,58,2a1,1,0,0,1,1,1V36H57V4c-8.661.056-17.531.891-24.419,5.81a1,1,0,0,1-1.162,0C24.531,4.894,15.661,4.059,7,4V46c8.761.056,17.757.9,25,5.78a27.824,27.824,0,0,1,4.606-2.5l.788,1.838a25.668,25.668,0,0,0-4.813,2.688A.993.993,0,0,1,32,54Z" fill="#6836bf"/>
      <path id="Trazado_194197" data-name="Trazado 194197" d="M26.606,41.919C22.589,40.2,17.763,39.3,10.956,39l.088-2c7.059.311,12.1,1.262,16.35,3.08Z" fill="#6836bf"/>
      <path id="Trazado_194198" data-name="Trazado 194198" d="M26.606,36.919C22.589,35.2,17.763,34.3,10.956,34l.088-2c7.059.311,12.1,1.262,16.35,3.08Z" fill="#6836bf"/>
      <path id="Trazado_194199" data-name="Trazado 194199" d="M26.606,31.919C22.589,30.2,17.763,29.3,10.956,29l.088-2c7.059.311,12.1,1.262,16.35,3.08Z" fill="#6836bf"/>
      <path id="Trazado_194200" data-name="Trazado 194200" d="M26.606,26.919C22.589,25.2,17.763,24.3,10.956,24l.088-2c7.059.311,12.1,1.262,16.35,3.08Z" fill="#6836bf"/>
      <path id="Trazado_194201" data-name="Trazado 194201" d="M26.606,21.919C22.589,20.2,17.763,19.3,10.956,19l.088-2c7.059.311,12.1,1.262,16.35,3.08Z" fill="#6836bf"/>
      <path id="Trazado_194202" data-name="Trazado 194202" d="M26.606,16.919C22.589,15.2,17.763,14.3,10.956,14l.088-2c7.059.311,12.1,1.262,16.35,3.08Z" fill="#6836bf"/>
      <path id="Trazado_194203" data-name="Trazado 194203" d="M37.394,36.919l-.788-1.838c4.249-1.818,9.291-2.769,16.35-3.08l.088,2C46.237,34.3,41.411,35.2,37.394,36.919Z" fill="#6836bf"/>
      <path id="Trazado_194204" data-name="Trazado 194204" d="M37.394,31.919l-.788-1.838c4.249-1.818,9.291-2.769,16.35-3.08l.088,2C46.237,29.3,41.411,30.2,37.394,31.919Z" fill="#6836bf"/>
      <path id="Trazado_194205" data-name="Trazado 194205" d="M37.394,26.919l-.788-1.838c4.249-1.818,9.291-2.769,16.35-3.08l.088,2C46.237,24.3,41.411,25.2,37.394,26.919Z" fill="#6836bf"/>
      <path id="Trazado_194206" data-name="Trazado 194206" d="M37.394,21.919l-.788-1.838c4.249-1.818,9.291-2.769,16.35-3.08l.088,2C46.237,19.3,41.411,20.2,37.394,21.919Z" fill="#6836bf"/>
      <path id="Trazado_194207" data-name="Trazado 194207" d="M37.394,16.919l-.788-1.838c4.249-1.818,9.291-2.769,16.35-3.08l.088,2C46.237,14.3,41.411,15.2,37.394,16.919Z" fill="#6836bf"/>
      <rect id="Rectángulo_43794" data-name="Rectángulo 43794" width="2" height="48" transform="translate(31 9)" fill="#6836bf"/>
      <path id="Trazado_194208" data-name="Trazado 194208" d="M38,58H5a5.006,5.006,0,0,1-5-5V11A5.006,5.006,0,0,1,5,6H6V8H5a3,3,0,0,0-3,3V53a3,3,0,0,0,3,3H38Z" fill="#6836bf"/>
      <path id="Trazado_194209" data-name="Trazado 194209" d="M64,39H62V11a3,3,0,0,0-3-3H58V6h1a5.006,5.006,0,0,1,5,5Z" fill="#6836bf"/>
      <path id="Trazado_194210" data-name="Trazado 194210" d="M53,62H49a1,1,0,0,1-1-1V58.534a9.786,9.786,0,0,1-1.619-.673l-1.745,1.745a1,1,0,0,1-1.414,0l-2.828-2.828a1,1,0,0,1,0-1.414l1.745-1.745A9.786,9.786,0,0,1,41.466,52H39a1,1,0,0,1-1-1V47a1,1,0,0,1,1-1h2.466a9.786,9.786,0,0,1,.673-1.619l-1.745-1.745a1,1,0,0,1,0-1.414l2.828-2.828a1,1,0,0,1,1.414,0l1.745,1.745A9.858,9.858,0,0,1,48,39.466V37a1,1,0,0,1,1-1h4a1,1,0,0,1,1,1v2.466a9.858,9.858,0,0,1,1.619.673l1.745-1.745a1,1,0,0,1,1.414,0l2.828,2.828a1,1,0,0,1,0,1.414l-1.745,1.745A9.786,9.786,0,0,1,60.534,46H63a1,1,0,0,1,1,1v4a1,1,0,0,1-1,1H60.534a9.786,9.786,0,0,1-.673,1.619l1.745,1.745a1,1,0,0,1,0,1.414l-2.828,2.828a1,1,0,0,1-1.414,0l-1.745-1.745A9.786,9.786,0,0,1,54,58.534V61A1,1,0,0,1,53,62Zm-3-2h2V57.77a1,1,0,0,1,.778-.975,7.964,7.964,0,0,0,2.474-1.027,1,1,0,0,1,1.24.138l1.579,1.579,1.414-1.414-1.579-1.579a1,1,0,0,1-.138-1.24A7.964,7.964,0,0,0,58.8,50.778,1,1,0,0,1,59.77,50H62V48H59.77a1,1,0,0,1-.975-.778,7.964,7.964,0,0,0-1.027-2.474,1,1,0,0,1,.138-1.24l1.579-1.579-1.414-1.414-1.579,1.579a1,1,0,0,1-1.239.139A7.988,7.988,0,0,0,52.778,41.2,1,1,0,0,1,52,40.23V38H50v2.23a1,1,0,0,1-.778.975,7.988,7.988,0,0,0-2.475,1.028,1,1,0,0,1-1.239-.139l-1.579-1.579-1.414,1.414,1.579,1.579a1,1,0,0,1,.138,1.24,7.964,7.964,0,0,0-1.027,2.474A1,1,0,0,1,42.23,48H40v2h2.23a1,1,0,0,1,.975.778,7.964,7.964,0,0,0,1.027,2.474,1,1,0,0,1-.138,1.24l-1.579,1.579,1.414,1.414,1.579-1.579a1,1,0,0,1,1.24-.138A7.964,7.964,0,0,0,49.222,56.8a1,1,0,0,1,.778.97Z" fill="#6836bf"/>
      <path id="Trazado_194211" data-name="Trazado 194211" d="M51,55a6,6,0,1,1,6-6A6,6,0,0,1,51,55Zm0-10a4,4,0,1,0,4,4A4,4,0,0,0,51,45Z" fill="#6836bf"/>
      <path id="Trazado_194212" data-name="Trazado 194212" d="M32,54H9a1,1,0,0,1-1-1V47h2v5H32Z" fill="#6836bf"/>
    </g>
  </g>
</svg>
