<svg xmlns="http://www.w3.org/2000/svg" xmlns:xlink="http://www.w3.org/1999/xlink" width="120" height="120" viewBox="0 0 120 120">
  <defs>
    <clipPath id="clip-path">
      <path id="path546" d="M0-682.665H84.814v84.814H0Z" transform="translate(0 682.665)" fill="#fff"/>
    </clipPath>
  </defs>
  <g id="Grupo_136712" data-name="Grupo 136712" transform="translate(-1209.976 -3683)">
    <g id="Grupo_136708" data-name="Grupo 136708">
      <g id="Grupo_136452" data-name="Grupo 136452">
        <circle id="Elipse_5413" data-name="Elipse 5413" cx="60" cy="60" r="60" transform="translate(1209.976 3683)" fill="#b13e8d"/>
        <g id="g540" transform="translate(1230.186 4380.4)">
          <g id="g542" transform="translate(0 -682.665)">
            <g id="g544" clip-path="url(#clip-path)">
              <g id="g550" transform="translate(1.242 62.226)">
                <path id="path552" d="M0,0V3.9H16.065" fill="none" stroke="#fff" stroke-linecap="round" stroke-linejoin="round" stroke-miterlimit="10" stroke-width="2.5"/>
              </g>
              <g id="g554" transform="translate(1.242 43.934)">
                <path id="path556" d="M0-88.066v-1.966a8.591,8.591,0,0,1,6.1-8.221l7.637-2.306" transform="translate(0 100.56)" fill="none" stroke="#fff" stroke-linecap="round" stroke-linejoin="round" stroke-miterlimit="10" stroke-width="2.5"/>
              </g>
              <g id="g558" transform="translate(21.855 43.935)">
                <path id="path560" d="M0,0,7.637,2.306a8.563,8.563,0,0,1,3.024,1.632" fill="none" stroke="#fff" stroke-linecap="round" stroke-linejoin="round" stroke-miterlimit="10" stroke-width="2.5"/>
              </g>
              <g id="g562" transform="translate(14.984 39.916)">
                <path id="path564" d="M0-.089V3.918a3.435,3.435,0,0,0,6.871,0V-.1" transform="translate(0 0.101)" fill="none" stroke="#fff" stroke-linecap="round" stroke-linejoin="round" stroke-miterlimit="10" stroke-width="2.5"/>
              </g>
              <g id="g566" transform="translate(9.831 17.905)">
                <path id="path568" d="M-121.08-60.534v5.291a8.671,8.671,0,0,1-8.474,8.715,8.588,8.588,0,0,1-8.7-8.587v-5.419a8.588,8.588,0,0,1,8.588-8.588A8.588,8.588,0,0,1-121.08-60.534Z" transform="translate(138.257 69.121)" fill="none" stroke="#fff" stroke-linecap="round" stroke-linejoin="round" stroke-miterlimit="10" stroke-width="2.5"/>
              </g>
              <g id="g570" transform="translate(9.379 60.776)">
                <path id="path572" d="M0-37.745V-43.1" transform="translate(0 43.1)" fill="none" stroke="#fff" stroke-linecap="round" stroke-linejoin="round" stroke-miterlimit="10" stroke-width="2.5"/>
              </g>
              <g id="g574" transform="translate(67.507 62.203)">
                <path id="path576" d="M-113.241,0V3.928h-16.065" transform="translate(129.306)" fill="none" stroke="#fff" stroke-linecap="round" stroke-linejoin="round" stroke-miterlimit="10" stroke-width="2.5"/>
              </g>
              <g id="g578" transform="translate(69.831 43.934)">
                <path id="path580" d="M0,0,7.637,2.306a8.591,8.591,0,0,1,6.1,8.221V12.47" fill="none" stroke="#fff" stroke-linecap="round" stroke-linejoin="round" stroke-miterlimit="10" stroke-width="2.5"/>
              </g>
              <g id="g582" transform="translate(52.298 43.935)">
                <path id="path584" d="M0-27.755a8.563,8.563,0,0,1,3.024-1.632l7.637-2.306" transform="translate(0 31.692)" fill="none" stroke="#fff" stroke-linecap="round" stroke-linejoin="round" stroke-miterlimit="10" stroke-width="2.5"/>
              </g>
              <g id="g586" transform="translate(62.959 39.916)">
                <path id="path588" d="M-48.433-.089V3.918a3.435,3.435,0,0,1-3.435,3.435A3.435,3.435,0,0,1-55.3,3.918V-.1" transform="translate(55.304 0.101)" fill="none" stroke="#fff" stroke-linecap="round" stroke-linejoin="round" stroke-miterlimit="10" stroke-width="2.5"/>
              </g>
              <g id="g590" transform="translate(57.806 17.905)">
                <path id="path592" d="M0-60.534v5.291a8.671,8.671,0,0,0,8.474,8.715,8.588,8.588,0,0,0,8.7-8.587v-5.419a8.588,8.588,0,0,0-8.588-8.588A8.588,8.588,0,0,0,0-60.534Z" transform="translate(0 69.121)" fill="none" stroke="#fff" stroke-linecap="round" stroke-linejoin="round" stroke-miterlimit="10" stroke-width="2.5"/>
              </g>
              <g id="g594" transform="translate(75.435 60.776)">
                <path id="path596" d="M0-37.745V-43.1" transform="translate(0 43.1)" fill="none" stroke="#fff" stroke-linecap="round" stroke-linejoin="round" stroke-miterlimit="10" stroke-width="2.5"/>
              </g>
              <g id="g598" transform="translate(38.454 54.622)">
                <path id="path600" d="M0,0,2,4.705H5.9L7.906,0" fill="none" stroke="#fff" stroke-linecap="round" stroke-linejoin="round" stroke-miterlimit="10" stroke-width="2.5"/>
              </g>
              <g id="g602" transform="translate(17.308 48.79)">
                <path id="path604" d="M-93.682-179.122h-13.29v-14.049a10.039,10.039,0,0,1,7.643-9.75l6.557-1.612" transform="translate(106.972 204.533)" fill="none" stroke="#fff" stroke-linecap="round" stroke-linejoin="round" stroke-miterlimit="10" stroke-width="2.5"/>
              </g>
              <g id="g606" transform="translate(53.307 48.79)">
                <path id="path608" d="M0,0,6.557,1.612a10.039,10.039,0,0,1,7.643,9.75V25.411H.909" fill="none" stroke="#fff" stroke-linecap="round" stroke-linejoin="round" stroke-miterlimit="10" stroke-width="2.5"/>
              </g>
              <g id="g610" transform="translate(37.052 38.558)">
                <path id="path612" d="M0,0V5.187" fill="none" stroke="#fff" stroke-linecap="round" stroke-linejoin="round" stroke-miterlimit="10" stroke-width="2.5"/>
              </g>
              <g id="g614" transform="translate(47.762 38.558)">
                <path id="path616" d="M0-36.566v-5.187" transform="translate(0 41.753)" fill="none" stroke="#fff" stroke-linecap="round" stroke-linejoin="round" stroke-miterlimit="10" stroke-width="2.5"/>
              </g>
              <g id="g618" transform="translate(32.367 17.466)">
                <path id="path620" d="M0-57.855l1.364-2.151a4.016,4.016,0,0,1,3.392-1.865h3.8a8.033,8.033,0,0,0,6.388-3.163l.784-1.028a6.21,6.21,0,0,0,1.407,2.45,8.461,8.461,0,0,0,2.944,1.742" transform="translate(0 66.063)" fill="none" stroke="#fff" stroke-linecap="round" stroke-linejoin="round" stroke-miterlimit="10" stroke-width="2.5"/>
              </g>
              <g id="g622" transform="translate(27.012 1.242)">
                <path id="path624" d="M-217.035-162.777v-7.7a15.4,15.4,0,0,0-15.395-15.395,15.4,15.4,0,0,0-15.395,15.395v7.7" transform="translate(247.825 185.869)" fill="none" stroke="#fff" stroke-linecap="round" stroke-linejoin="round" stroke-miterlimit="10" stroke-width="2.5"/>
              </g>
              <g id="g626" transform="translate(52.447 21.657)">
                <path id="path628" d="M0-56.618H2.677A2.677,2.677,0,0,0,5.355-59.3v-2.677a2.677,2.677,0,0,0-2.677-2.677H0" transform="translate(0 64.651)" fill="none" stroke="#fff" stroke-linecap="round" stroke-linejoin="round" stroke-miterlimit="10" stroke-width="2.5"/>
              </g>
              <g id="g630" transform="translate(27.012 21.657)">
                <path id="path632" d="M-37.745-56.618h-2.677A2.677,2.677,0,0,1-43.1-59.3v-2.677a2.677,2.677,0,0,1,2.677-2.677h2.677" transform="translate(43.1 64.651)" fill="none" stroke="#fff" stroke-linecap="round" stroke-linejoin="round" stroke-miterlimit="10" stroke-width="2.5"/>
              </g>
              <g id="g634" transform="translate(32.367 21.657)">
                <path id="path636" d="M0,0V8.367a10.04,10.04,0,1,0,20.08,0V0" fill="none" stroke="#fff" stroke-linecap="round" stroke-linejoin="round" stroke-miterlimit="10" stroke-width="2.5"/>
              </g>
              <g id="g638" transform="translate(31.507 43.746)">
                <path id="path640" d="M-39.088,0l-5.545,5.044,3.354,6.877a1.339,1.339,0,0,0,2.137.373l5.409-5.266-5.355-3.347Z" transform="translate(44.633)" fill="none" stroke="#fff" stroke-linecap="round" stroke-linejoin="round" stroke-miterlimit="10" stroke-width="2.5"/>
              </g>
              <g id="g642" transform="translate(42.407 43.746)">
                <path id="path644" d="M-37.745,0-32.2,5.044l-3.354,6.877a1.339,1.339,0,0,1-2.137.373L-43.1,7.028l5.355-3.347Z" transform="translate(43.1)" fill="none" stroke="#fff" stroke-linecap="round" stroke-linejoin="round" stroke-miterlimit="10" stroke-width="2.5"/>
              </g>
              <g id="g646" transform="translate(48.097 14.527)">
                <path id="path648" d="M0-20.716l1.986-2.939" transform="translate(0 23.655)" fill="none" stroke="#fff" stroke-linecap="round" stroke-linejoin="round" stroke-miterlimit="10" stroke-width="2.5"/>
              </g>
              <g id="g650" transform="translate(59.643 67.763)">
                <path id="path652" d="M0-45.379v-5.355l1.083-1.083" transform="translate(0 51.817)" fill="none" stroke="#fff" stroke-linecap="round" stroke-linejoin="round" stroke-miterlimit="10" stroke-width="2.5"/>
              </g>
              <g id="g654" transform="translate(24.088 67.763)">
                <path id="path656" d="M-7.634-45.379v-5.355l-1.083-1.083" transform="translate(8.717 51.817)" fill="none" stroke="#fff" stroke-linecap="round" stroke-linejoin="round" stroke-miterlimit="10" stroke-width="2.5"/>
              </g>
              <g id="g658" transform="translate(30.285 59.327)">
                <path id="path660" d="M-155.021-35.824a12.068,12.068,0,0,1,2.253,7.04A12.122,12.122,0,0,1-164.89-16.662a12.122,12.122,0,0,1-12.122-12.122A12.122,12.122,0,0,1-164.89-40.907a12.1,12.1,0,0,1,5.511,1.32" transform="translate(177.013 40.907)" fill="none" stroke="#fff" stroke-linecap="round" stroke-linejoin="round" stroke-miterlimit="10" stroke-width="2.5"/>
              </g>
              <g id="g662" transform="translate(35.636 64.444)">
                <path id="path664" d="M-44.1-83.769l-2.352,1.014a1.3,1.3,0,0,1-1.808-1.314l.238-2.55a1.3,1.3,0,0,0-.318-.979l-1.691-1.923a1.3,1.3,0,0,1,.691-2.126l2.5-.562a1.3,1.3,0,0,0,.833-.6l1.307-2.2a1.3,1.3,0,0,1,2.235,0l1.307,2.2a1.3,1.3,0,0,0,.833.6l2.5.562a1.3,1.3,0,0,1,.691,2.126L-38.833-87.6a1.3,1.3,0,0,0-.318.979l.238,2.55a1.3,1.3,0,0,1-1.808,1.314l-2.352-1.014A1.3,1.3,0,0,0-44.1-83.769Z" transform="translate(50.359 95.653)" fill="none" stroke="#fff" stroke-linecap="round" stroke-linejoin="round" stroke-miterlimit="10" stroke-width="2.5"/>
              </g>
            </g>
          </g>
        </g>
      </g>
    </g>
  </g>
</svg>
