<svg xmlns="http://www.w3.org/2000/svg" width="120" height="120" viewBox="0 0 120 120">
  <g id="Grupo_136711" data-name="Grupo 136711" transform="translate(-894.976 -3683)">
    <g id="Grupo_136707" data-name="Grupo 136707">
      <g id="Grupo_136451" data-name="Grupo 136451">
        <circle id="Elipse_5412" data-name="Elipse 5412" cx="60" cy="60" r="60" transform="translate(894.976 3683)" fill="#b13e8d"/>
        <path id="personas" d="M25.466,33.4a11.733,11.733,0,0,0-5.623-10,9.781,9.781,0,1,0-12.232,0A11.736,11.736,0,0,0,2,33.4V47.1a5.881,5.881,0,0,0,3.9,5.535V72.541a5.879,5.879,0,0,0,5.871,5.871,5.8,5.8,0,0,0,2.934-.8,5.854,5.854,0,0,0,8.805-5.073l0-20.967a11.626,11.626,0,0,0,1.957-6.435ZM13.729,9.913a5.871,5.871,0,1,1-5.871,5.871,5.879,5.879,0,0,1,5.871-5.871Zm6.257,39.874a1.954,1.954,0,0,0-.388,1.17V72.541A1.959,1.959,0,0,1,17.641,74.5a1.7,1.7,0,0,1-.342-.047,5.845,5.845,0,0,0,.344-1.91V52.97a1.957,1.957,0,0,0-3.914,0V72.541a1.957,1.957,0,0,1-3.914,0V52.614A5.861,5.861,0,0,0,13.743,47.1V35.356a1.957,1.957,0,0,0-3.914,0V47.1a1.959,1.959,0,0,1-1.957,1.957l-.006,0-.008,0A1.954,1.954,0,0,1,5.914,47.1V33.4a7.819,7.819,0,1,1,15.637,0l0,11.743A7.73,7.73,0,0,1,19.986,49.788ZM45.63,36.74a1.955,1.955,0,0,1,0-2.767l4.488-4.488H35.271a1.957,1.957,0,0,1,0-3.914H50.118L45.63,21.083A1.957,1.957,0,0,1,48.4,18.315l7.828,7.828a1.955,1.955,0,0,1,0,2.767L48.4,36.74A1.955,1.955,0,0,1,45.63,36.74ZM44.483,47.672a1.955,1.955,0,0,1,0,2.767L40,54.927H54.842a1.957,1.957,0,0,1,0,3.914H40l4.488,4.488A1.957,1.957,0,0,1,41.716,66.1l-7.828-7.828a1.955,1.955,0,0,1,0-2.767l7.828-7.828A1.955,1.955,0,0,1,44.483,47.672Zm20.158-2.531A11.63,11.63,0,0,0,66.6,51.576l0,20.965a5.879,5.879,0,0,0,5.871,5.871,5.816,5.816,0,0,0,2.934-.8,5.816,5.816,0,0,0,2.934.8,5.879,5.879,0,0,0,5.871-5.871V52.633a5.881,5.881,0,0,0,3.9-5.535V33.4a11.736,11.736,0,0,0-5.611-10,9.79,9.79,0,1,0-12.232,0,11.733,11.733,0,0,0-5.623,10ZM82.256,15.785a5.871,5.871,0,1,1-5.871-5.871A5.879,5.879,0,0,1,82.256,15.785ZM68.56,45.141l0-11.743a7.819,7.819,0,1,1,15.637,0V47.1a1.952,1.952,0,0,1-1.943,1.957l-.006,0-.008,0A1.959,1.959,0,0,1,80.285,47.1V35.356a1.957,1.957,0,1,0-3.914,0V47.1A5.861,5.861,0,0,0,80.3,52.614V72.541a1.957,1.957,0,0,1-3.914,0V52.97a1.957,1.957,0,1,0-3.914,0V72.541a5.8,5.8,0,0,0,.346,1.912,1.858,1.858,0,0,1-.342.045,1.959,1.959,0,0,1-1.957-1.957V50.958a1.954,1.954,0,0,0-.388-1.17,7.719,7.719,0,0,1-1.57-4.646Z" transform="translate(911.887 3698.293)" fill="#fff"/>
      </g>
    </g>
  </g>
</svg>
