<svg xmlns="http://www.w3.org/2000/svg" xmlns:xlink="http://www.w3.org/1999/xlink" width="820" height="500" viewBox="0 0 820 500">
  <defs>
    <clipPath id="clip-path">
      <rect id="Rectángulo_43800" data-name="Rectángulo 43800" width="820" height="500" rx="20" transform="translate(390 2479)" fill="#b13e8d" opacity="0.146"/>
    </clipPath>
    <filter id="Rectángulo_43809" x="446" y="83" width="118" height="59" filterUnits="userSpaceOnUse">
      <feOffset dy="3" input="SourceAlpha"/>
      <feGaussianBlur stdDeviation="3" result="blur"/>
      <feFlood flood-opacity="0.161"/>
      <feComposite operator="in" in2="blur"/>
      <feComposite in="SourceGraphic"/>
    </filter>
    <filter id="Rectángulo_43810" x="230" y="150" width="118" height="59" filterUnits="userSpaceOnUse">
      <feOffset dy="3" input="SourceAlpha"/>
      <feGaussianBlur stdDeviation="3" result="blur-2"/>
      <feFlood flood-opacity="0.161"/>
      <feComposite operator="in" in2="blur-2"/>
      <feComposite in="SourceGraphic"/>
    </filter>
    <filter id="Rectángulo_43811" x="346" y="297" width="118" height="59" filterUnits="userSpaceOnUse">
      <feOffset dy="3" input="SourceAlpha"/>
      <feGaussianBlur stdDeviation="3" result="blur-3"/>
      <feFlood flood-opacity="0.161"/>
      <feComposite operator="in" in2="blur-3"/>
      <feComposite in="SourceGraphic"/>
    </filter>
    <filter id="Rectángulo_43812" x="7" y="278" width="118" height="59" filterUnits="userSpaceOnUse">
      <feOffset dy="3" input="SourceAlpha"/>
      <feGaussianBlur stdDeviation="3" result="blur-4"/>
      <feFlood flood-opacity="0.161"/>
      <feComposite operator="in" in2="blur-4"/>
      <feComposite in="SourceGraphic"/>
    </filter>
    <filter id="Rectángulo_43813" x="688" y="268" width="118" height="59" filterUnits="userSpaceOnUse">
      <feOffset dy="3" input="SourceAlpha"/>
      <feGaussianBlur stdDeviation="3" result="blur-5"/>
      <feFlood flood-opacity="0.161"/>
      <feComposite operator="in" in2="blur-5"/>
      <feComposite in="SourceGraphic"/>
    </filter>
  </defs>
  <g id="Grupo_136618" data-name="Grupo 136618" transform="translate(5996 5988)">
    <g id="Grupo_136607" data-name="Grupo 136607" transform="translate(-6386 -8467)">
      <rect id="Rectángulo_43684" data-name="Rectángulo 43684" width="820" height="500" rx="20" transform="translate(390 2479)" fill="#f3f9ff"/>
      <g id="Grupo_136579" data-name="Grupo 136579" transform="translate(-36.15)">
        <g id="Grupo_136577" data-name="Grupo 136577" transform="translate(675.519 2713.118)">
          <path id="Trazado_195359" data-name="Trazado 195359" d="M991.432,148.584c-9.895,0-14.625-7.663-19.2-15.073-4.328-7.01-8.415-13.631-16.241-13.631s-11.913,6.621-16.241,13.631c-4.574,7.41-9.306,15.073-19.2,15.073s-14.624-7.663-19.2-15.073c-4.327-7.01-8.415-13.631-16.24-13.631s-11.913,6.621-16.24,13.631c-4.575,7.41-9.3,15.073-19.2,15.073s-14.623-7.663-19.2-15.073c-4.327-7.01-8.414-13.631-16.239-13.631S802.323,126.5,798,133.511c-4.574,7.41-9.3,15.073-19.2,15.073s-14.624-7.663-19.2-15.073c-4.328-7.01-8.415-13.631-16.24-13.631s-11.912,6.621-16.239,13.631c-4.574,7.41-9.3,15.073-19.2,15.073s-14.624-7.663-19.2-15.073c-4.327-7.01-8.414-13.631-16.239-13.631a1.309,1.309,0,1,1,0-2.533c9.894,0,14.624,7.663,19.2,15.073,4.327,7.01,8.414,13.631,16.24,13.631s11.912-6.621,16.239-13.63c4.574-7.41,9.3-15.073,19.2-15.073s14.624,7.663,19.2,15.073c4.327,7.01,8.415,13.631,16.24,13.631s11.912-6.621,16.239-13.631c4.575-7.41,9.305-15.073,19.2-15.073s14.623,7.663,19.2,15.073c4.327,7.009,8.414,13.63,16.239,13.63s11.912-6.621,16.24-13.631c4.574-7.41,9.3-15.073,19.2-15.073s14.624,7.663,19.2,15.073c4.327,7.01,8.415,13.631,16.24,13.631s11.914-6.621,16.241-13.631c4.575-7.41,9.306-15.073,19.2-15.073s14.625,7.663,19.2,15.073c4.328,7.01,8.415,13.631,16.241,13.631a1.309,1.309,0,1,1,0,2.533Z" transform="translate(-670.846 -117.348)" fill="#b13e8d"/>
        </g>
        <g id="Grupo_136578" data-name="Grupo 136578" transform="translate(675.519 2689.882)">
          <path id="Trazado_195359-2" data-name="Trazado 195359" d="M991.432,148.584c-9.895,0-14.625-7.663-19.2-15.073-4.328-7.01-8.415-13.631-16.241-13.631s-11.913,6.621-16.241,13.631c-4.574,7.41-9.306,15.073-19.2,15.073s-14.624-7.663-19.2-15.073c-4.327-7.01-8.415-13.631-16.24-13.631s-11.913,6.621-16.24,13.631c-4.575,7.41-9.3,15.073-19.2,15.073s-14.623-7.663-19.2-15.073c-4.327-7.01-8.414-13.631-16.239-13.631S802.323,126.5,798,133.511c-4.574,7.41-9.3,15.073-19.2,15.073s-14.624-7.663-19.2-15.073c-4.328-7.01-8.415-13.631-16.24-13.631s-11.912,6.621-16.239,13.631c-4.574,7.41-9.3,15.073-19.2,15.073s-14.624-7.663-19.2-15.073c-4.327-7.01-8.414-13.631-16.239-13.631a1.309,1.309,0,1,1,0-2.533c9.894,0,14.624,7.663,19.2,15.073,4.327,7.01,8.414,13.631,16.24,13.631s11.912-6.621,16.239-13.63c4.574-7.41,9.3-15.073,19.2-15.073s14.624,7.663,19.2,15.073c4.327,7.01,8.415,13.631,16.24,13.631s11.912-6.621,16.239-13.631c4.575-7.41,9.305-15.073,19.2-15.073s14.623,7.663,19.2,15.073c4.327,7.009,8.414,13.63,16.239,13.63s11.912-6.621,16.24-13.631c4.574-7.41,9.3-15.073,19.2-15.073s14.624,7.663,19.2,15.073c4.327,7.01,8.415,13.631,16.24,13.631s11.914-6.621,16.241-13.631c4.575-7.41,9.306-15.073,19.2-15.073s14.625,7.663,19.2,15.073c4.328,7.01,8.415,13.631,16.241,13.631a1.309,1.309,0,1,1,0,2.533Z" transform="translate(-670.846 -117.348)" fill="#b13e8d"/>
          <path id="Trazado_195360" data-name="Trazado 195360" d="M991.432,148.584c-9.895,0-14.625-7.663-19.2-15.073-4.328-7.01-8.415-13.631-16.241-13.631s-11.913,6.621-16.241,13.631c-4.574,7.41-9.306,15.073-19.2,15.073s-14.624-7.663-19.2-15.073c-4.327-7.01-8.415-13.631-16.24-13.631s-11.913,6.621-16.24,13.631c-4.575,7.41-9.3,15.073-19.2,15.073s-14.623-7.663-19.2-15.073c-4.327-7.01-8.414-13.631-16.239-13.631S802.323,126.5,798,133.511c-4.574,7.41-9.3,15.073-19.2,15.073s-14.624-7.663-19.2-15.073c-4.328-7.01-8.415-13.631-16.24-13.631s-11.912,6.621-16.239,13.631c-4.574,7.41-9.3,15.073-19.2,15.073s-14.624-7.663-19.2-15.073c-4.327-7.01-8.414-13.631-16.239-13.631a1.309,1.309,0,1,1,0-2.533c9.894,0,14.624,7.663,19.2,15.073,4.327,7.01,8.414,13.631,16.24,13.631s11.912-6.621,16.239-13.63c4.574-7.41,9.3-15.073,19.2-15.073s14.624,7.663,19.2,15.073c4.327,7.01,8.415,13.631,16.24,13.631s11.912-6.621,16.239-13.631c4.575-7.41,9.305-15.073,19.2-15.073s14.623,7.663,19.2,15.073c4.327,7.009,8.414,13.63,16.239,13.63s11.912-6.621,16.24-13.631c4.574-7.41,9.3-15.073,19.2-15.073s14.624,7.663,19.2,15.073c4.327,7.01,8.415,13.631,16.24,13.631s11.914-6.621,16.241-13.631c4.575-7.41,9.306-15.073,19.2-15.073s14.625,7.663,19.2,15.073c4.328,7.01,8.415,13.631,16.241,13.631a1.309,1.309,0,1,1,0,2.533Z" transform="translate(-670.846 -70.348)" fill="#b13e8d"/>
        </g>
      </g>
      <g id="Grupo_136576" data-name="Grupo 136576" transform="translate(631 2528.168)" opacity="0.68">
        <path id="Trazado_195358" data-name="Trazado 195358" d="M976.251,199.982V306.21a15.715,15.715,0,0,1-15.716,15.715H799.1l-59.612,45.232,35.868-45.232H755.2a15.715,15.715,0,0,1-15.715-15.715V199.982A15.715,15.715,0,0,1,755.2,184.267H960.535A15.716,15.716,0,0,1,976.251,199.982Z" transform="translate(-739.484 -184.267)" fill="#f7ca18"/>
      </g>
      <path id="Trazado_195361" data-name="Trazado 195361" d="M3.865-13.408a11.767,11.767,0,0,0-2.845.558A4.656,4.656,0,0,0,.48-10.135V-5.6C.48-3.923.5-1.636.536,1.284c.186.874.5,1.3.986,1.3a3.908,3.908,0,0,0,1.19-.335,13.06,13.06,0,0,0,4-.707c2.1-.986,3.162-2.213,3.162-3.7a3.857,3.857,0,0,0-.651-1.971A5.271,5.271,0,0,0,6.487-6.043,5.622,5.622,0,0,0,8.4-9.633a4.121,4.121,0,0,0-.335-1.376,4.409,4.409,0,0,0-3.924-2.4Zm-1.3,1.525c0-.242.428-.372,1.3-.372.186,0,.465.019.818.056q2.511.809,2.511,2.455c0,1.265-.781,2.362-2.343,3.329-1.19.353-1.823.651-1.916.874v.223c0,.279.2.465.6.539l2.083-.167a5.508,5.508,0,0,1,1.153.223q1.953,1.2,1.953,2.566A2.909,2.909,0,0,1,7.529-.2,8.477,8.477,0,0,1,3.214,1.061H3.158c-.26,0-.391-.279-.391-.818V-4.5c0-.93-.019-2.046-.056-3.385a3.99,3.99,0,0,0,.056-.763c0-.372-.056-1.395-.149-3.124Zm9.578-.818c-.763,0-1.153.967-1.153,2.9.037,1.823.074,5.431.112,10.805.186.911.558,1.358,1.134,1.358h.223c.614-.539,1-.818,1.209-.818,1.823.149,2.976.223,3.441.223h.2c.372-.056.558-.2.558-.484V1.173c0-.353-.688-.577-2.083-.651q-2.4,0-2.4-.5l-.112-8.834c0-2.585-.335-3.887-1.041-3.887Zm12.088-.2c-.391,0-.8.279-1.265.874-2.641,7.9-3.98,12.274-3.98,13.093V1.4c0,.353.242.577.707.707h.223q1.116,0,2.455-4.91c0-.372,1.153-1.041,3.441-2.027h.056c.093.149.539,1.618,1.3,4.426C27.6,1.3,28,2.158,28.432,2.158c.279,0,.446-.167.484-.5A3.95,3.95,0,0,0,28.544.187q-1.813-6.918-3.18-10.973C25.159-12.2,24.787-12.906,24.229-12.906ZM24.4-9.2h.149l.112.056a16.078,16.078,0,0,1,.818,2.9c0,.223-.763.651-2.288,1.246Zm14.674-4.2a11.767,11.767,0,0,0-2.845.558,4.656,4.656,0,0,0-.539,2.715V-5.6c0,1.674.019,3.961.056,6.881.186.874.5,1.3.986,1.3a3.908,3.908,0,0,0,1.19-.335,13.06,13.06,0,0,0,4-.707c2.1-.986,3.162-2.213,3.162-3.7a3.858,3.858,0,0,0-.651-1.971,5.271,5.271,0,0,0-2.734-1.916,5.622,5.622,0,0,0,1.916-3.589,4.121,4.121,0,0,0-.335-1.376,4.409,4.409,0,0,0-3.924-2.4Zm-1.3,1.525c0-.242.428-.372,1.3-.372.186,0,.465.019.818.056Q42.4-11.39,42.4-9.744c0,1.265-.781,2.362-2.343,3.329-1.19.353-1.823.651-1.916.874v.223c0,.279.2.465.6.539l2.083-.167a5.508,5.508,0,0,1,1.153.223q1.953,1.2,1.953,2.566A2.909,2.909,0,0,1,42.734-.2a8.477,8.477,0,0,1-4.315,1.265h-.056c-.26,0-.391-.279-.391-.818V-4.5c0-.93-.019-2.046-.056-3.385a3.989,3.989,0,0,0,.056-.763c0-.372-.056-1.395-.149-3.124Zm9.578-.818c-.763,0-1.153.967-1.153,2.9.037,1.823.074,5.431.112,10.805.186.911.558,1.358,1.134,1.358h.223c.614-.539,1-.818,1.209-.818,1.823.149,2.976.223,3.441.223h.2c.372-.056.558-.2.558-.484V1.173c0-.353-.688-.577-2.083-.651q-2.4,0-2.4-.5l-.112-8.834c0-2.585-.335-3.887-1.041-3.887Zm12.088-.2c-.391,0-.8.279-1.265.874C55.529-4.128,54.19.243,54.19,1.061V1.4c0,.353.242.577.707.707h.223q1.116,0,2.455-4.91c0-.372,1.153-1.041,3.441-2.027h.056c.093.149.539,1.618,1.3,4.426.428,1.711.837,2.566,1.265,2.566.279,0,.446-.167.484-.5A3.951,3.951,0,0,0,63.749.187q-1.813-6.918-3.18-10.973C60.364-12.2,59.992-12.906,59.435-12.906ZM59.6-9.2h.149l.112.056a16.078,16.078,0,0,1,.818,2.9c0,.223-.763.651-2.288,1.246Zm14.674-4.2a11.768,11.768,0,0,0-2.845.558,4.656,4.656,0,0,0-.539,2.715V-5.6c0,1.674.019,3.961.056,6.881.186.874.5,1.3.986,1.3a3.908,3.908,0,0,0,1.19-.335,13.06,13.06,0,0,0,4-.707c2.1-.986,3.162-2.213,3.162-3.7a3.858,3.858,0,0,0-.651-1.971A5.271,5.271,0,0,0,76.9-6.043a5.622,5.622,0,0,0,1.916-3.589,4.121,4.121,0,0,0-.335-1.376,4.409,4.409,0,0,0-3.924-2.4Zm-1.3,1.525c0-.242.428-.372,1.3-.372.186,0,.465.019.818.056Q77.6-11.39,77.6-9.744c0,1.265-.781,2.362-2.343,3.329-1.19.353-1.823.651-1.916.874v.223c0,.279.2.465.6.539l2.083-.167a5.508,5.508,0,0,1,1.153.223q1.953,1.2,1.953,2.566A2.909,2.909,0,0,1,77.939-.2a8.477,8.477,0,0,1-4.315,1.265h-.056c-.26,0-.391-.279-.391-.818V-4.5c0-.93-.019-2.046-.056-3.385a3.99,3.99,0,0,0,.056-.763c0-.372-.056-1.395-.149-3.124Zm9.578-.818c-.762,0-1.153.967-1.153,2.9.037,1.823.074,5.431.112,10.805.186.911.558,1.358,1.134,1.358h.223c.614-.539,1-.818,1.209-.818,1.823.149,2.976.223,3.441.223h.2c.372-.056.558-.2.558-.484V1.173C88.28.819,87.591.6,86.2.522q-2.4,0-2.4-.5l-.112-8.834c0-2.585-.335-3.887-1.041-3.887Zm12.088-.2c-.391,0-.8.279-1.265.874C90.734-4.128,89.4.243,89.4,1.061V1.4c0,.353.242.577.707.707h.223q1.116,0,2.455-4.91c0-.372,1.153-1.041,3.441-2.027h.056c.093.149.539,1.618,1.3,4.426.428,1.711.837,2.566,1.265,2.566.279,0,.446-.167.484-.5A3.95,3.95,0,0,0,98.955.187q-1.813-6.918-3.18-10.973C95.57-12.2,95.2-12.906,94.64-12.906Zm.167,3.7h.149l.112.056a16.079,16.079,0,0,1,.818,2.9c0,.223-.763.651-2.288,1.246Zm14.674-4.2a11.768,11.768,0,0,0-2.845.558,4.656,4.656,0,0,0-.539,2.715V-5.6c0,1.674.019,3.961.056,6.881.186.874.5,1.3.986,1.3a3.908,3.908,0,0,0,1.19-.335,13.06,13.06,0,0,0,4-.707c2.1-.986,3.162-2.213,3.162-3.7a3.858,3.858,0,0,0-.651-1.971A5.271,5.271,0,0,0,112.1-6.043a5.622,5.622,0,0,0,1.916-3.589,4.121,4.121,0,0,0-.335-1.376,4.409,4.409,0,0,0-3.924-2.4Zm-1.3,1.525c0-.242.428-.372,1.3-.372.186,0,.465.019.818.056q2.511.809,2.511,2.455c0,1.265-.781,2.362-2.343,3.329-1.19.353-1.823.651-1.916.874v.223c0,.279.2.465.6.539l2.083-.167a5.508,5.508,0,0,1,1.153.223q1.953,1.2,1.953,2.566A2.909,2.909,0,0,1,113.145-.2a8.477,8.477,0,0,1-4.315,1.265h-.056c-.26,0-.391-.279-.391-.818V-4.5c0-.93-.019-2.046-.056-3.385a3.99,3.99,0,0,0,.056-.763c0-.372-.056-1.395-.149-3.124Zm9.578-.818c-.763,0-1.153.967-1.153,2.9.037,1.823.074,5.431.112,10.805.186.911.558,1.358,1.134,1.358h.223c.614-.539,1-.818,1.209-.818,1.823.149,2.976.223,3.441.223h.2c.372-.056.558-.2.558-.484V1.173c0-.353-.688-.577-2.083-.651q-2.4,0-2.4-.5l-.112-8.834c0-2.585-.335-3.887-1.041-3.887Zm12.088-.2c-.391,0-.8.279-1.265.874C125.94-4.128,124.6.243,124.6,1.061V1.4c0,.353.242.577.707.707h.223q1.116,0,2.455-4.91c0-.372,1.153-1.041,3.441-2.027h.056c.093.149.539,1.618,1.3,4.426.428,1.711.837,2.566,1.265,2.566.279,0,.446-.167.484-.5A3.95,3.95,0,0,0,134.16.187q-1.813-6.918-3.18-10.973C130.775-12.2,130.4-12.906,129.845-12.906Zm.167,3.7h.149l.112.056a16.079,16.079,0,0,1,.818,2.9c0,.223-.763.651-2.288,1.246Zm14.674-4.2a11.768,11.768,0,0,0-2.845.558,4.656,4.656,0,0,0-.539,2.715V-5.6c0,1.674.019,3.961.056,6.881.186.874.5,1.3.986,1.3a3.908,3.908,0,0,0,1.19-.335,13.06,13.06,0,0,0,4-.707c2.1-.986,3.162-2.213,3.162-3.7a3.857,3.857,0,0,0-.651-1.971,5.271,5.271,0,0,0-2.734-1.916,5.622,5.622,0,0,0,1.916-3.589,4.121,4.121,0,0,0-.335-1.376,4.409,4.409,0,0,0-3.924-2.4Zm-1.3,1.525c0-.242.428-.372,1.3-.372.186,0,.465.019.818.056q2.511.809,2.511,2.455c0,1.265-.781,2.362-2.343,3.329-1.19.353-1.823.651-1.916.874v.223c0,.279.2.465.6.539l2.083-.167a5.508,5.508,0,0,1,1.153.223q1.953,1.2,1.953,2.566A2.909,2.909,0,0,1,148.35-.2a8.477,8.477,0,0,1-4.315,1.265h-.056c-.26,0-.391-.279-.391-.818V-4.5c0-.93-.019-2.046-.056-3.385a3.989,3.989,0,0,0,.056-.763c0-.372-.056-1.395-.149-3.124Zm9.578-.818c-.763,0-1.153.967-1.153,2.9.037,1.823.074,5.431.112,10.805.186.911.558,1.358,1.134,1.358h.223c.614-.539,1-.818,1.209-.818,1.823.149,2.976.223,3.441.223h.2c.372-.056.558-.2.558-.484V1.173c0-.353-.688-.577-2.083-.651q-2.4,0-2.4-.5L154.1-8.814c0-2.585-.335-3.887-1.041-3.887Zm12.088-.2c-.391,0-.8.279-1.265.874-2.641,7.9-3.98,12.274-3.98,13.093V1.4c0,.353.242.577.707.707h.223q1.116,0,2.455-4.91c0-.372,1.153-1.041,3.441-2.027h.056c.093.149.539,1.618,1.3,4.426.428,1.711.837,2.566,1.265,2.566.279,0,.446-.167.484-.5a3.95,3.95,0,0,0-.372-1.469q-1.813-6.918-3.18-10.973C165.98-12.2,165.609-12.906,165.051-12.906Zm.167,3.7h.149l.112.056a16.079,16.079,0,0,1,.818,2.9c0,.223-.762.651-2.288,1.246ZM3.865,14.488a11.767,11.767,0,0,0-2.845.558A4.656,4.656,0,0,0,.48,17.762V22.3c0,1.674.019,3.961.056,6.881.186.874.5,1.3.986,1.3a3.908,3.908,0,0,0,1.19-.335,13.06,13.06,0,0,0,4-.707c2.1-.986,3.162-2.213,3.162-3.7a3.857,3.857,0,0,0-.651-1.971,5.271,5.271,0,0,0-2.734-1.916A5.622,5.622,0,0,0,8.4,18.264a4.121,4.121,0,0,0-.335-1.376,4.409,4.409,0,0,0-3.924-2.4Zm-1.3,1.525c0-.242.428-.372,1.3-.372.186,0,.465.019.818.056q2.511.809,2.511,2.455c0,1.265-.781,2.362-2.343,3.329-1.19.353-1.823.651-1.916.874v.223c0,.279.2.465.6.539l2.083-.167a5.508,5.508,0,0,1,1.153.223q1.953,1.2,1.953,2.566a2.909,2.909,0,0,1-1.19,1.953,8.477,8.477,0,0,1-4.315,1.265H3.158c-.26,0-.391-.279-.391-.818V23.4c0-.93-.019-2.046-.056-3.385a3.99,3.99,0,0,0,.056-.763c0-.372-.056-1.395-.149-3.124Zm9.578-.818c-.763,0-1.153.967-1.153,2.9.037,1.823.074,5.431.112,10.805.186.911.558,1.358,1.134,1.358h.223c.614-.539,1-.818,1.209-.818,1.823.149,2.976.223,3.441.223h.2c.372-.056.558-.2.558-.484v-.112c0-.353-.688-.577-2.083-.651q-2.4,0-2.4-.5l-.112-8.834c0-2.585-.335-3.887-1.041-3.887Zm12.088-.2c-.391,0-.8.279-1.265.874-2.641,7.9-3.98,12.274-3.98,13.093v.335c0,.353.242.577.707.707h.223q1.116,0,2.455-4.91c0-.372,1.153-1.041,3.441-2.027h.056c.093.149.539,1.618,1.3,4.426.428,1.711.837,2.566,1.265,2.566.279,0,.446-.167.484-.5a3.95,3.95,0,0,0-.372-1.469q-1.813-6.918-3.18-10.973C25.159,15.7,24.787,14.991,24.229,14.991Zm.167,3.7h.149l.112.056a16.078,16.078,0,0,1,.818,2.9c0,.223-.763.651-2.288,1.246Zm14.674-4.2a11.767,11.767,0,0,0-2.845.558,4.656,4.656,0,0,0-.539,2.715V22.3c0,1.674.019,3.961.056,6.881.186.874.5,1.3.986,1.3a3.908,3.908,0,0,0,1.19-.335,13.06,13.06,0,0,0,4-.707c2.1-.986,3.162-2.213,3.162-3.7a3.858,3.858,0,0,0-.651-1.971,5.271,5.271,0,0,0-2.734-1.916,5.622,5.622,0,0,0,1.916-3.589,4.121,4.121,0,0,0-.335-1.376,4.409,4.409,0,0,0-3.924-2.4Zm-1.3,1.525c0-.242.428-.372,1.3-.372.186,0,.465.019.818.056q2.511.809,2.511,2.455c0,1.265-.781,2.362-2.343,3.329-1.19.353-1.823.651-1.916.874v.223c0,.279.2.465.6.539l2.083-.167a5.508,5.508,0,0,1,1.153.223q1.953,1.2,1.953,2.566a2.909,2.909,0,0,1-1.19,1.953,8.477,8.477,0,0,1-4.315,1.265h-.056c-.26,0-.391-.279-.391-.818V23.4c0-.93-.019-2.046-.056-3.385a3.989,3.989,0,0,0,.056-.763c0-.372-.056-1.395-.149-3.124Zm9.578-.818c-.763,0-1.153.967-1.153,2.9.037,1.823.074,5.431.112,10.805.186.911.558,1.358,1.134,1.358h.223c.614-.539,1-.818,1.209-.818,1.823.149,2.976.223,3.441.223h.2c.372-.056.558-.2.558-.484v-.112c0-.353-.688-.577-2.083-.651q-2.4,0-2.4-.5l-.112-8.834c0-2.585-.335-3.887-1.041-3.887Zm12.088-.2c-.391,0-.8.279-1.265.874-2.641,7.9-3.98,12.274-3.98,13.093v.335c0,.353.242.577.707.707h.223q1.116,0,2.455-4.91c0-.372,1.153-1.041,3.441-2.027h.056c.093.149.539,1.618,1.3,4.426.428,1.711.837,2.566,1.265,2.566.279,0,.446-.167.484-.5a3.951,3.951,0,0,0-.372-1.469q-1.813-6.918-3.18-10.973C60.364,15.7,59.992,14.991,59.435,14.991Zm.167,3.7h.149l.112.056a16.079,16.079,0,0,1,.818,2.9c0,.223-.763.651-2.288,1.246Zm14.674-4.2a11.768,11.768,0,0,0-2.845.558,4.656,4.656,0,0,0-.539,2.715V22.3c0,1.674.019,3.961.056,6.881.186.874.5,1.3.986,1.3a3.908,3.908,0,0,0,1.19-.335,13.06,13.06,0,0,0,4-.707c2.1-.986,3.162-2.213,3.162-3.7a3.858,3.858,0,0,0-.651-1.971A5.271,5.271,0,0,0,76.9,21.853a5.622,5.622,0,0,0,1.916-3.589,4.121,4.121,0,0,0-.335-1.376,4.409,4.409,0,0,0-3.924-2.4Zm-1.3,1.525c0-.242.428-.372,1.3-.372.186,0,.465.019.818.056q2.511.809,2.511,2.455c0,1.265-.781,2.362-2.343,3.329-1.19.353-1.823.651-1.916.874v.223c0,.279.2.465.6.539l2.083-.167a5.508,5.508,0,0,1,1.153.223q1.953,1.2,1.953,2.566a2.909,2.909,0,0,1-1.19,1.953,8.477,8.477,0,0,1-4.315,1.265h-.056c-.26,0-.391-.279-.391-.818V23.4c0-.93-.019-2.046-.056-3.385a3.99,3.99,0,0,0,.056-.763c0-.372-.056-1.395-.149-3.124Zm9.578-.818c-.762,0-1.153.967-1.153,2.9.037,1.823.074,5.431.112,10.805.186.911.558,1.358,1.134,1.358h.223c.614-.539,1-.818,1.209-.818,1.823.149,2.976.223,3.441.223h.2c.372-.056.558-.2.558-.484v-.112c0-.353-.688-.577-2.083-.651q-2.4,0-2.4-.5l-.112-8.834c0-2.585-.335-3.887-1.041-3.887Zm12.088-.2c-.391,0-.8.279-1.265.874-2.641,7.9-3.98,12.274-3.98,13.093v.335c0,.353.242.577.707.707h.223q1.116,0,2.455-4.91c0-.372,1.153-1.041,3.441-2.027h.056c.093.149.539,1.618,1.3,4.426.428,1.711.837,2.566,1.265,2.566.279,0,.446-.167.484-.5a3.95,3.95,0,0,0-.372-1.469q-1.813-6.918-3.18-10.973C95.57,15.7,95.2,14.991,94.64,14.991Zm.167,3.7h.149l.112.056a16.079,16.079,0,0,1,.818,2.9c0,.223-.763.651-2.288,1.246Zm14.674-4.2a11.768,11.768,0,0,0-2.845.558,4.656,4.656,0,0,0-.539,2.715V22.3c0,1.674.019,3.961.056,6.881.186.874.5,1.3.986,1.3a3.908,3.908,0,0,0,1.19-.335,13.06,13.06,0,0,0,4-.707c2.1-.986,3.162-2.213,3.162-3.7a3.858,3.858,0,0,0-.651-1.971,5.271,5.271,0,0,0-2.734-1.916,5.622,5.622,0,0,0,1.916-3.589,4.121,4.121,0,0,0-.335-1.376,4.409,4.409,0,0,0-3.924-2.4Zm-1.3,1.525c0-.242.428-.372,1.3-.372.186,0,.465.019.818.056q2.511.809,2.511,2.455c0,1.265-.781,2.362-2.343,3.329-1.19.353-1.823.651-1.916.874v.223c0,.279.2.465.6.539l2.083-.167a5.508,5.508,0,0,1,1.153.223q1.953,1.2,1.953,2.566a2.909,2.909,0,0,1-1.19,1.953,8.477,8.477,0,0,1-4.315,1.265h-.056c-.26,0-.391-.279-.391-.818V23.4c0-.93-.019-2.046-.056-3.385a3.99,3.99,0,0,0,.056-.763c0-.372-.056-1.395-.149-3.124Zm9.578-.818c-.763,0-1.153.967-1.153,2.9.037,1.823.074,5.431.112,10.805.186.911.558,1.358,1.134,1.358h.223c.614-.539,1-.818,1.209-.818,1.823.149,2.976.223,3.441.223h.2c.372-.056.558-.2.558-.484v-.112c0-.353-.688-.577-2.083-.651q-2.4,0-2.4-.5l-.112-8.834c0-2.585-.335-3.887-1.041-3.887Zm12.088-.2c-.391,0-.8.279-1.265.874-2.641,7.9-3.98,12.274-3.98,13.093v.335c0,.353.242.577.707.707h.223q1.116,0,2.455-4.91c0-.372,1.153-1.041,3.441-2.027h.056c.093.149.539,1.618,1.3,4.426.428,1.711.837,2.566,1.265,2.566.279,0,.446-.167.484-.5a3.95,3.95,0,0,0-.372-1.469q-1.813-6.918-3.18-10.973C130.775,15.7,130.4,14.991,129.845,14.991Zm.167,3.7h.149l.112.056a16.079,16.079,0,0,1,.818,2.9c0,.223-.763.651-2.288,1.246Zm14.674-4.2a11.768,11.768,0,0,0-2.845.558,4.656,4.656,0,0,0-.539,2.715V22.3c0,1.674.019,3.961.056,6.881.186.874.5,1.3.986,1.3a3.908,3.908,0,0,0,1.19-.335,13.06,13.06,0,0,0,4-.707c2.1-.986,3.162-2.213,3.162-3.7a3.857,3.857,0,0,0-.651-1.971,5.271,5.271,0,0,0-2.734-1.916,5.622,5.622,0,0,0,1.916-3.589,4.121,4.121,0,0,0-.335-1.376,4.409,4.409,0,0,0-3.924-2.4Zm-1.3,1.525c0-.242.428-.372,1.3-.372.186,0,.465.019.818.056q2.511.809,2.511,2.455c0,1.265-.781,2.362-2.343,3.329-1.19.353-1.823.651-1.916.874v.223c0,.279.2.465.6.539l2.083-.167a5.508,5.508,0,0,1,1.153.223q1.953,1.2,1.953,2.566a2.909,2.909,0,0,1-1.19,1.953,8.477,8.477,0,0,1-4.315,1.265h-.056c-.26,0-.391-.279-.391-.818V23.4c0-.93-.019-2.046-.056-3.385a3.989,3.989,0,0,0,.056-.763c0-.372-.056-1.395-.149-3.124Zm9.578-.818c-.763,0-1.153.967-1.153,2.9.037,1.823.074,5.431.112,10.805.186.911.558,1.358,1.134,1.358h.223c.614-.539,1-.818,1.209-.818,1.823.149,2.976.223,3.441.223h.2c.372-.056.558-.2.558-.484v-.112c0-.353-.688-.577-2.083-.651q-2.4,0-2.4-.5l-.112-8.834c0-2.585-.335-3.887-1.041-3.887Zm12.088-.2c-.391,0-.8.279-1.265.874-2.641,7.9-3.98,12.274-3.98,13.093v.335c0,.353.242.577.707.707h.223q1.116,0,2.455-4.91c0-.372,1.153-1.041,3.441-2.027h.056c.093.149.539,1.618,1.3,4.426.428,1.711.837,2.566,1.265,2.566.279,0,.446-.167.484-.5a3.95,3.95,0,0,0-.372-1.469q-1.813-6.918-3.18-10.973C165.98,15.7,165.609,14.991,165.051,14.991Zm.167,3.7h.149l.112.056a16.079,16.079,0,0,1,.818,2.9c0,.223-.762.651-2.288,1.246ZM3.865,42.385a11.768,11.768,0,0,0-2.845.558A4.656,4.656,0,0,0,.48,45.658V50.2c0,1.674.019,3.961.056,6.881.186.874.5,1.3.986,1.3a3.908,3.908,0,0,0,1.19-.335,13.06,13.06,0,0,0,4-.707c2.1-.986,3.162-2.213,3.162-3.7a3.857,3.857,0,0,0-.651-1.971A5.271,5.271,0,0,0,6.487,49.75,5.622,5.622,0,0,0,8.4,46.16a4.121,4.121,0,0,0-.335-1.376,4.409,4.409,0,0,0-3.924-2.4Zm-1.3,1.525c0-.242.428-.372,1.3-.372.186,0,.465.019.818.056q2.511.809,2.511,2.455c0,1.265-.781,2.362-2.343,3.329-1.19.353-1.823.651-1.916.874v.223c0,.279.2.465.6.539l2.083-.167a5.508,5.508,0,0,1,1.153.223q1.953,1.2,1.953,2.566a2.909,2.909,0,0,1-1.19,1.953,8.477,8.477,0,0,1-4.315,1.265H3.158c-.26,0-.391-.279-.391-.818V51.293c0-.93-.019-2.046-.056-3.385a3.99,3.99,0,0,0,.056-.763c0-.372-.056-1.395-.149-3.124Zm9.578-.818c-.763,0-1.153.967-1.153,2.9.037,1.823.074,5.431.112,10.805.186.911.558,1.358,1.134,1.358h.223c.614-.539,1-.818,1.209-.818,1.823.149,2.976.223,3.441.223h.2c.372-.056.558-.2.558-.484v-.112c0-.353-.688-.577-2.083-.651q-2.4,0-2.4-.5l-.112-8.834c0-2.585-.335-3.887-1.041-3.887Zm12.088-.2c-.391,0-.8.279-1.265.874-2.641,7.9-3.98,12.274-3.98,13.093v.335c0,.353.242.577.707.707h.223q1.116,0,2.455-4.91c0-.372,1.153-1.041,3.441-2.027h.056c.093.149.539,1.618,1.3,4.426.428,1.711.837,2.566,1.265,2.566.279,0,.446-.167.484-.5a3.95,3.95,0,0,0-.372-1.469q-1.813-6.918-3.18-10.973C25.159,43.594,24.787,42.887,24.229,42.887Zm.167,3.7h.149l.112.056a16.078,16.078,0,0,1,.818,2.9c0,.223-.763.651-2.288,1.246Zm14.674-4.2a11.768,11.768,0,0,0-2.845.558,4.656,4.656,0,0,0-.539,2.715V50.2c0,1.674.019,3.961.056,6.881.186.874.5,1.3.986,1.3a3.908,3.908,0,0,0,1.19-.335,13.06,13.06,0,0,0,4-.707c2.1-.986,3.162-2.213,3.162-3.7a3.858,3.858,0,0,0-.651-1.971,5.271,5.271,0,0,0-2.734-1.916,5.622,5.622,0,0,0,1.916-3.589,4.121,4.121,0,0,0-.335-1.376,4.409,4.409,0,0,0-3.924-2.4Zm-1.3,1.525c0-.242.428-.372,1.3-.372.186,0,.465.019.818.056Q42.4,44.4,42.4,46.049c0,1.265-.781,2.362-2.343,3.329-1.19.353-1.823.651-1.916.874v.223c0,.279.2.465.6.539l2.083-.167a5.508,5.508,0,0,1,1.153.223q1.953,1.2,1.953,2.566a2.909,2.909,0,0,1-1.19,1.953,8.477,8.477,0,0,1-4.315,1.265h-.056c-.26,0-.391-.279-.391-.818V51.293c0-.93-.019-2.046-.056-3.385a3.989,3.989,0,0,0,.056-.763c0-.372-.056-1.395-.149-3.124Zm9.578-.818c-.763,0-1.153.967-1.153,2.9.037,1.823.074,5.431.112,10.805.186.911.558,1.358,1.134,1.358h.223c.614-.539,1-.818,1.209-.818,1.823.149,2.976.223,3.441.223h.2c.372-.056.558-.2.558-.484v-.112c0-.353-.688-.577-2.083-.651q-2.4,0-2.4-.5l-.112-8.834c0-2.585-.335-3.887-1.041-3.887Zm12.088-.2c-.391,0-.8.279-1.265.874-2.641,7.9-3.98,12.274-3.98,13.093v.335c0,.353.242.577.707.707h.223q1.116,0,2.455-4.91c0-.372,1.153-1.041,3.441-2.027h.056c.093.149.539,1.618,1.3,4.426.428,1.711.837,2.566,1.265,2.566.279,0,.446-.167.484-.5a3.951,3.951,0,0,0-.372-1.469q-1.813-6.918-3.18-10.973C60.364,43.594,59.992,42.887,59.435,42.887Zm.167,3.7h.149l.112.056a16.079,16.079,0,0,1,.818,2.9c0,.223-.763.651-2.288,1.246Zm14.674-4.2a11.768,11.768,0,0,0-2.845.558,4.656,4.656,0,0,0-.539,2.715V50.2c0,1.674.019,3.961.056,6.881.186.874.5,1.3.986,1.3a3.908,3.908,0,0,0,1.19-.335,13.06,13.06,0,0,0,4-.707c2.1-.986,3.162-2.213,3.162-3.7a3.858,3.858,0,0,0-.651-1.971A5.271,5.271,0,0,0,76.9,49.75a5.622,5.622,0,0,0,1.916-3.589,4.121,4.121,0,0,0-.335-1.376,4.409,4.409,0,0,0-3.924-2.4Zm-1.3,1.525c0-.242.428-.372,1.3-.372.186,0,.465.019.818.056Q77.6,44.4,77.6,46.049c0,1.265-.781,2.362-2.343,3.329-1.19.353-1.823.651-1.916.874v.223c0,.279.2.465.6.539l2.083-.167a5.508,5.508,0,0,1,1.153.223q1.953,1.2,1.953,2.566a2.909,2.909,0,0,1-1.19,1.953,8.477,8.477,0,0,1-4.315,1.265h-.056c-.26,0-.391-.279-.391-.818V51.293c0-.93-.019-2.046-.056-3.385a3.99,3.99,0,0,0,.056-.763c0-.372-.056-1.395-.149-3.124Zm9.578-.818c-.762,0-1.153.967-1.153,2.9.037,1.823.074,5.431.112,10.805.186.911.558,1.358,1.134,1.358h.223c.614-.539,1-.818,1.209-.818,1.823.149,2.976.223,3.441.223h.2c.372-.056.558-.2.558-.484v-.112c0-.353-.688-.577-2.083-.651q-2.4,0-2.4-.5l-.112-8.834c0-2.585-.335-3.887-1.041-3.887Zm12.088-.2c-.391,0-.8.279-1.265.874-2.641,7.9-3.98,12.274-3.98,13.093v.335c0,.353.242.577.707.707h.223q1.116,0,2.455-4.91c0-.372,1.153-1.041,3.441-2.027h.056c.093.149.539,1.618,1.3,4.426.428,1.711.837,2.566,1.265,2.566.279,0,.446-.167.484-.5a3.951,3.951,0,0,0-.372-1.469q-1.813-6.918-3.18-10.973C95.57,43.594,95.2,42.887,94.64,42.887Zm.167,3.7h.149l.112.056a16.079,16.079,0,0,1,.818,2.9c0,.223-.763.651-2.288,1.246Zm14.674-4.2a11.768,11.768,0,0,0-2.845.558,4.656,4.656,0,0,0-.539,2.715V50.2c0,1.674.019,3.961.056,6.881.186.874.5,1.3.986,1.3a3.908,3.908,0,0,0,1.19-.335,13.06,13.06,0,0,0,4-.707c2.1-.986,3.162-2.213,3.162-3.7a3.858,3.858,0,0,0-.651-1.971A5.271,5.271,0,0,0,112.1,49.75a5.622,5.622,0,0,0,1.916-3.589,4.121,4.121,0,0,0-.335-1.376,4.409,4.409,0,0,0-3.924-2.4Zm-1.3,1.525c0-.242.428-.372,1.3-.372.186,0,.465.019.818.056q2.511.809,2.511,2.455c0,1.265-.781,2.362-2.343,3.329-1.19.353-1.823.651-1.916.874v.223c0,.279.2.465.6.539l2.083-.167a5.508,5.508,0,0,1,1.153.223q1.953,1.2,1.953,2.566a2.909,2.909,0,0,1-1.19,1.953,8.477,8.477,0,0,1-4.315,1.265h-.056c-.26,0-.391-.279-.391-.818V51.293c0-.93-.019-2.046-.056-3.385a3.99,3.99,0,0,0,.056-.763c0-.372-.056-1.395-.149-3.124Zm9.578-.818c-.763,0-1.153.967-1.153,2.9.037,1.823.074,5.431.112,10.805.186.911.558,1.358,1.134,1.358h.223c.614-.539,1-.818,1.209-.818,1.823.149,2.976.223,3.441.223h.2c.372-.056.558-.2.558-.484v-.112c0-.353-.688-.577-2.083-.651q-2.4,0-2.4-.5l-.112-8.834c0-2.585-.335-3.887-1.041-3.887Zm12.088-.2c-.391,0-.8.279-1.265.874-2.641,7.9-3.98,12.274-3.98,13.093v.335c0,.353.242.577.707.707h.223q1.116,0,2.455-4.91c0-.372,1.153-1.041,3.441-2.027h.056c.093.149.539,1.618,1.3,4.426.428,1.711.837,2.566,1.265,2.566.279,0,.446-.167.484-.5a3.95,3.95,0,0,0-.372-1.469q-1.813-6.918-3.18-10.973C130.775,43.594,130.4,42.887,129.845,42.887Zm.167,3.7h.149l.112.056a16.079,16.079,0,0,1,.818,2.9c0,.223-.763.651-2.288,1.246Zm14.674-4.2a11.768,11.768,0,0,0-2.845.558,4.656,4.656,0,0,0-.539,2.715V50.2c0,1.674.019,3.961.056,6.881.186.874.5,1.3.986,1.3a3.908,3.908,0,0,0,1.19-.335,13.06,13.06,0,0,0,4-.707c2.1-.986,3.162-2.213,3.162-3.7a3.857,3.857,0,0,0-.651-1.971,5.271,5.271,0,0,0-2.734-1.916,5.622,5.622,0,0,0,1.916-3.589,4.121,4.121,0,0,0-.335-1.376,4.409,4.409,0,0,0-3.924-2.4Zm-1.3,1.525c0-.242.428-.372,1.3-.372.186,0,.465.019.818.056q2.511.809,2.511,2.455c0,1.265-.781,2.362-2.343,3.329-1.19.353-1.823.651-1.916.874v.223c0,.279.2.465.6.539l2.083-.167a5.508,5.508,0,0,1,1.153.223q1.953,1.2,1.953,2.566a2.909,2.909,0,0,1-1.19,1.953,8.477,8.477,0,0,1-4.315,1.265h-.056c-.26,0-.391-.279-.391-.818V51.293c0-.93-.019-2.046-.056-3.385a3.989,3.989,0,0,0,.056-.763c0-.372-.056-1.395-.149-3.124Zm9.578-.818c-.763,0-1.153.967-1.153,2.9.037,1.823.074,5.431.112,10.805.186.911.558,1.358,1.134,1.358h.223c.614-.539,1-.818,1.209-.818,1.823.149,2.976.223,3.441.223h.2c.372-.056.558-.2.558-.484v-.112c0-.353-.688-.577-2.083-.651q-2.4,0-2.4-.5l-.112-8.834c0-2.585-.335-3.887-1.041-3.887Zm12.088-.2c-.391,0-.8.279-1.265.874-2.641,7.9-3.98,12.274-3.98,13.093v.335c0,.353.242.577.707.707h.223q1.116,0,2.455-4.91c0-.372,1.153-1.041,3.441-2.027h.056c.093.149.539,1.618,1.3,4.426.428,1.711.837,2.566,1.265,2.566.279,0,.446-.167.484-.5a3.95,3.95,0,0,0-.372-1.469q-1.813-6.918-3.18-10.973C165.98,43.594,165.609,42.887,165.051,42.887Zm.167,3.7h.149l.112.056a16.079,16.079,0,0,1,.818,2.9c0,.223-.762.651-2.288,1.246ZM3.865,70.281a11.768,11.768,0,0,0-2.845.558A4.656,4.656,0,0,0,.48,73.555v4.538c0,1.674.019,3.961.056,6.881.186.874.5,1.3.986,1.3a3.908,3.908,0,0,0,1.19-.335,13.06,13.06,0,0,0,4-.707c2.1-.986,3.162-2.213,3.162-3.7a3.857,3.857,0,0,0-.651-1.971,5.271,5.271,0,0,0-2.734-1.916A5.622,5.622,0,0,0,8.4,74.057a4.121,4.121,0,0,0-.335-1.376,4.409,4.409,0,0,0-3.924-2.4Zm-1.3,1.525c0-.242.428-.372,1.3-.372.186,0,.465.019.818.056q2.511.809,2.511,2.455c0,1.265-.781,2.362-2.343,3.329-1.19.353-1.823.651-1.916.874v.223c0,.279.2.465.6.539l2.083-.167a5.507,5.507,0,0,1,1.153.223q1.953,1.2,1.953,2.566a2.909,2.909,0,0,1-1.19,1.953A8.477,8.477,0,0,1,3.214,84.75H3.158c-.26,0-.391-.279-.391-.818V79.19c0-.93-.019-2.046-.056-3.385a3.99,3.99,0,0,0,.056-.763c0-.372-.056-1.395-.149-3.124Zm9.578-.818c-.763,0-1.153.967-1.153,2.9.037,1.823.074,5.431.112,10.805.186.911.558,1.358,1.134,1.358h.223c.614-.539,1-.818,1.209-.818,1.823.149,2.976.223,3.441.223h.2c.372-.056.558-.2.558-.484v-.112c0-.353-.688-.577-2.083-.651q-2.4,0-2.4-.5l-.112-8.834c0-2.585-.335-3.887-1.041-3.887Zm12.088-.2c-.391,0-.8.279-1.265.874-2.641,7.9-3.98,12.274-3.98,13.093v.335c0,.353.242.577.707.707h.223q1.116,0,2.455-4.91c0-.372,1.153-1.041,3.441-2.027h.056c.093.149.539,1.618,1.3,4.426.428,1.711.837,2.566,1.265,2.566.279,0,.446-.167.484-.5a3.95,3.95,0,0,0-.372-1.469q-1.813-6.918-3.18-10.973C25.159,71.49,24.787,70.784,24.229,70.784Zm.167,3.7h.149l.112.056a16.078,16.078,0,0,1,.818,2.9c0,.223-.763.651-2.288,1.246Zm14.674-4.2a11.768,11.768,0,0,0-2.845.558,4.656,4.656,0,0,0-.539,2.715v4.538c0,1.674.019,3.961.056,6.881.186.874.5,1.3.986,1.3a3.908,3.908,0,0,0,1.19-.335,13.06,13.06,0,0,0,4-.707c2.1-.986,3.162-2.213,3.162-3.7a3.858,3.858,0,0,0-.651-1.971,5.271,5.271,0,0,0-2.734-1.916,5.622,5.622,0,0,0,1.916-3.589,4.121,4.121,0,0,0-.335-1.376,4.409,4.409,0,0,0-3.924-2.4Zm-1.3,1.525c0-.242.428-.372,1.3-.372.186,0,.465.019.818.056Q42.4,72.3,42.4,73.945c0,1.265-.781,2.362-2.343,3.329-1.19.353-1.823.651-1.916.874v.223c0,.279.2.465.6.539l2.083-.167a5.507,5.507,0,0,1,1.153.223q1.953,1.2,1.953,2.566a2.909,2.909,0,0,1-1.19,1.953,8.477,8.477,0,0,1-4.315,1.265h-.056c-.26,0-.391-.279-.391-.818V79.19c0-.93-.019-2.046-.056-3.385a3.989,3.989,0,0,0,.056-.763c0-.372-.056-1.395-.149-3.124Zm9.578-.818c-.763,0-1.153.967-1.153,2.9.037,1.823.074,5.431.112,10.805.186.911.558,1.358,1.134,1.358h.223c.614-.539,1-.818,1.209-.818,1.823.149,2.976.223,3.441.223h.2c.372-.056.558-.2.558-.484v-.112c0-.353-.688-.577-2.083-.651q-2.4,0-2.4-.5l-.112-8.834c0-2.585-.335-3.887-1.041-3.887Zm12.088-.2c-.391,0-.8.279-1.265.874-2.641,7.9-3.98,12.274-3.98,13.093v.335c0,.353.242.577.707.707h.223q1.116,0,2.455-4.91c0-.372,1.153-1.041,3.441-2.027h.056c.093.149.539,1.618,1.3,4.426.428,1.711.837,2.566,1.265,2.566.279,0,.446-.167.484-.5a3.95,3.95,0,0,0-.372-1.469q-1.813-6.918-3.18-10.973C60.364,71.49,59.992,70.784,59.435,70.784Zm.167,3.7h.149l.112.056a16.079,16.079,0,0,1,.818,2.9c0,.223-.763.651-2.288,1.246Zm14.674-4.2a11.768,11.768,0,0,0-2.845.558,4.656,4.656,0,0,0-.539,2.715v4.538c0,1.674.019,3.961.056,6.881.186.874.5,1.3.986,1.3a3.908,3.908,0,0,0,1.19-.335,13.06,13.06,0,0,0,4-.707c2.1-.986,3.162-2.213,3.162-3.7a3.858,3.858,0,0,0-.651-1.971A5.271,5.271,0,0,0,76.9,77.646a5.622,5.622,0,0,0,1.916-3.589,4.121,4.121,0,0,0-.335-1.376,4.409,4.409,0,0,0-3.924-2.4Zm-1.3,1.525c0-.242.428-.372,1.3-.372.186,0,.465.019.818.056Q77.6,72.3,77.6,73.945c0,1.265-.781,2.362-2.343,3.329-1.19.353-1.823.651-1.916.874v.223c0,.279.2.465.6.539l2.083-.167a5.507,5.507,0,0,1,1.153.223q1.953,1.2,1.953,2.566a2.909,2.909,0,0,1-1.19,1.953,8.477,8.477,0,0,1-4.315,1.265h-.056c-.26,0-.391-.279-.391-.818V79.19c0-.93-.019-2.046-.056-3.385a3.99,3.99,0,0,0,.056-.763c0-.372-.056-1.395-.149-3.124Zm9.578-.818c-.762,0-1.153.967-1.153,2.9.037,1.823.074,5.431.112,10.805.186.911.558,1.358,1.134,1.358h.223c.614-.539,1-.818,1.209-.818,1.823.149,2.976.223,3.441.223h.2c.372-.056.558-.2.558-.484v-.112c0-.353-.688-.577-2.083-.651q-2.4,0-2.4-.5l-.112-8.834c0-2.585-.335-3.887-1.041-3.887Zm12.088-.2c-.391,0-.8.279-1.265.874-2.641,7.9-3.98,12.274-3.98,13.093v.335c0,.353.242.577.707.707h.223q1.116,0,2.455-4.91c0-.372,1.153-1.041,3.441-2.027h.056c.093.149.539,1.618,1.3,4.426.428,1.711.837,2.566,1.265,2.566.279,0,.446-.167.484-.5a3.95,3.95,0,0,0-.372-1.469q-1.813-6.918-3.18-10.973C95.57,71.49,95.2,70.784,94.64,70.784Zm.167,3.7h.149l.112.056a16.079,16.079,0,0,1,.818,2.9c0,.223-.763.651-2.288,1.246Zm14.674-4.2a11.768,11.768,0,0,0-2.845.558,4.656,4.656,0,0,0-.539,2.715v4.538c0,1.674.019,3.961.056,6.881.186.874.5,1.3.986,1.3a3.908,3.908,0,0,0,1.19-.335,13.06,13.06,0,0,0,4-.707c2.1-.986,3.162-2.213,3.162-3.7a3.857,3.857,0,0,0-.651-1.971,5.271,5.271,0,0,0-2.734-1.916,5.622,5.622,0,0,0,1.916-3.589,4.121,4.121,0,0,0-.335-1.376,4.409,4.409,0,0,0-3.924-2.4Zm-1.3,1.525c0-.242.428-.372,1.3-.372.186,0,.465.019.818.056q2.511.809,2.511,2.455c0,1.265-.781,2.362-2.343,3.329-1.19.353-1.823.651-1.916.874v.223c0,.279.2.465.6.539l2.083-.167a5.507,5.507,0,0,1,1.153.223q1.953,1.2,1.953,2.566a2.909,2.909,0,0,1-1.19,1.953,8.477,8.477,0,0,1-4.315,1.265h-.056c-.26,0-.391-.279-.391-.818V79.19c0-.93-.019-2.046-.056-3.385a3.99,3.99,0,0,0,.056-.763c0-.372-.056-1.395-.149-3.124Zm9.578-.818c-.763,0-1.153.967-1.153,2.9.037,1.823.074,5.431.112,10.805.186.911.558,1.358,1.134,1.358h.223c.614-.539,1-.818,1.209-.818,1.823.149,2.976.223,3.441.223h.2c.372-.056.558-.2.558-.484v-.112c0-.353-.688-.577-2.083-.651q-2.4,0-2.4-.5l-.112-8.834c0-2.585-.335-3.887-1.041-3.887Zm12.088-.2c-.391,0-.8.279-1.265.874-2.641,7.9-3.98,12.274-3.98,13.093v.335c0,.353.242.577.707.707h.223q1.116,0,2.455-4.91c0-.372,1.153-1.041,3.441-2.027h.056c.093.149.539,1.618,1.3,4.426.428,1.711.837,2.566,1.265,2.566.279,0,.446-.167.484-.5a3.95,3.95,0,0,0-.372-1.469q-1.813-6.918-3.18-10.973C130.775,71.49,130.4,70.784,129.845,70.784Zm.167,3.7h.149l.112.056a16.079,16.079,0,0,1,.818,2.9c0,.223-.763.651-2.288,1.246Zm14.674-4.2a11.768,11.768,0,0,0-2.845.558,4.656,4.656,0,0,0-.539,2.715v4.538c0,1.674.019,3.961.056,6.881.186.874.5,1.3.986,1.3a3.908,3.908,0,0,0,1.19-.335,13.06,13.06,0,0,0,4-.707c2.1-.986,3.162-2.213,3.162-3.7a3.857,3.857,0,0,0-.651-1.971,5.271,5.271,0,0,0-2.734-1.916,5.622,5.622,0,0,0,1.916-3.589,4.121,4.121,0,0,0-.335-1.376,4.409,4.409,0,0,0-3.924-2.4Zm-1.3,1.525c0-.242.428-.372,1.3-.372.186,0,.465.019.818.056q2.511.809,2.511,2.455c0,1.265-.781,2.362-2.343,3.329-1.19.353-1.823.651-1.916.874v.223c0,.279.2.465.6.539l2.083-.167a5.507,5.507,0,0,1,1.153.223q1.953,1.2,1.953,2.566a2.909,2.909,0,0,1-1.19,1.953,8.477,8.477,0,0,1-4.315,1.265h-.056c-.26,0-.391-.279-.391-.818V79.19c0-.93-.019-2.046-.056-3.385a3.989,3.989,0,0,0,.056-.763c0-.372-.056-1.395-.149-3.124Zm9.578-.818c-.763,0-1.153.967-1.153,2.9.037,1.823.074,5.431.112,10.805.186.911.558,1.358,1.134,1.358h.223c.614-.539,1-.818,1.209-.818,1.823.149,2.976.223,3.441.223h.2c.372-.056.558-.2.558-.484v-.112c0-.353-.688-.577-2.083-.651q-2.4,0-2.4-.5l-.112-8.834c0-2.585-.335-3.887-1.041-3.887Zm12.088-.2c-.391,0-.8.279-1.265.874-2.641,7.9-3.98,12.274-3.98,13.093v.335c0,.353.242.577.707.707h.223q1.116,0,2.455-4.91c0-.372,1.153-1.041,3.441-2.027h.056c.093.149.539,1.618,1.3,4.426.428,1.711.837,2.566,1.265,2.566.279,0,.446-.167.484-.5a3.95,3.95,0,0,0-.372-1.469q-1.813-6.918-3.18-10.973C165.98,71.49,165.609,70.784,165.051,70.784Zm.167,3.7h.149l.112.056a16.079,16.079,0,0,1,.818,2.9c0,.223-.762.651-2.288,1.246Z" transform="translate(664 2561)" fill="#12263f"/>
      <g id="Enmascarar_grupo_182" data-name="Enmascarar grupo 182" clip-path="url(#clip-path)">
        <g id="Grupo_136533" data-name="Grupo 136533" transform="translate(402.392 2639.65)">
          <g id="Grupo_136493" data-name="Grupo 136493" transform="translate(92.105)">
            <path id="Trazado_195284" data-name="Trazado 195284" d="M930.181,963.173a27.285,27.285,0,0,0-9.5,4.024c-10.1,6.264-18.667,16.075-20.48,27.818-1.477,9.572,1.608,19.412.127,28.983-1.121,7.247-4.775,13.819-7.147,20.757s-3.316,15.079.678,21.229c3.6,5.54,10.531,8.182,17.136,8.26s13.021-2.025,19.265-4.181,12.58-4.412,19.181-4.661c4.567-.172,9.266.612,13.636-.728,5.238-1.606,9.22-6.149,11.2-11.257s2.187-10.738,1.777-16.2a76.388,76.388,0,0,0-6.584-25.763c-2.991-6.6-7-13.056-7.329-20.293-.173-3.851,1.161-8.261,4.7-9.8,1.069-.464,2.362-.7,3-1.675.89-1.365-.1-3.141-1.081-4.439-3.577-4.717-7.665-9.328-13.078-11.725a16.247,16.247,0,0,0-13-.184c-2.164.94-2.72,1.161-4.972.487A15.775,15.775,0,0,0,930.181,963.173Z" transform="translate(-891.131 -962.072)" fill="#12263f"/>
          </g>
          <g id="Grupo_136494" data-name="Grupo 136494" transform="translate(180.149 161.111)">
            <path id="Trazado_195285" data-name="Trazado 195285" d="M1160.492,1411.158l6.422,37.552,55.838-6.857,1.959,18.939-62,12.453a14.524,14.524,0,0,1-17.134-11.55l-9.033-47.924Z" transform="translate(-1136.546 -1411.158)" fill="#fcc5b6"/>
          </g>
          <g id="Grupo_136495" data-name="Grupo 136495" transform="translate(0 142.964)">
            <path id="Trazado_195286" data-name="Trazado 195286" d="M685.685,1360.575l-47.034,41.056a13.934,13.934,0,0,0,2.977,22.242l70.425,39.5,7.642-17.858-52.639-35,36.567-28.6Z" transform="translate(-634.393 -1360.575)" fill="#fcc5b6"/>
          </g>
          <g id="Grupo_136496" data-name="Grupo 136496" transform="translate(66.946 217.746)">
            <path id="Trazado_195287" data-name="Trazado 195287" d="M936.939,1570.706l13.134,58.794q.99,4.431,1.6,8.934l3.854,58.657-57.88,1.637L894.56,1671.3l-7.761-.2.813,27.5-66.612.29.114-34.275a153.148,153.148,0,0,1,10.492-52.689l16.78-42.9Z" transform="translate(-821 -1569.025)" fill="#b13e8d"/>
          </g>
          <g id="Grupo_136498" data-name="Grupo 136498" transform="translate(117.72 104.987)">
            <g id="Grupo_136497" data-name="Grupo 136497">
              <path id="Trazado_195288" data-name="Trazado 195288" d="M1002.128,1280.1c-3.921,4.273-10.523,4.948-16.19,3.717a31.5,31.5,0,0,1-22.14-18.7c-1.04-2.587-1.669-5.607-.983-8.217l23-2.19,15.254,1.991c2.531,2.795,3.745,6.5,4.336,11.268C1005.941,1272.264,1005.051,1276.917,1002.128,1280.1Z" transform="translate(-962.529 -1254.716)" fill="#fcc5b6"/>
            </g>
          </g>
          <g id="Grupo_136499" data-name="Grupo 136499" transform="translate(139.659 252.132)">
            <path id="Trazado_195289" data-name="Trazado 195289" d="M1024.314,1732.712a.638.638,0,0,1-.206-.035.629.629,0,0,1-.39-.8c5.324-15.406,11.34-50.342,10.434-66.337a.63.63,0,0,1,1.258-.071c.913,16.122-5.142,51.31-10.5,66.819A.63.63,0,0,1,1024.314,1732.712Z" transform="translate(-1023.684 -1664.875)" fill="#12263f"/>
          </g>
          <g id="Grupo_136500" data-name="Grupo 136500" transform="translate(130.805 253.439)">
            <path id="Trazado_195290" data-name="Trazado 195290" d="M999.635,1734.7a.675.675,0,0,1-.073,0,.63.63,0,0,1-.553-.7c2.179-18.8,4.22-48.189,3.861-64.842a.63.63,0,0,1,.616-.643h.014a.63.63,0,0,1,.63.616c.359,16.707-1.685,46.176-3.87,65.014A.63.63,0,0,1,999.635,1734.7Z" transform="translate(-999.004 -1668.517)" fill="#12263f"/>
          </g>
          <g id="Grupo_136501" data-name="Grupo 136501" transform="translate(46.04 106.977)">
            <path id="Trazado_195291" data-name="Trazado 195291" d="M762.726,1297.3a31.941,31.941,0,0,0,23.426,23.537l2.476.607,16.424-11.141a.521.521,0,0,1,.34-.124.543.543,0,0,1,.5.333c7.223,17.378,10.286,39.184,5.394,57.353l-2.142,7.954,14.054,2.913c27.573,5.72,51.26,6.3,77.67-3.475l-2.854-29.48a30.5,30.5,0,0,1,4.977-19.886l1.652-2.475c7.778-.268,10.495.313,17.992-1.835l2.835-.816-8.472-40.354a7.92,7.92,0,0,0-.33-1.16,23.411,23.411,0,0,0-11.383-12.755,36.146,36.146,0,0,0-11.47-3.508l-20.859-2.723c2.528,2.8,3.742,6.5,4.337,11.266.529,4.291-.359,8.947-3.285,12.128-3.918,4.271-10.521,4.95-16.189,3.716a31.481,31.481,0,0,1-22.139-18.691c-1.038-2.586-1.665-5.61-.98-8.222L818.6,1262a48.163,48.163,0,0,0-27.22,11.762Z" transform="translate(-762.726 -1260.265)" fill="#7fc733"/>
          </g>
          <g id="Grupo_136502" data-name="Grupo 136502" transform="translate(79.616 246.017)">
            <path id="Trazado_195292" data-name="Trazado 195292" d="M857.472,1747.006a.63.63,0,0,1-.628-.589,256.042,256.042,0,0,1,12.948-98.161.63.63,0,1,1,1.193.4,254.771,254.771,0,0,0-12.883,97.674.63.63,0,0,1-.588.669Z" transform="translate(-856.318 -1647.829)" fill="#12263f"/>
          </g>
          <g id="Grupo_136503" data-name="Grupo 136503" transform="translate(87.143 151.563)">
            <path id="Trazado_195293" data-name="Trazado 195293" d="M877.929,1389.873a.63.63,0,0,1-.326-1.169l6.744-4.069a.63.63,0,0,1,.65,1.078l-6.744,4.069A.63.63,0,0,1,877.929,1389.873Z" transform="translate(-877.298 -1384.545)" fill="#12263f"/>
          </g>
          <g id="Grupo_136504" data-name="Grupo 136504" transform="translate(99.321 234.559)">
            <path id="Trazado_195294" data-name="Trazado 195294" d="M949.172,1625.843a130.985,130.985,0,0,1-37.478-5.451.63.63,0,0,1,.36-1.207,130.5,130.5,0,0,0,83.862-3.251.63.63,0,1,1,.453,1.175A131.418,131.418,0,0,1,949.172,1625.843Z" transform="translate(-911.245 -1615.892)" fill="#12263f"/>
          </g>
          <g id="Grupo_136505" data-name="Grupo 136505" transform="translate(186.344 143.037)">
            <path id="Trazado_195295" data-name="Trazado 195295" d="M1158.689,1382.251a.63.63,0,0,1-.62-.741,27.1,27.1,0,0,0-4.146-19.75.63.63,0,1,1,1.045-.7,28.363,28.363,0,0,1,4.34,20.675A.63.63,0,0,1,1158.689,1382.251Z" transform="translate(-1153.816 -1360.778)" fill="#12263f"/>
          </g>
          <g id="Grupo_136506" data-name="Grupo 136506" transform="translate(23.543 185.404)">
            <path id="Trazado_195296" data-name="Trazado 195296" d="M710.973,1487.887a.631.631,0,0,1-.378-.126l-10.326-7.753a.63.63,0,0,1,.756-1.008l10.326,7.753a.63.63,0,0,1-.379,1.134Z" transform="translate(-700.017 -1478.874)" fill="#12263f"/>
          </g>
          <g id="Grupo_136507" data-name="Grupo 136507" transform="translate(75.434 219.955)">
            <path id="Trazado_195297" data-name="Trazado 195297" d="M852.806,1583.04l23.276-7.856,13,3.2,10.407,5.355a2.076,2.076,0,0,1,.855,2.986h0a2.076,2.076,0,0,1-2.621.773l-10.639-4.9-10.75-.972,9.641,3.155,8.852,5.1a4.121,4.121,0,0,1,1.444,5.744l-.791,1.274a4.122,4.122,0,0,1-5.1,1.624L879.649,1594l-11.826-.51,8.019,3.2,5.308,4.614a1.983,1.983,0,0,1-.124,3.093h0a1.984,1.984,0,0,1-2.172.119l-8.047-4.667-7.024-1.083-10.751,3.964a6.01,6.01,0,0,1-7.092-2.324l-1.279-1.934Z" transform="translate(-844.662 -1575.184)" fill="#fcc5b6"/>
          </g>
          <g id="Grupo_136508" data-name="Grupo 136508" transform="translate(267.335 186.413)">
            <path id="Trazado_195298" data-name="Trazado 195298" d="M1379.573,1506.219l27.164.272-5.5-24.8-21.293,5.495Z" transform="translate(-1379.573 -1481.687)" fill="#fcc5b6"/>
          </g>
          <g id="Grupo_136514" data-name="Grupo 136514" transform="translate(287.862 163.901)">
            <g id="Grupo_136512" data-name="Grupo 136512" transform="translate(0.594 1.461)">
              <g id="Grupo_136509" data-name="Grupo 136509" transform="translate(1.054)">
                <path id="Trazado_195299" data-name="Trazado 195299" d="M1441.8,1423.009l30.057,3.7-2.974,13.62-27.5-3.384Z" transform="translate(-1441.386 -1423.009)" fill="#a6bdff"/>
              </g>
              <g id="Grupo_136510" data-name="Grupo 136510" transform="translate(0 38.519)">
                <path id="Trazado_195300" data-name="Trazado 195300" d="M1459.5,1543.536a3.328,3.328,0,0,1-3.659,2.594l-14.469-1.78a3.33,3.33,0,0,1-2.921-3.4l.316-10.566,22.989,2.829Z" transform="translate(-1438.449 -1530.379)" fill="#a6bdff"/>
              </g>
              <g id="Grupo_136511" data-name="Grupo 136511" transform="translate(0.318 13.935)">
                <path id="Trazado_195301" data-name="Trazado 195301" d="M1467.57,1465.236l-5.247,24.029-22.989-2.829.736-24.584Z" transform="translate(-1439.335 -1461.851)" fill="#fff"/>
              </g>
            </g>
            <g id="Grupo_136513" data-name="Grupo 136513">
              <path id="Trazado_195302" data-name="Trazado 195302" d="M1437.695,1425.189l31.3,3.852a1.028,1.028,0,0,0,1.149-1.108l-.3-3.483a2.356,2.356,0,0,0-2.059-2.138l-27.288-3.358a2.356,2.356,0,0,0-2.516,1.575l-1.134,3.307A1.028,1.028,0,0,0,1437.695,1425.189Z" transform="translate(-1436.792 -1418.937)" fill="#5c49d8"/>
            </g>
          </g>
          <g id="Grupo_136515" data-name="Grupo 136515" transform="translate(266.188 181.251)">
            <path id="Trazado_195303" data-name="Trazado 195303" d="M1376.377,1478.1l13.674-9.83,11.744-.968,10.458,1.675a1.221,1.221,0,0,1,.977,1.552h0a3.644,3.644,0,0,1-3.313,2.605l-7.571.377-11.408,7.15-13.622,7.316Z" transform="translate(-1376.377 -1467.298)" fill="#fcc5b6"/>
          </g>
          <g id="Grupo_136516" data-name="Grupo 136516" transform="translate(178.786 246.496)">
            <path id="Trazado_195304" data-name="Trazado 195304" d="M1146.54,1672.8a.628.628,0,0,1-.456-.2,57.928,57.928,0,0,1-13.306-22.623.63.63,0,0,1,1.2-.375A56.668,56.668,0,0,0,1147,1671.735a.63.63,0,0,1-.456,1.064Z" transform="translate(-1132.749 -1649.163)" fill="#12263f"/>
          </g>
          <g id="Grupo_136517" data-name="Grupo 136517" transform="translate(89.928 252.997)">
            <path id="Trazado_195305" data-name="Trazado 195305" d="M885.691,1694.13a.63.63,0,0,1-.427-1.093,75.956,75.956,0,0,0,18.019-25.374.63.63,0,1,1,1.155.5,77.22,77.22,0,0,1-18.32,25.8A.626.626,0,0,1,885.691,1694.13Z" transform="translate(-885.061 -1667.284)" fill="#12263f"/>
          </g>
          <g id="Grupo_136518" data-name="Grupo 136518" transform="translate(121 13.679)">
            <path id="Trazado_195306" data-name="Trazado 195306" d="M1021.233,1009.533a133.057,133.057,0,0,1,6.952,46.169c-.144,5.234-.649,10.642-3.182,15.226-5.078,9.191-17.647,12.508-27.525,8.948s-17.007-12.637-20.545-22.523c-4.571-12.771-7.836-26.666-2.5-39.136a29.891,29.891,0,0,1,22.14-17.392C1006.229,999.213,1018.1,1000.261,1021.233,1009.533Z" transform="translate(-971.673 -1000.201)" fill="#fcc5b6"/>
          </g>
          <g id="Grupo_136519" data-name="Grupo 136519" transform="translate(145.036 55.331)">
            <path id="Trazado_195307" data-name="Trazado 195307" d="M1041.082,1122.2h0a1.669,1.669,0,0,1-1.932-1.357l-.452-2.583a1.669,1.669,0,0,1,1.356-1.932h0a1.669,1.669,0,0,1,1.932,1.356l.452,2.583A1.67,1.67,0,0,1,1041.082,1122.2Z" transform="translate(-1038.672 -1116.304)" fill="#382a73"/>
          </g>
          <g id="Grupo_136520" data-name="Grupo 136520" transform="translate(166.923 51.309)">
            <path id="Trazado_195308" data-name="Trazado 195308" d="M1102.091,1110.99h0a1.669,1.669,0,0,1-1.932-1.356l-.452-2.584a1.668,1.668,0,0,1,1.356-1.932h0a1.669,1.669,0,0,1,1.932,1.356l.452,2.583A1.669,1.669,0,0,1,1102.091,1110.99Z" transform="translate(-1099.681 -1105.093)" fill="#382a73"/>
          </g>
          <g id="Grupo_136521" data-name="Grupo 136521" transform="translate(157.469 48.978)">
            <path id="Trazado_195309" data-name="Trazado 195309" d="M1077.845,1116.406a.611.611,0,0,1-.319-1.133,9.292,9.292,0,0,0,2.561-2,2.713,2.713,0,0,0,.549-2.64,4.487,4.487,0,0,0-1.846-1.727c-.183-.119-.364-.237-.54-.358a11.506,11.506,0,0,1-4.922-9.341.612.612,0,0,1,.61-.612h0a.611.611,0,0,1,.611.611,10.267,10.267,0,0,0,4.392,8.335c.167.115.34.228.514.341a5.518,5.518,0,0,1,2.3,2.27,3.925,3.925,0,0,1-.711,3.877,10.357,10.357,0,0,1-2.885,2.287A.609.609,0,0,1,1077.845,1116.406Z" transform="translate(-1073.328 -1098.595)" fill="#382a73"/>
          </g>
          <g id="Grupo_136522" data-name="Grupo 136522" transform="translate(159.347 42.097)">
            <path id="Trazado_195310" data-name="Trazado 195310" d="M1079.176,1083.723a.611.611,0,0,1-.324-1.13,21.08,21.08,0,0,1,12.553-3.127.611.611,0,1,1-.086,1.219,19.869,19.869,0,0,0-11.82,2.945A.607.607,0,0,1,1079.176,1083.723Z" transform="translate(-1078.564 -1079.416)" fill="#382a73"/>
          </g>
          <g id="Grupo_136523" data-name="Grupo 136523" transform="translate(135.64 47.699)">
            <path id="Trazado_195311" data-name="Trazado 195311" d="M1013.093,1098.722a.611.611,0,0,1-.256-1.167,27.562,27.562,0,0,1,13.352-2.463.611.611,0,0,1-.082,1.22,26.33,26.33,0,0,0-12.758,2.354A.606.606,0,0,1,1013.093,1098.722Z" transform="translate(-1012.481 -1095.031)" fill="#382a73"/>
          </g>
          <g id="Grupo_136524" data-name="Grupo 136524" transform="translate(147.936 72.555)">
            <path id="Trazado_195312" data-name="Trazado 195312" d="M1056,1168.278a15.368,15.368,0,0,1-8.99-2.859.611.611,0,1,1,.719-.989,14.209,14.209,0,0,0,13.566,1.586.611.611,0,0,1,.471,1.128A14.981,14.981,0,0,1,1056,1168.278Z" transform="translate(-1046.756 -1164.314)" fill="#382a73"/>
          </g>
          <g id="Grupo_136525" data-name="Grupo 136525" transform="translate(168.275 49.936)">
            <path id="Trazado_195313" data-name="Trazado 195313" d="M1104.059,1105.026a.611.611,0,0,1-.131-1.208,3.963,3.963,0,0,0,2.7-2.193.611.611,0,1,1,1.113.5,5.205,5.205,0,0,1-3.552,2.882A.6.6,0,0,1,1104.059,1105.026Z" transform="translate(-1103.448 -1101.265)" fill="#382a73"/>
          </g>
          <g id="Grupo_136526" data-name="Grupo 136526" transform="translate(126.665 69.264)">
            <path id="Trazado_195314" data-name="Trazado 195314" d="M988.281,1155.141c1.694,9.49.939,21.535-.632,31.935a16.185,16.185,0,0,0,8.942,17.047l.165.078a16.44,16.44,0,0,0,8.54,1.455,9.459,9.459,0,0,0,8.682-8.718c.837-10.746,1.367-20.26.352-30.36C1006.157,1158.983,999.435,1155.44,988.281,1155.141Z" transform="translate(-987.464 -1155.141)" fill="#fcc5b6"/>
          </g>
          <g id="Grupo_136527" data-name="Grupo 136527" transform="translate(141.216 55.814)">
            <path id="Trazado_195315" data-name="Trazado 195315" d="M1031.5,1119.912a5.064,5.064,0,0,1-3.263-1.185.611.611,0,0,1,.791-.932,3.883,3.883,0,0,0,3.536.742.611.611,0,0,1,.349,1.172A4.945,4.945,0,0,1,1031.5,1119.912Z" transform="translate(-1028.024 -1117.65)" fill="#382a73"/>
          </g>
          <g id="Grupo_136528" data-name="Grupo 136528" transform="translate(127.976 75.859)">
            <path id="Trazado_195316" data-name="Trazado 195316" d="M1017.93,1193.788l-.058,0a33.534,33.534,0,0,1-26.7-19.4.611.611,0,1,1,1.118-.494,32.275,32.275,0,0,0,25.7,18.68.611.611,0,0,1-.056,1.22Z" transform="translate(-991.118 -1173.523)" fill="#382a73"/>
          </g>
          <g id="Grupo_136529" data-name="Grupo 136529" transform="translate(114.631 8.216)">
            <path id="Trazado_195317" data-name="Trazado 195317" d="M991.089,990.348a58.3,58.3,0,0,1-9.618,22.436c-4.786,6.971-12.249,14.658-20.579,16.109-2.791.486-5.379-2.781-6.172-5.5-2.034-6.969.1-14.494,3.254-21.033,2.6-5.392,6.03-10.579,10.973-13.956s11.633-4.645,17.022-2.037a3.249,3.249,0,0,1,1.769,1.6C988.021,988.725,991.9,990.35,991.089,990.348Z" transform="translate(-953.921 -984.974)" fill="#12263f"/>
          </g>
          <g id="Grupo_136530" data-name="Grupo 136530" transform="translate(144.694 6.168)">
            <path id="Trazado_195318" data-name="Trazado 195318" d="M1037.719,990.437c2.454,7.476,4.231,10.278,10.774,14.648a38,38,0,0,0,19.691,6.2c1.3-6.888,2.344-12.559-.735-18.854s-8.842-11.4-15.679-12.943S1041.929,984.834,1037.719,990.437Z" transform="translate(-1037.719 -979.265)" fill="#12263f"/>
          </g>
          <g id="Grupo_136531" data-name="Grupo 136531" transform="translate(113.086 51.674)">
            <path id="Trazado_195319" data-name="Trazado 195319" d="M954.343,1126.982c2.137,1.851,5.169,3.031,7.815,2.034,3.038-1.143,4.477-4.708,4.569-7.953.156-5.472-5.845-18.937-13-13.81C947.359,1111.818,949.029,1122.377,954.343,1126.982Z" transform="translate(-949.613 -1106.111)" fill="#fcc5b6"/>
          </g>
          <g id="Grupo_136532" data-name="Grupo 136532" transform="translate(117.142 56.717)">
            <path id="Trazado_195320" data-name="Trazado 195320" d="M961.53,1130.45a.611.611,0,0,1-.611-.607,14.774,14.774,0,0,1,3.4-9.458.611.611,0,0,1,.937.786,13.53,13.53,0,0,0-3.116,8.663.612.612,0,0,1-.607.616Z" transform="translate(-960.918 -1120.167)" fill="#382a73"/>
          </g>
        </g>
        <g id="Grupo_136574" data-name="Grupo 136574" transform="translate(867.767 2628.921)">
          <g id="Grupo_136534" data-name="Grupo 136534" transform="translate(0 108.693)">
            <path id="Trazado_195321" data-name="Trazado 195321" d="M1571.783,1272.763l-22.366-23.815-15.271-13.807h0a12.3,12.3,0,0,0,2.444,10.988l5.579,6.787h0c-4.988,3.258-9.426,3.985-17.547,1.037l-7.891-7.674-4.466-3.464c-2.6-1.374-3.4-.02-4.428,2.123l-2.615-.23a2.944,2.944,0,0,0-1.117,4.018l1.865,3.574a14.264,14.264,0,0,0,3.01,3.583l11.02,10.506c2.5,2.176,8.809,6.571,11.853,8.664l29.12,13.093Z" transform="translate(-1503.719 -1235.141)" fill="#fcc5b6"/>
          </g>
          <g id="Grupo_136535" data-name="Grupo 136535" transform="translate(51.418 112.972)">
            <path id="Trazado_195322" data-name="Trazado 195322" d="M1749.923,1247.068l-2.609.031a27.9,27.9,0,0,0-24.38,14.433l-30.227,56.354-14.309-24.218-8.634-6.177-6.751-10.072h0c-2.224,6.934-8.3,13.584-15.14,16.073l-.829.518,2.074,5.081,2.281,11.3,20.167,51.2a22.464,22.464,0,0,0,20.776,13.232h0a22.166,22.166,0,0,0,17.014-7.944l49.722-60.387Z" transform="translate(-1647.044 -1247.068)" fill="#5c49d8"/>
          </g>
          <g id="Grupo_136536" data-name="Grupo 136536" transform="translate(97.658 184.545)">
            <path id="Trazado_195323" data-name="Trazado 195323" d="M1785.042,1462.039a.6.6,0,0,1-.516-.293l-8.508-14.267a.6.6,0,0,1,1.031-.615l8.508,14.266a.6.6,0,0,1-.515.907Z" transform="translate(-1775.934 -1446.572)" fill="#12263f"/>
          </g>
          <g id="Grupo_136542" data-name="Grupo 136542" transform="translate(137.612 265.551)">
            <g id="Grupo_136537" data-name="Grupo 136537">
              <path id="Trazado_195324" data-name="Trazado 195324" d="M2001.308,1672.907l5.352,93.131-58.34,3.747-2.393-13.459a2.569,2.569,0,0,0-4.991-.289l-3.488,13.593-50.146-.38,12.846-96.877Z" transform="translate(-1887.303 -1672.372)" fill="#727997"/>
            </g>
            <g id="Grupo_136538" data-name="Grupo 136538" transform="translate(89.95 29.508)">
              <path id="Trazado_195325" data-name="Trazado 195325" d="M2158.192,1771.064a.646.646,0,0,1-.112-.01,28.07,28.07,0,0,1-19.991-15.579.6.6,0,1,1,1.09-.5,26.849,26.849,0,0,0,19.123,14.9.6.6,0,0,1-.109,1.19Z" transform="translate(-2138.033 -1754.623)" fill="#12263f"/>
            </g>
            <g id="Grupo_136539" data-name="Grupo 136539" transform="translate(7.85 27.766)">
              <path id="Trazado_195326" data-name="Trazado 195326" d="M1909.784,1766.342a.6.6,0,0,1-.18-1.173,26.1,26.1,0,0,0,16.24-15.023.6.6,0,0,1,1.114.447,27.309,27.309,0,0,1-16.994,15.721A.61.61,0,0,1,1909.784,1766.342Z" transform="translate(-1909.185 -1749.769)" fill="#12263f"/>
            </g>
            <g id="Grupo_136540" data-name="Grupo 136540" transform="translate(57.931 33.122)">
              <path id="Trazado_195327" data-name="Trazado 195327" d="M2051.638,1810.864a.6.6,0,0,1-.591-.5,168.945,168.945,0,0,1-1.351-45.125.591.591,0,0,1,.659-.534.6.6,0,0,1,.534.659,167.742,167.742,0,0,0,1.341,44.8.6.6,0,0,1-.494.69A.632.632,0,0,1,2051.638,1810.864Z" transform="translate(-2048.781 -1764.697)" fill="#12263f"/>
            </g>
            <g id="Grupo_136541" data-name="Grupo 136541" transform="translate(46.129 33.477)">
              <path id="Trazado_195328" data-name="Trazado 195328" d="M2020.639,1811.126a.6.6,0,0,1-.589-.49,244.213,244.213,0,0,1-4.166-44.348.6.6,0,0,1,.6-.6h0a.6.6,0,0,1,.6.6,243.007,243.007,0,0,0,4.145,44.13.6.6,0,0,1-.479.7A.57.57,0,0,1,2020.639,1811.126Z" transform="translate(-2015.884 -1765.686)" fill="#12263f"/>
            </g>
          </g>
          <g id="Grupo_136573" data-name="Grupo 136573" transform="translate(100.149)">
            <g id="Grupo_136543" data-name="Grupo 136543" transform="translate(26.855 97.487)">
              <path id="Trazado_195329" data-name="Trazado 195329" d="M2031.54,1315.667l-30.778-80.238a42.139,42.139,0,0,0-28.01-25.444l-21.705-6.08-42.693,4.294-21.229,4.5a44.092,44.092,0,0,0-29.1,21.109l-.293.509c1.913,7.9,4.137,15.577,5.269,23.693,1.275,9.148,2.772,18.24,3.7,27.436a184.5,184.5,0,0,1,1.05,22.317c.019,3.767,1.151,13.677.778,17.421l.179,38.216a21.349,21.349,0,0,0,6.174,14.535l4.166,4.206-2.58,9.614,29.436,4.651a131.106,131.106,0,0,0,36.333.642l43.4-5.293-.54-6.977,2.5-1.935a15.819,15.819,0,0,0,6.009-14.625l-.947-7.055h0C2019.142,1366.513,2041.161,1340.75,2031.54,1315.667Z" transform="translate(-1857.736 -1203.905)" fill="#5c49d8"/>
            </g>
            <g id="Grupo_136548" data-name="Grupo 136548" transform="translate(22.751 183.49)" opacity="0.49">
              <g id="Grupo_136544" data-name="Grupo 136544" transform="translate(0 0.883)">
                <path id="Trazado_195330" data-name="Trazado 195330" d="M1846.444,1446.094a.5.5,0,0,0-.018.18C1846.246,1446.213,1846.253,1446.137,1846.444,1446.094Z" transform="translate(-1846.296 -1446.094)" fill="#5c49d8"/>
              </g>
              <g id="Grupo_136545" data-name="Grupo 136545" transform="translate(0 0.883)" opacity="0.38">
                <path id="Trazado_195331" data-name="Trazado 195331" d="M1846.444,1446.094a.5.5,0,0,0-.018.18C1846.246,1446.213,1846.253,1446.137,1846.444,1446.094Z" transform="translate(-1846.296 -1446.094)" fill="#382a73"/>
              </g>
              <g id="Grupo_136546" data-name="Grupo 136546" transform="translate(0.149)">
                <path id="Trazado_195332" data-name="Trazado 195332" d="M1899.832,1483.87c-3.352-5.781-5.961-12.167-10.75-16.829-8.122-7.908-20.953-9.365-29.075-17.272-8.014-5.006-12.454-5.442-13.3-5.253.54-2.412,19.029.937,21.7.448,2.733-.5,5.508.4,8.142,1.279,27.4,9.192,54.957,18.449,80.424,32.119,10.867,5.833,21.494,12.605,29.438,22.04a51.547,51.547,0,0,1,8.9,15.09,35.061,35.061,0,0,1-9.72-.606h0l.947,7.056a15.817,15.817,0,0,1-3.25,11.882c-14.2-3.61-28.274-7.709-41.5-13.946C1924.86,1511.893,1909.219,1500.06,1899.832,1483.87Z" transform="translate(-1846.71 -1443.633)" fill="#5c49d8"/>
              </g>
              <g id="Grupo_136547" data-name="Grupo 136547" transform="translate(0.149)" opacity="0.38">
                <path id="Trazado_195333" data-name="Trazado 195333" d="M1899.832,1483.87c-3.352-5.781-5.961-12.167-10.75-16.829-8.122-7.908-20.953-9.365-29.075-17.272-8.014-5.006-12.454-5.442-13.3-5.253.54-2.412,19.029.937,21.7.448,2.733-.5,5.508.4,8.142,1.279,27.4,9.192,54.957,18.449,80.424,32.119,10.867,5.833,21.494,12.605,29.438,22.04a51.547,51.547,0,0,1,8.9,15.09,35.061,35.061,0,0,1-9.72-.606h0l.947,7.056a15.817,15.817,0,0,1-3.25,11.882c-14.2-3.61-28.274-7.709-41.5-13.946C1924.86,1511.893,1909.219,1500.06,1899.832,1483.87Z" transform="translate(-1846.71 -1443.633)" fill="#382a73"/>
              </g>
            </g>
            <g id="Grupo_136549" data-name="Grupo 136549" transform="translate(0 135.756)">
              <path id="Trazado_195334" data-name="Trazado 195334" d="M1810.256,1363.565h24.081a1.01,1.01,0,0,0,.975-1.589l-24.661-49.809a3.114,3.114,0,0,0-2.55-1.59h-24.081a1.01,1.01,0,0,0-.975,1.59l24.661,49.809A3.113,3.113,0,0,0,1810.256,1363.565Z" transform="translate(-1782.878 -1310.577)" fill="#b13e8d"/>
            </g>
            <g id="Grupo_136550" data-name="Grupo 136550" transform="translate(57.376 77.758)">
              <path id="Trazado_195335" data-name="Trazado 195335" d="M1982.123,1150.059a29.106,29.106,0,0,1,27.372,6.213,14.4,14.4,0,0,1,4.748,7.334c.621,2.894-.371,6.275-2.914,7.789a35.42,35.42,0,0,1-18.75,19.307c-8.43,3.627-17.707,4.779-26.869,5.318-6.294.37-13.232.26-18.033-3.828-5.791-4.93-6.137-14.253-2.5-20.93s10.329-11.128,17.158-14.474C1969.254,1153.4,1974.747,1152.266,1982.123,1150.059Z" transform="translate(-1942.812 -1148.912)" fill="#5c49d8"/>
            </g>
            <g id="Grupo_136551" data-name="Grupo 136551" transform="translate(67.261 64.003)">
              <path id="Trazado_195336" data-name="Trazado 195336" d="M1970.365,1131.518c1.5,8.466,3.157,16.567,5.169,24.708a13.774,13.774,0,0,0,17.484,9.894,35.738,35.738,0,0,0,6.007-2.544,15.311,15.311,0,0,0,7.488-17.314q-4.555-17.7-7.886-35.691C1986.4,1112.212,1975.056,1120.112,1970.365,1131.518Z" transform="translate(-1970.365 -1110.57)" fill="#fcc5b6"/>
            </g>
            <g id="Grupo_136552" data-name="Grupo 136552" transform="translate(52.715 10.277)">
              <path id="Trazado_195337" data-name="Trazado 195337" d="M1930.118,991.008q-.14,15.091-.281,30.182a75.3,75.3,0,0,0,.573,12.449,25.2,25.2,0,0,0,4.554,11.478,20.954,20.954,0,0,0,18.063,7.7,25.665,25.665,0,0,0,17.5-9.521,33.254,33.254,0,0,0,7.067-18.864c4.436.532,6.8-.019,10.166-2.962a13.473,13.473,0,0,0,4.517-12.015c-.722-4.409-4.582-9.438-9.216-7.742,1.814-7.532,4.34-17.828,1.156-24.891s-9.367-12.885-16.847-14.9a40.894,40.894,0,0,0-9.961-1.093c-3.672-.063-7.435.015-10.872,1.311-5.1,1.922-8.894,6.328-11.512,11.1C1931.752,979.206,1930.182,984.207,1930.118,991.008Z" transform="translate(-1929.819 -960.813)" fill="#fcc5b6"/>
            </g>
            <g id="Grupo_136553" data-name="Grupo 136553" transform="translate(78.699 61.584)">
              <path id="Trazado_195338" data-name="Trazado 195338" d="M2003.5,1108.886h0a1.265,1.265,0,0,0,1.276-1.255l.021-2.53a1.265,1.265,0,0,0-1.255-1.276h0a1.266,1.266,0,0,0-1.276,1.255l-.021,2.53A1.265,1.265,0,0,0,2003.5,1108.886Z" transform="translate(-2002.248 -1103.826)" fill="#2c241c"/>
            </g>
            <g id="Grupo_136554" data-name="Grupo 136554" transform="translate(58.61 60.409)">
              <path id="Trazado_195339" data-name="Trazado 195339" d="M1947.505,1105.613h0a1.265,1.265,0,0,0,1.276-1.254l.021-2.531a1.265,1.265,0,0,0-1.255-1.276h0a1.266,1.266,0,0,0-1.276,1.255l-.021,2.53A1.265,1.265,0,0,0,1947.505,1105.613Z" transform="translate(-1946.251 -1100.552)" fill="#2c241c"/>
            </g>
            <g id="Grupo_136555" data-name="Grupo 136555" transform="translate(62.082 57.529)">
              <path id="Trazado_195340" data-name="Trazado 195340" d="M1961.4,1112.265a.6.6,0,0,1-.283-.072,15.241,15.241,0,0,1-3.276-2.141,5.543,5.543,0,0,1-1.9-3.662,8.017,8.017,0,0,1,1.371-4.256c.092-.169.184-.338.273-.506a23.51,23.51,0,0,0,2.606-8.566.6.6,0,0,1,1.194.122,24.733,24.733,0,0,1-2.741,9.008q-.137.257-.279.516a7.153,7.153,0,0,0-1.226,3.612,4.361,4.361,0,0,0,1.52,2.853,14.376,14.376,0,0,0,3.027,1.963.6.6,0,0,1-.284,1.129Z" transform="translate(-1955.928 -1092.523)" fill="#12263f"/>
            </g>
            <g id="Grupo_136556" data-name="Grupo 136556" transform="translate(53.817 51.972)">
              <path id="Trazado_195341" data-name="Trazado 195341" d="M1936.193,1081.488c-1.125.038-2.465-.031-3.061-.986a2.1,2.1,0,0,1,.537-2.563,4.243,4.243,0,0,1,2.645-.893,17.237,17.237,0,0,1,4.073.438c1.322.254,4.771,2,2.406,3.421C1941.144,1081.891,1938.026,1081.425,1936.193,1081.488Z" transform="translate(-1932.89 -1077.035)" fill="#12263f"/>
            </g>
            <g id="Grupo_136557" data-name="Grupo 136557" transform="translate(73.497 52.315)">
              <path id="Trazado_195342" data-name="Trazado 195342" d="M1989.511,1081.484c-.869-.26-1.884-.8-1.754-1.741s1.287-1.387,2.22-1.533a17.324,17.324,0,0,1,6.513.19c1.333.306,5.412,1.314,5.306,3.145C2001.621,1084.592,1991,1081.93,1989.511,1081.484Z" transform="translate(-1987.746 -1077.99)" fill="#12263f"/>
            </g>
            <g id="Grupo_136558" data-name="Grupo 136558" transform="translate(69.389 77.674)">
              <path id="Trazado_195343" data-name="Trazado 195343" d="M1978.144,1155.782a10.389,10.389,0,0,1-1.325-.084.6.6,0,0,1,.153-1.19,9.34,9.34,0,0,0,9.726-5.473.6.6,0,1,1,1.1.487,10.535,10.535,0,0,1-9.651,6.261Z" transform="translate(-1976.295 -1148.677)" fill="#12263f"/>
            </g>
            <g id="Grupo_136559" data-name="Grupo 136559" transform="translate(69.518 81.998)">
              <path id="Trazado_195344" data-name="Trazado 195344" d="M1978.332,1181.326q-.55,0-1.1-.021a.6.6,0,1,1,.045-1.2,28.593,28.593,0,0,0,28.049-18.979.6.6,0,0,1,1.129.408,29.793,29.793,0,0,1-28.124,19.792Z" transform="translate(-1976.655 -1160.73)" fill="#12263f"/>
            </g>
            <g id="Grupo_136560" data-name="Grupo 136560" transform="translate(42.658)">
              <path id="Trazado_195345" data-name="Trazado 195345" d="M1966.9,984.594c-4.213.331-6.2.957-7.383,5.139-1.415.184-2.657.618-4.072.8-.76-10.73-2.95-20.247-11.466-26.286-5.664,1.917-13.52,2.248-19.333,3.513-4.173.908-8.48,1.647-12.616.886s-8.119-3.29-9.578-7.292c-1.1-3-.641-6.106-.036-9.318a12.89,12.89,0,0,1,4.87-8.264c2.675-1.863,6.52-2.07,8.851.043.436-4.9,4.389-9.179,8.948-10.894a12.194,12.194,0,0,1,13.13,3.091,18.162,18.162,0,0,1,15.527-2.742,17.336,17.336,0,0,1,11.32,10.6,17.687,17.687,0,0,1,11.183,10.422c3.417,2.258,5.543,7.787,3.865,11.724-.586,1.375-1.5,2.658-1.674,4.132-.222,1.918.864,3.661,1.267,5.522.677,3.13-.6,6.4-1.849,9.417-1.428,3.449-4.244,5.579-6.373,8.649s-2.086,3.08-5.571,4.2C1969.386,991.732,1963.154,990.643,1966.9,984.594Z" transform="translate(-1901.785 -932.165)" fill="#12263f"/>
            </g>
            <g id="Grupo_136561" data-name="Grupo 136561" transform="translate(101.495 51.66)">
              <path id="Trazado_195346" data-name="Trazado 195346" d="M2074.794,1077.577a6.256,6.256,0,0,0-3.851-1.4c-1.811.126-4.207,1.4-4.889,3.083s.185,3.765.086,5.578c-.157,2.871-.45,5.8.306,8.578a5.85,5.85,0,0,0,.923,2.031,2.954,2.954,0,0,0,1.846,1.176,3.753,3.753,0,0,0,2.251-.525,11.74,11.74,0,0,0,4.1-3.791,26.246,26.246,0,0,0,2.576-5c.433-1.051.817-2.117,1.217-3.18a2.819,2.819,0,0,0-.56-2.4A12.944,12.944,0,0,0,2074.794,1077.577Z" transform="translate(-2065.791 -1076.165)" fill="#fcc5b6"/>
            </g>
            <g id="Grupo_136562" data-name="Grupo 136562" transform="translate(104.739 56.853)">
              <path id="Trazado_195347" data-name="Trazado 195347" d="M2079.495,1098.858a.6.6,0,0,1-.6-.543,9.256,9.256,0,0,0-3.813-6.586.6.6,0,0,1,.694-.979,10.47,10.47,0,0,1,4.313,7.451.6.6,0,0,1-.541.654Z" transform="translate(-2074.832 -1090.639)" fill="#12263f"/>
            </g>
            <g id="Grupo_136563" data-name="Grupo 136563" transform="translate(116.929 99.43)">
              <path id="Trazado_195348" data-name="Trazado 195348" d="M2109.412,1229.173a.6.6,0,0,1-.281-1.131,13.648,13.648,0,0,0,6.321-7.2,28.085,28.085,0,0,0,1.189-5.09,25.012,25.012,0,0,1,1.563-6.073.6.6,0,0,1,1.1.488,23.747,23.747,0,0,0-1.477,5.785,28.947,28.947,0,0,1-1.248,5.309,14.862,14.862,0,0,1-6.884,7.846A.6.6,0,0,1,2109.412,1229.173Z" transform="translate(-2108.812 -1209.32)" fill="#12263f"/>
            </g>
            <g id="Grupo_136564" data-name="Grupo 136564" transform="translate(57.442 106.93)">
              <path id="Trazado_195349" data-name="Trazado 195349" d="M1945.012,1236.393a.6.6,0,0,1-.576-.436l-1.419-4.966a.6.6,0,0,1,1.154-.329l1.419,4.966a.6.6,0,0,1-.577.765Z" transform="translate(-1942.994 -1230.227)" fill="#12263f"/>
            </g>
            <g id="Grupo_136565" data-name="Grupo 136565" transform="translate(61.16 115.532)">
              <path id="Trazado_195350" data-name="Trazado 195350" d="M1965.17,1265.039a.6.6,0,0,1-.3-.082,41.484,41.484,0,0,1-11.377-9.775.6.6,0,0,1,.934-.755,40.265,40.265,0,0,0,11.05,9.494.6.6,0,0,1-.3,1.118Z" transform="translate(-1953.358 -1254.204)" fill="#12263f"/>
            </g>
            <g id="Grupo_136566" data-name="Grupo 136566" transform="translate(134.81 156.834)">
              <path id="Trazado_195351" data-name="Trazado 195351" d="M2173.17,1411.743a.6.6,0,0,1-.567-.4c-4.615-13.426-7-20.544-10.6-31.319-.99-2.96-2.071-6.191-3.315-9.9a.6.6,0,0,1,1.138-.381c1.244,3.708,2.325,6.939,3.315,9.9,3.6,10.772,5.986,17.888,10.6,31.309a.6.6,0,0,1-.372.763A.609.609,0,0,1,2173.17,1411.743Z" transform="translate(-2158.654 -1369.33)" fill="#12263f"/>
            </g>
            <g id="Grupo_136567" data-name="Grupo 136567" transform="translate(86.767 176.831)">
              <path id="Trazado_195352" data-name="Trazado 195352" d="M2112.76,1457.889a.6.6,0,0,1-.222-.043c-22.368-8.949-44.968-18.206-67.173-27.516-6.517-2.732-14.041-3.469-20.087-4.062a.6.6,0,0,1,.117-1.194c6.126.6,13.75,1.347,20.434,4.149,22.2,9.306,44.793,18.562,67.155,27.508a.6.6,0,0,1-.223,1.157Z" transform="translate(-2024.737 -1425.071)" fill="#12263f"/>
            </g>
            <g id="Grupo_136568" data-name="Grupo 136568" transform="translate(36.194 188.403)">
              <path id="Trazado_195353" data-name="Trazado 195353" d="M1885.45,1485.968a.6.6,0,0,1-.6-.6c-.06-9.1-.424-18.32-1.082-27.4a.6.6,0,1,1,1.2-.087c.66,9.106,1.025,18.352,1.086,27.48a.6.6,0,0,1-.6.6Z" transform="translate(-1883.766 -1457.327)" fill="#12263f"/>
            </g>
            <g id="Grupo_136569" data-name="Grupo 136569" transform="translate(49.091 275.283)">
              <path id="Trazado_195354" data-name="Trazado 195354" d="M1978.382,1704.088a499.068,499.068,0,0,1-58.135-3.393.6.6,0,0,1,.14-1.192,498.342,498.342,0,0,0,102.186,1.42.607.607,0,0,1,.651.544.6.6,0,0,1-.544.651C2007.97,1703.432,1993.177,1704.088,1978.382,1704.088Z" transform="translate(-1919.717 -1699.499)" fill="#12263f"/>
            </g>
            <g id="Grupo_136570" data-name="Grupo 136570" transform="translate(54.835 192.066)">
              <path id="Trazado_195355" data-name="Trazado 195355" d="M2026.706,1523.822l-34.655-13.195c-10.9-4.148-22.147-8.524-30.344-16.814-4.326-4.375-7.6-9.66-11.477-14.443s-8.6-9.221-14.5-10.954a160.634,160.634,0,0,1,76.373,10.605c9.325,3.741,18.373,8.414,26.092,14.846s14.08,14.727,17.18,24.285c1,3.09,1.566,6.764.387,9.887-1.236,3.273-3.146,3.234-6.26,2.732C2041.626,1529.5,2034.125,1526.646,2026.706,1523.822Z" transform="translate(-1935.728 -1467.536)" fill="#5c49d8"/>
            </g>
            <g id="Grupo_136571" data-name="Grupo 136571" transform="translate(66.96 201.616)">
              <path id="Trazado_195356" data-name="Trazado 195356" d="M2062.356,1546.7a.6.6,0,0,1-.211-.038l-54.567-20.573c-10.356-3.9-17.693-8.345-23.088-13.976-3.8-3.965-7.078-7.842-10.551-11.947-1.369-1.618-2.784-3.292-4.268-5.012a.6.6,0,0,1,.909-.783c1.487,1.725,2.9,3.4,4.275,5.02,3.46,4.091,6.729,7.954,10.5,11.893,5.266,5.5,12.461,9.844,22.644,13.683l54.567,20.573a.6.6,0,0,1-.212,1.162Z" transform="translate(-1969.526 -1494.158)" fill="#12263f"/>
            </g>
            <g id="Grupo_136572" data-name="Grupo 136572" transform="translate(8.261 150.065)">
              <path id="Trazado_195357" data-name="Trazado 195357" d="M1877.6,1378.874l-13.23-7.4-8.042-10.722a5.641,5.641,0,0,0-4.244-2.25l-9.124-2.55-8.418-5.317a1.142,1.142,0,0,0-1.751.965v1.067a7.084,7.084,0,0,0,2.508,5.407l4.45,3.765,5.352,3.747-8.564.535-12.845-1.071-7.493-2.141-7.538-4.878a1.594,1.594,0,0,0-2.32.688l-.435.973,0,.032a5.445,5.445,0,0,0,2.181,3.842l7.574,5.766,10.7,2.676-.535,1.606-9.1-2.141-2.907-1.744a1.373,1.373,0,0,0-2.068,1.359l.693,5.2,4.282,8.028,7.493,5.888,31.579,5.352,9.817,4.153h0c8.866-2.178,15.754-12.479,11.977-20.843Z" transform="translate(-1805.906 -1350.461)" fill="#fcc5b6"/>
            </g>
          </g>
        </g>
      </g>
    </g>
    <g id="Grupo_135761" data-name="Grupo 135761" transform="translate(-6271 -7239.338)">
      <circle id="Elipse_4800" data-name="Elipse 4800" cx="27" cy="27" r="27" transform="translate(736 1281)" fill="#7fc733" opacity="0.5"/>
      <circle id="Elipse_4801" data-name="Elipse 4801" cx="15" cy="15" r="15" transform="translate(748 1293)" fill="#7fc733"/>
    </g>
    <g id="Grupo_135761-2" data-name="Grupo 135761" transform="translate(-6471 -7172)">
      <circle id="Elipse_4800-2" data-name="Elipse 4800" cx="27" cy="27" r="27" transform="translate(736 1281)" fill="#7fc733" opacity="0.5"/>
      <circle id="Elipse_4801-2" data-name="Elipse 4801" cx="15" cy="15" r="15" transform="translate(748 1293)" fill="#7fc733"/>
    </g>
    <g id="Grupo_135761-3" data-name="Grupo 135761" transform="translate(-6354 -7028)">
      <circle id="Elipse_4800-3" data-name="Elipse 4800" cx="27" cy="27" r="27" transform="translate(736 1281)" fill="#7fc733" opacity="0.5"/>
      <circle id="Elipse_4801-3" data-name="Elipse 4801" cx="15" cy="15" r="15" transform="translate(748 1293)" fill="#7fc733"/>
    </g>
    <g id="Grupo_135761-4" data-name="Grupo 135761" transform="translate(-6007 -7055)">
      <circle id="Elipse_4800-4" data-name="Elipse 4800" cx="27" cy="27" r="27" transform="translate(736 1281)" fill="#7fc733" opacity="0.5"/>
      <circle id="Elipse_4801-4" data-name="Elipse 4801" cx="15" cy="15" r="15" transform="translate(748 1293)" fill="#7fc733"/>
    </g>
    <g id="Grupo_135761-5" data-name="Grupo 135761" transform="translate(-6693 -7046)">
      <circle id="Elipse_4800-5" data-name="Elipse 4800" cx="27" cy="27" r="27" transform="translate(736 1281)" fill="#7fc733" opacity="0.5"/>
      <circle id="Elipse_4801-5" data-name="Elipse 4801" cx="15" cy="15" r="15" transform="translate(748 1293)" fill="#7fc733"/>
    </g>
    <g transform="matrix(1, 0, 0, 1, -5996, -5988)" filter="url(#Rectángulo_43809)">
      <g id="Rectángulo_43809-2" data-name="Rectángulo 43809" transform="translate(455 89)" fill="#fff" stroke="#81c53f" stroke-width="2">
        <rect width="100" height="41" stroke="none"/>
        <rect x="1" y="1" width="98" height="39" fill="none"/>
      </g>
    </g>
    <g transform="matrix(1, 0, 0, 1, -5996, -5988)" filter="url(#Rectángulo_43810)">
      <g id="Rectángulo_43810-2" data-name="Rectángulo 43810" transform="translate(239 156)" fill="#fff" stroke="#81c53f" stroke-width="2">
        <rect width="100" height="41" stroke="none"/>
        <rect x="1" y="1" width="98" height="39" fill="none"/>
      </g>
    </g>
    <g transform="matrix(1, 0, 0, 1, -5996, -5988)" filter="url(#Rectángulo_43811)">
      <g id="Rectángulo_43811-2" data-name="Rectángulo 43811" transform="translate(355 303)" fill="#fff" stroke="#81c53f" stroke-width="2">
        <rect width="100" height="41" stroke="none"/>
        <rect x="1" y="1" width="98" height="39" fill="none"/>
      </g>
    </g>
    <g transform="matrix(1, 0, 0, 1, -5996, -5988)" filter="url(#Rectángulo_43812)">
      <g id="Rectángulo_43812-2" data-name="Rectángulo 43812" transform="translate(16 284)" fill="#fff" stroke="#81c53f" stroke-width="2">
        <rect width="100" height="41" stroke="none"/>
        <rect x="1" y="1" width="98" height="39" fill="none"/>
      </g>
    </g>
    <g transform="matrix(1, 0, 0, 1, -5996, -5988)" filter="url(#Rectángulo_43813)">
      <g id="Rectángulo_43813-2" data-name="Rectángulo 43813" transform="translate(697 274)" fill="#fff" stroke="#81c53f" stroke-width="2">
        <rect width="100" height="41" stroke="none"/>
        <rect x="1" y="1" width="98" height="39" fill="none"/>
      </g>
    </g>
    <g id="Grupo_136613" data-name="Grupo 136613" transform="translate(-6591 -7866)">
      <text id="Mensaje" transform="translate(1065 1977)" fill="#12263f" font-size="16" font-family="Roboto-Bold, Roboto" font-weight="700"><tspan x="0" y="17">Mensaje</tspan></text>
    </g>
    <g id="Grupo_136614" data-name="Grupo 136614" transform="translate(-6801 -7799)">
      <text id="Código" transform="translate(1065 1977)" fill="#12263f" font-size="16" font-family="Roboto-Bold, Roboto" font-weight="700"><tspan x="0" y="17">Código</tspan></text>
    </g>
    <g id="Grupo_136615" data-name="Grupo 136615" transform="translate(-6679 -7652)">
      <text id="Canal" transform="translate(1065 1977)" fill="#12263f" font-size="16" font-family="Roboto-Bold, Roboto" font-weight="700"><tspan x="0" y="17">Canal</tspan></text>
    </g>
    <g id="Grupo_136616" data-name="Grupo 136616" transform="translate(-7030 -7671)">
      <text id="Emisor" transform="translate(1065 1977)" fill="#12263f" font-size="16" font-family="Roboto-Bold, Roboto" font-weight="700"><tspan x="0" y="17">Emisor</tspan></text>
    </g>
    <g id="Grupo_136617" data-name="Grupo 136617" transform="translate(-6350 -7681)">
      <text id="Receptor" transform="translate(1065 1977)" fill="#12263f" font-size="16" font-family="Roboto-Bold, Roboto" font-weight="700"><tspan x="0" y="17">Receptor</tspan></text>
    </g>
  </g>
</svg>
