<svg xmlns="http://www.w3.org/2000/svg" width="83.089" height="83.089" viewBox="0 0 83.089 83.089">
  <g id="Grupo_136699" data-name="Grupo 136699" transform="translate(-415.4 -2897.911)">
    <g id="roles" transform="translate(413.4 2895.911)">
      <path id="Trazado_194448" data-name="Trazado 194448" d="M61.655,54.08a6.924,6.924,0,1,0-9.154,0A11.085,11.085,0,0,0,46,64.157v4.154A1.384,1.384,0,0,0,47.385,69.7H66.772a1.384,1.384,0,0,0,1.385-1.385V64.157A11.085,11.085,0,0,0,61.655,54.08Zm-8.731-5.156a4.154,4.154,0,1,1,4.154,4.154A4.16,4.16,0,0,1,52.924,48.924Zm12.463,18H48.77v-2.77a8.309,8.309,0,1,1,16.618,0Z" transform="translate(16.932 15.393)" fill="#b13e8d"/>
      <path id="Trazado_194449" data-name="Trazado 194449" d="M3.385,69.7H22.772a1.384,1.384,0,0,0,1.385-1.385V64.157a11.085,11.085,0,0,0-6.5-10.077,6.924,6.924,0,1,0-9.154,0A11.085,11.085,0,0,0,2,64.157v4.154A1.384,1.384,0,0,0,3.385,69.7ZM8.924,48.924a4.154,4.154,0,1,1,4.154,4.154A4.16,4.16,0,0,1,8.924,48.924ZM4.77,64.157a8.309,8.309,0,1,1,16.618,0v2.77H4.77Z" transform="translate(0 15.393)" fill="#b13e8d"/>
      <path id="Trazado_194450" data-name="Trazado 194450" d="M24,64.157v4.154A1.384,1.384,0,0,0,25.385,69.7H44.772a1.384,1.384,0,0,0,1.385-1.385V64.157a11.085,11.085,0,0,0-6.5-10.077,6.924,6.924,0,1,0-9.154,0A11.085,11.085,0,0,0,24,64.157Zm6.924-15.233a4.154,4.154,0,1,1,4.154,4.154A4.16,4.16,0,0,1,30.924,48.924Zm4.154,6.924a8.317,8.317,0,0,1,8.309,8.309v2.77H26.77v-2.77A8.317,8.317,0,0,1,35.079,55.848Z" transform="translate(8.466 15.393)" fill="#b13e8d"/>
      <path id="Trazado_194451" data-name="Trazado 194451" d="M35.463,8A12.463,12.463,0,1,0,47.927,20.463,12.478,12.478,0,0,0,35.463,8Zm0,22.157a9.694,9.694,0,1,1,9.694-9.694A9.705,9.705,0,0,1,35.463,30.157Z" transform="translate(8.081 2.309)" fill="#b13e8d"/>
      <path id="Trazado_194452" data-name="Trazado 194452" d="M57.16,28.311a1.384,1.384,0,0,0,1.385-1.385V18.618a1.384,1.384,0,0,0-1.385-1.385L54.873,17.2a17.7,17.7,0,0,0-1.086-2.6L55.4,12.98a1.384,1.384,0,0,0,0-1.958L49.524,5.148a1.383,1.383,0,0,0-1.958,0l-1.642,1.59a17.326,17.326,0,0,0-2.612-1.073V3.385A1.384,1.384,0,0,0,41.927,2H33.618a1.384,1.384,0,0,0-1.385,1.385L32.2,5.671a17.506,17.506,0,0,0-2.606,1.086L27.98,5.146a1.383,1.383,0,0,0-1.958,0l-5.876,5.874a1.384,1.384,0,0,0,0,1.958l1.59,1.644a17.6,17.6,0,0,0-1.072,2.61H18.385A1.384,1.384,0,0,0,17,18.618v8.309a1.384,1.384,0,0,0,1.385,1.385l2.286.037a17.577,17.577,0,0,0,1.086,2.6l-1.612,1.611a1.384,1.384,0,0,0,0,1.958L26.021,40.4a1.383,1.383,0,0,0,1.958,0l1.642-1.59a17.3,17.3,0,0,0,2.61,1.072V42.16a1.384,1.384,0,0,0,1.385,1.385h8.309A1.384,1.384,0,0,0,43.31,42.16l.036-2.286a17.43,17.43,0,0,0,2.6-1.086L47.563,40.4a1.383,1.383,0,0,0,1.958,0L55.4,34.524a1.384,1.384,0,0,0,0-1.958l-1.59-1.645a17.254,17.254,0,0,0,1.072-2.609Zm-4.922-.82a15.282,15.282,0,0,1-.9,2.174,2.788,2.788,0,0,0,.49,3.246l.631.631L48.545,37.46l-.633-.631a2.781,2.781,0,0,0-3.247-.489,14.929,14.929,0,0,1-2.174.9,2.791,2.791,0,0,0-1.948,2.642v.895H35V39.88a2.788,2.788,0,0,0-1.951-2.641,15.243,15.243,0,0,1-2.171-.9,2.777,2.777,0,0,0-3.246.489L27,37.462l-3.916-3.916.631-.631a2.792,2.792,0,0,0,.489-3.247,15.2,15.2,0,0,1-.9-2.173,2.788,2.788,0,0,0-2.642-1.953H19.77V20h.895a2.789,2.789,0,0,0,2.642-1.95,15.349,15.349,0,0,1,.9-2.174,2.786,2.786,0,0,0-.489-3.246L23.085,12,27,8.085l.631.631a2.785,2.785,0,0,0,3.247.489,14.93,14.93,0,0,1,2.174-.9A2.791,2.791,0,0,0,35,5.664V4.77h5.539v.895a2.788,2.788,0,0,0,1.951,2.641,15.243,15.243,0,0,1,2.171.9,2.784,2.784,0,0,0,3.247-.489l.631-.631L52.46,12l-.631.634a2.788,2.788,0,0,0-.49,3.246,15.03,15.03,0,0,1,.9,2.174A2.792,2.792,0,0,0,54.88,20h.895v5.539H54.88a2.789,2.789,0,0,0-2.642,1.95Z" transform="translate(5.772 0)" fill="#b13e8d"/>
      <path id="Trazado_194453" data-name="Trazado 194453" d="M39.462,17.772l-8.309-5.539A1.385,1.385,0,0,0,29,13.385V24.463a1.385,1.385,0,0,0,2.153,1.152l8.309-5.539a1.385,1.385,0,0,0,0-2.3Zm-7.693,4.1v-5.9L36.2,18.924Z" transform="translate(10.39 3.848)" fill="#b13e8d"/>
      <path id="Trazado_194454" data-name="Trazado 194454" d="M31,38h2.77v2.77H31Z" transform="translate(11.16 13.853)" fill="#b13e8d"/>
      <path id="Trazado_194455" data-name="Trazado 194455" d="M31,34h2.77v2.77H31Z" transform="translate(11.16 12.314)" fill="#b13e8d"/>
      <path id="Trazado_194456" data-name="Trazado 194456" d="M13,16h2.77v2.77H13Z" transform="translate(4.233 5.387)" fill="#b13e8d"/>
      <path id="Trazado_194457" data-name="Trazado 194457" d="M9,16h2.77v2.77H9Z" transform="translate(2.694 5.387)" fill="#b13e8d"/>
      <path id="Trazado_194458" data-name="Trazado 194458" d="M9,20h2.77v2.77H9Z" transform="translate(2.694 6.927)" fill="#b13e8d"/>
      <path id="Trazado_194459" data-name="Trazado 194459" d="M9,24h2.77v2.77H9Z" transform="translate(2.694 8.466)" fill="#b13e8d"/>
      <path id="Trazado_194460" data-name="Trazado 194460" d="M9,28h2.77v2.77H9Z" transform="translate(2.694 10.005)" fill="#b13e8d"/>
      <path id="Trazado_194461" data-name="Trazado 194461" d="M9,32h2.77v2.77H9Z" transform="translate(2.694 11.544)" fill="#b13e8d"/>
      <path id="Trazado_194462" data-name="Trazado 194462" d="M9,36h2.77v2.77H9Z" transform="translate(2.694 13.084)" fill="#b13e8d"/>
      <path id="Trazado_194463" data-name="Trazado 194463" d="M49,16h2.77v2.77H49Z" transform="translate(18.086 5.387)" fill="#b13e8d"/>
      <path id="Trazado_194464" data-name="Trazado 194464" d="M53,16h2.77v2.77H53Z" transform="translate(19.626 5.387)" fill="#b13e8d"/>
      <path id="Trazado_194465" data-name="Trazado 194465" d="M53,20h2.77v2.77H53Z" transform="translate(19.626 6.927)" fill="#b13e8d"/>
      <path id="Trazado_194466" data-name="Trazado 194466" d="M53,24h2.77v2.77H53Z" transform="translate(19.626 8.466)" fill="#b13e8d"/>
      <path id="Trazado_194467" data-name="Trazado 194467" d="M53,28h2.77v2.77H53Z" transform="translate(19.626 10.005)" fill="#b13e8d"/>
      <path id="Trazado_194468" data-name="Trazado 194468" d="M53,32h2.77v2.77H53Z" transform="translate(19.626 11.544)" fill="#b13e8d"/>
      <path id="Trazado_194469" data-name="Trazado 194469" d="M53,36h2.77v2.77H53Z" transform="translate(19.626 13.084)" fill="#b13e8d"/>
    </g>
  </g>
</svg>
