<svg xmlns="http://www.w3.org/2000/svg" width="85.333" height="85.336" viewBox="0 0 85.333 85.336">
  <g id="Grupo_136700" data-name="Grupo 136700" transform="translate(-765.219 -2897.688)">
    <g id="cargar" transform="translate(764.219 2896.688)">
      <path id="Trazado_194470" data-name="Trazado 194470" d="M77.57,9.934A6.208,6.208,0,0,0,71.3,3.753a6.146,6.146,0,0,0-4.371,1.81L55.853,16.641a12.29,12.29,0,0,1-6.591,3.43,11.011,11.011,0,1,0-14.953,0,12.29,12.29,0,0,1-6.591-3.43L16.639,5.563a6.212,6.212,0,1,0-8.694,8.873L28.1,33.4a4.141,4.141,0,0,1,1.3,3.007V79.452a6.88,6.88,0,0,0,12.387,4.125,6.88,6.88,0,0,0,12.387-4.125V36.412a4.146,4.146,0,0,1,1.3-3.007L75.625,14.437A6.21,6.21,0,0,0,77.57,9.934ZM45.346,23.022a4.119,4.119,0,0,1-3.561,2.753,4.119,4.119,0,0,1-3.561-2.753ZM33.527,12.011a8.258,8.258,0,1,1,8.258,8.258,8.266,8.266,0,0,1-8.258-8.258ZM47.29,83.581a4.134,4.134,0,0,1-4.129-4.129V53.3H40.409V79.452a4.129,4.129,0,1,1-8.258,0V47.8H51.419V79.452A4.134,4.134,0,0,1,47.29,83.581ZM73.738,12.432,53.584,31.4a6.91,6.91,0,0,0-2.165,5.013v8.631H32.151V36.412A6.912,6.912,0,0,0,29.986,31.4L9.832,12.432a3.459,3.459,0,1,1,4.861-4.923L25.771,18.587A15.029,15.029,0,0,0,35.3,22.964c.941,3.277,3.526,5.563,6.488,5.563s5.547-2.286,6.489-5.563A15.023,15.023,0,0,0,57.8,18.587L68.877,7.509a3.467,3.467,0,0,1,2.512-1,3.429,3.429,0,0,1,2.349,5.927Z" transform="translate(1.882 0)" fill="#b13e8d"/>
      <path id="Trazado_194471" data-name="Trazado 194471" d="M31,23h2.753v2.753H31Z" transform="translate(11.29 8.28)" fill="#b13e8d"/>
      <path id="Trazado_194472" data-name="Trazado 194472" d="M31,27h2.753v2.753H31Z" transform="translate(11.29 9.785)" fill="#b13e8d"/>
      <path id="Trazado_194473" data-name="Trazado 194473" d="M70.527,41.882V39.129A4.134,4.134,0,0,0,66.4,35H47.129A4.134,4.134,0,0,0,43,39.129v2.753a4.123,4.123,0,0,0,2.753,3.876v3.261A4.123,4.123,0,0,0,43,52.894v2.753a4.123,4.123,0,0,0,2.753,3.876v3.261A4.123,4.123,0,0,0,43,66.659v2.753a4.134,4.134,0,0,0,4.129,4.129H66.4a4.134,4.134,0,0,0,4.129-4.129V66.659a4.123,4.123,0,0,0-2.753-3.876V59.522a4.123,4.123,0,0,0,2.753-3.876V52.894a4.123,4.123,0,0,0-2.753-3.876V45.758A4.123,4.123,0,0,0,70.527,41.882ZM48.505,48.763V46.011H65.022v2.753Zm-2.753-9.634a1.378,1.378,0,0,1,1.376-1.376H66.4a1.378,1.378,0,0,1,1.376,1.376v2.753A1.378,1.378,0,0,1,66.4,43.258H47.129a1.378,1.378,0,0,1-1.376-1.376Zm2.753,23.4V59.774H65.022v2.753Zm19.269,6.882A1.378,1.378,0,0,1,66.4,70.785H47.129a1.378,1.378,0,0,1-1.376-1.376V66.656a1.378,1.378,0,0,1,1.376-1.376H66.4a1.378,1.378,0,0,1,1.376,1.376Zm0-13.763A1.378,1.378,0,0,1,66.4,57.022H47.129a1.378,1.378,0,0,1-1.376-1.376V52.893a1.378,1.378,0,0,1,1.376-1.376H66.4a1.378,1.378,0,0,1,1.376,1.376Z" transform="translate(15.807 12.796)" fill="#b13e8d"/>
      <path id="Trazado_194474" data-name="Trazado 194474" d="M24.4,35H5.129A4.134,4.134,0,0,0,1,39.129v2.753a4.123,4.123,0,0,0,2.753,3.876v3.261A4.12,4.12,0,0,0,1,52.893v2.753a4.123,4.123,0,0,0,2.753,3.876v3.261A4.12,4.12,0,0,0,1,66.656v2.753a4.134,4.134,0,0,0,4.129,4.129H24.4a4.134,4.134,0,0,0,4.129-4.129V66.656a4.123,4.123,0,0,0-2.753-3.876V59.52a4.123,4.123,0,0,0,2.753-3.876V52.891a4.123,4.123,0,0,0-2.753-3.876V45.755a4.123,4.123,0,0,0,2.753-3.876V39.126A4.133,4.133,0,0,0,24.4,35ZM6.505,48.763V46.011H23.022v2.753Zm0,13.763V59.774H23.022v2.753Zm19.269,6.882A1.378,1.378,0,0,1,24.4,70.785H5.129a1.378,1.378,0,0,1-1.376-1.376V66.656A1.378,1.378,0,0,1,5.129,65.28H24.4a1.378,1.378,0,0,1,1.376,1.376Zm0-13.763A1.378,1.378,0,0,1,24.4,57.022H5.129a1.378,1.378,0,0,1-1.376-1.376V52.893a1.378,1.378,0,0,1,1.376-1.376H24.4a1.378,1.378,0,0,1,1.376,1.376Zm0-13.763A1.378,1.378,0,0,1,24.4,43.258H5.129a1.378,1.378,0,0,1-1.376-1.376V39.129a1.378,1.378,0,0,1,1.376-1.376H24.4a1.378,1.378,0,0,1,1.376,1.376Z" transform="translate(0 12.796)" fill="#b13e8d"/>
      <path id="Trazado_194475" data-name="Trazado 194475" d="M55.505,29a4.129,4.129,0,1,0-2.753,0v3.006h2.753Zm-1.376-5.252a1.376,1.376,0,1,1-1.376,1.376A1.378,1.378,0,0,1,54.129,23.753Z" transform="translate(18.441 7.527)" fill="#b13e8d"/>
      <path id="Trazado_194476" data-name="Trazado 194476" d="M52,31h2.753v2.753H52Z" transform="translate(19.194 11.29)" fill="#b13e8d"/>
      <path id="Trazado_194477" data-name="Trazado 194477" d="M13.505,29a4.129,4.129,0,1,0-2.753,0v3.006h2.753Zm-1.376-5.252a1.376,1.376,0,1,1-1.376,1.376A1.378,1.378,0,0,1,12.129,23.753Z" transform="translate(2.634 7.527)" fill="#b13e8d"/>
      <path id="Trazado_194478" data-name="Trazado 194478" d="M10,31h2.753v2.753H10Z" transform="translate(3.387 11.29)" fill="#b13e8d"/>
    </g>
  </g>
</svg>
