<svg xmlns="http://www.w3.org/2000/svg" width="83.402" height="86.182" viewBox="0 0 83.402 86.182">
  <g id="capacitacion" transform="translate(-0.499)">
    <path id="Trazado_194479" data-name="Trazado 194479" d="M190.636,400.864a1.379,1.379,0,0,1-.183-.012l-.774-.1H167.6a1.391,1.391,0,0,1-1.39-1.411l.115-7.7c0-6.563,5.965-9.611,9.576-10.4a14.212,14.212,0,0,1,6.572,0c3.613.8,9.554,3.848,9.554,10.416v7.812a1.392,1.392,0,0,1-1.391,1.39Zm-21.625-2.9h20.236v-6.307c0-6.094-7.169-7.66-7.474-7.724a1.408,1.408,0,0,1-.373-.135,14.085,14.085,0,0,0-4.541.044,2.7,2.7,0,0,1-.279.089c-.306.064-7.475,1.631-7.475,7.725Zm0,0" transform="translate(-136.918 -314.683)" fill="#b13e8d"/>
    <path id="Trazado_194480" data-name="Trazado 194480" d="M206.5,300.087a7.176,7.176,0,1,1,7.149-7.175A7.17,7.17,0,0,1,206.5,300.087Zm0-11.572a4.4,4.4,0,1,0,4.369,4.4A4.389,4.389,0,0,0,206.5,288.514Zm0,0" transform="translate(-164.304 -236.087)" fill="#b13e8d"/>
    <path id="Trazado_194481" data-name="Trazado 194481" d="M356.357,400.86a1.421,1.421,0,0,1-.185-.012l-.772-.1H333.323a1.391,1.391,0,0,1-1.39-1.411l.115-7.7c0-6.563,5.965-9.611,9.575-10.4a14.152,14.152,0,0,1,6.571.006c3.611.795,9.552,3.846,9.552,10.415v7.812a1.39,1.39,0,0,1-1.39,1.39Zm-21.625-2.9h20.235v-6.307c0-6.094-7.168-7.66-7.474-7.724a1.379,1.379,0,0,1-.374-.136,14.226,14.226,0,0,0-4.539.044,2.422,2.422,0,0,1-.279.09c-.306.064-7.474,1.63-7.474,7.725Zm0,0" transform="translate(-273.846 -314.679)" fill="#b13e8d"/>
    <path id="Trazado_194482" data-name="Trazado 194482" d="M372.219,300.087a7.176,7.176,0,1,1,7.15-7.175A7.169,7.169,0,0,1,372.219,300.087Zm0-11.572a4.4,4.4,0,1,0,4.37,4.4A4.389,4.389,0,0,0,372.219,288.514Zm0,0" transform="translate(-301.226 -236.087)" fill="#b13e8d"/>
    <path id="Trazado_194483" data-name="Trazado 194483" d="M24.924,400.86a1.431,1.431,0,0,1-.185-.012l-.771-.1H1.889A1.391,1.391,0,0,1,.5,399.334l.115-7.7c0-6.563,5.965-9.611,9.576-10.4a14.152,14.152,0,0,1,6.571.006c3.613.795,9.554,3.847,9.554,10.415v7.812a1.391,1.391,0,0,1-1.391,1.39ZM3.3,397.965H23.535v-6.307c0-6.095-7.169-7.66-7.474-7.724a1.372,1.372,0,0,1-.374-.136,14.226,14.226,0,0,0-4.539.044,2.391,2.391,0,0,1-.28.09c-.305.064-7.474,1.63-7.474,7.725Zm0,0" transform="translate(0 -314.679)" fill="#b13e8d"/>
    <path id="Trazado_194484" data-name="Trazado 194484" d="M40.787,300.087a7.176,7.176,0,1,1,7.149-7.175A7.171,7.171,0,0,1,40.787,300.087Zm0-11.572a4.4,4.4,0,1,0,4.369,4.4A4.39,4.39,0,0,0,40.787,288.514Zm0,0" transform="translate(-27.38 -236.087)" fill="#b13e8d"/>
    <path id="Trazado_194485" data-name="Trazado 194485" d="M293.516,98.48h2.78v14.163h-2.78Zm0,0" transform="translate(-242.104 -81.369)" fill="#b13e8d"/>
    <path id="Trazado_194486" data-name="Trazado 194486" d="M325.8,127.754h2.78v9.077H325.8Zm0,0" transform="translate(-268.776 -105.556)" fill="#b13e8d"/>
    <path id="Trazado_194487" data-name="Trazado 194487" d="M356.9,103.625h2.78v13.269H356.9Zm0,0" transform="translate(-294.477 -85.62)" fill="#b13e8d"/>
    <path id="Trazado_194488" data-name="Trazado 194488" d="M399.8,41.879h2.78v24H399.8Zm0,0" transform="translate(-329.925 -34.602)" fill="#b13e8d"/>
    <path id="Trazado_194489" data-name="Trazado 194489" d="M207.289,37.5H166.9a1.39,1.39,0,1,1,0-2.78h39V2.78H159.21V28a1.39,1.39,0,0,1-2.78,0V1.39A1.388,1.388,0,0,1,157.82,0h49.469a1.388,1.388,0,0,1,1.39,1.39V36.112A1.39,1.39,0,0,1,207.289,37.5Zm0,0" transform="translate(-128.837)" fill="#b13e8d"/>
    <path id="Trazado_194490" data-name="Trazado 194490" d="M57.105,28.7a7.828,7.828,0,1,1,7.8-7.828A7.821,7.821,0,0,1,57.105,28.7Zm0-12.876a5.048,5.048,0,1,0,5.017,5.048A5.038,5.038,0,0,0,57.105,15.819Zm0,0" transform="translate(-40.329 -10.773)" fill="#b13e8d"/>
    <path id="Trazado_194491" data-name="Trazado 194491" d="M36.132,139.83H21.17a1.388,1.388,0,0,1-1.39-1.39v-2.117a3.98,3.98,0,0,1-5.182-3.877v-6.733a18.859,18.859,0,0,1,3.314-10.708,6.682,6.682,0,0,1,2.9-2.418,9.414,9.414,0,0,1,3.674-.74h8.307c.206,0,.411.008.616.025a7.693,7.693,0,0,1,5.8,3.647l3.123,4.966,6.173,3.364a4.9,4.9,0,0,1,2.393,5.813,4.778,4.778,0,0,1-6.324,2.932,1.054,1.054,0,0,1-.145-.07l-6.867-3.756-.029,9.677A1.392,1.392,0,0,1,36.132,139.83ZM22.56,137.05H34.746l.031-10.628.007-2.169a1.389,1.389,0,0,1,1.39-1.385h0a1.39,1.39,0,0,1,1.386,1.39v0l0,1.341,8.111,4.437a1.95,1.95,0,0,0,1.514-.064,2,2,0,0,0,1.068-1.2,2.148,2.148,0,0,0-1.086-2.492l-6.491-3.538a1.39,1.39,0,0,1-.511-.481L36.845,117a4.9,4.9,0,0,0-3.667-2.356c-.13-.012-.261-.017-.392-.017H24.479a6.675,6.675,0,0,0-2.6.523,3.9,3.9,0,0,0-1.679,1.426,16.107,16.107,0,0,0-2.827,9.137v6.736a1.259,1.259,0,0,0,.937,1.254,1.206,1.206,0,0,0,1.465-1.186v-9.247a1.39,1.39,0,0,1,2.78,0Zm0,0" transform="translate(-11.649 -92.414)" fill="#b13e8d"/>
    <path id="Trazado_194492" data-name="Trazado 194492" d="M196.855,120.8l9.385-13.929,2.3,1.553-9.385,13.929Zm0,0" transform="translate(-162.239 -88.299)" fill="#b13e8d"/>
  </g>
</svg>
