<svg xmlns="http://www.w3.org/2000/svg" width="87" height="87" viewBox="0 0 87 87">
  <g id="Grupo_136606" data-name="Grupo 136606" transform="translate(-1105 -972)">
    <g id="_9-productivity" data-name="9-productivity" transform="translate(1105 972)">
      <path id="Trazado_194322" data-name="Trazado 194322" d="M86.561,21.359a1.355,1.355,0,0,0-1.306-.3L63.571,27.462a1.359,1.359,0,0,0-.576,2.265l3.629,3.629L47.578,52.4,36.072,40.895a6.816,6.816,0,0,0-9.648.037L.363,69.013a1.359,1.359,0,0,0,1.993,1.849L28.382,42.819a4.084,4.084,0,0,1,5.768,0L46.617,55.286a1.4,1.4,0,0,0,1.922,0L69.507,34.317a1.359,1.359,0,0,0,0-1.922l-2.974-2.974L83.85,24.306,80.006,42.893,77.2,40.085a1.359,1.359,0,0,0-1.922,0L50.462,64.9a4.084,4.084,0,0,1-5.768,0L32.227,52.43a1.359,1.359,0,0,0-1.981.063L8.5,77.2a1.359,1.359,0,0,0,2.04,1.8L31.329,55.377,42.772,66.821a6.808,6.808,0,0,0,9.613,0L76.236,42.969,79.866,46.6a1.36,1.36,0,0,0,2.293-.686l4.814-23.277a1.362,1.362,0,0,0-.411-1.276Z" transform="translate(0 7.547)" fill="#b13e8d"/>
      <path id="Trazado_194323" data-name="Trazado 194323" d="M17.359,56A1.359,1.359,0,0,0,16,57.359v8.156a1.359,1.359,0,0,0,2.719,0V57.359A1.359,1.359,0,0,0,17.359,56Z" transform="translate(5.75 20.125)" fill="#b13e8d"/>
      <path id="Trazado_194324" data-name="Trazado 194324" d="M5.359,55.109A1.359,1.359,0,0,0,6.719,53.75V34.719H20.313v1.359a1.359,1.359,0,0,0,2.719,0V33.359A1.359,1.359,0,0,0,21.672,32H5.359A1.359,1.359,0,0,0,4,33.359V53.75A1.359,1.359,0,0,0,5.359,55.109Z" transform="translate(1.437 11.5)" fill="#b13e8d"/>
      <path id="Trazado_194325" data-name="Trazado 194325" d="M47.359,48A1.359,1.359,0,0,0,46,49.359V68.391a1.359,1.359,0,0,0,2.719,0V49.359A1.359,1.359,0,0,0,47.359,48Z" transform="translate(16.531 17.25)" fill="#b13e8d"/>
      <path id="Trazado_194326" data-name="Trazado 194326" d="M47.359,32.625a1.359,1.359,0,0,0,1.359-1.359V2.719H62.313V25.828a1.359,1.359,0,0,0,2.719,0V1.359A1.359,1.359,0,0,0,63.672,0H47.359A1.359,1.359,0,0,0,46,1.359V31.266A1.359,1.359,0,0,0,47.359,32.625Z" transform="translate(16.531)" fill="#b13e8d"/>
      <path id="Trazado_194327" data-name="Trazado 194327" d="M59.359,42A1.359,1.359,0,0,0,58,43.359V70.547a1.359,1.359,0,0,0,2.719,0V43.359A1.359,1.359,0,0,0,59.359,42Z" transform="translate(20.844 15.094)" fill="#b13e8d"/>
      <path id="Trazado_194328" data-name="Trazado 194328" d="M38.359,57A1.359,1.359,0,0,0,37,58.359v6.8a1.359,1.359,0,0,0,2.719,0v-6.8A1.359,1.359,0,0,0,38.359,57Z" transform="translate(13.297 20.484)" fill="#b13e8d"/>
      <path id="Trazado_194329" data-name="Trazado 194329" d="M26.359,37.672a1.359,1.359,0,0,0,1.359-1.359V22.719H41.313v21.75a1.359,1.359,0,0,0,2.719,0V21.359A1.359,1.359,0,0,0,42.672,20H26.359A1.359,1.359,0,0,0,25,21.359V36.313A1.359,1.359,0,0,0,26.359,37.672Z" transform="translate(8.984 7.188)" fill="#b13e8d"/>
      <path id="Trazado_194330" data-name="Trazado 194330" d="M26.359,51A1.359,1.359,0,0,0,25,52.359V67.313a1.359,1.359,0,0,0,2.719,0V52.359A1.359,1.359,0,0,0,26.359,51Z" transform="translate(8.984 18.328)" fill="#b13e8d"/>
    </g>
  </g>
</svg>
