<svg xmlns="http://www.w3.org/2000/svg" width="81.563" height="87" viewBox="0 0 81.563 87">
  <g id="Grupo_136696" data-name="Grupo 136696" transform="translate(-897 -1777.844)">
    <g id="Grupo_136688" data-name="Grupo 136688">
      <g id="analitico" transform="translate(881 1777.844)">
        <path id="Trazado_194443" data-name="Trazado 194443" d="M96.2,23.109H90.765a1.359,1.359,0,1,0,0,2.719h2.442l-7.044,8.05-3.617-.6a4.075,4.075,0,0,0-1.3-2.328V1.359A1.359,1.359,0,0,0,79.89,0H69.015a1.359,1.359,0,0,0-1.359,1.359V33.313a21.585,21.585,0,0,0-2.719-.518V8.156A1.359,1.359,0,0,0,63.578,6.8H52.7a1.359,1.359,0,0,0-1.359,1.359V35.545a21.842,21.842,0,0,0-2.719,1.865V19.031a1.359,1.359,0,0,0-1.359-1.359H36.39a1.359,1.359,0,0,0-1.359,1.359V51.656A4.061,4.061,0,0,0,32.312,52.7V28.547a1.359,1.359,0,0,0-1.359-1.359H20.078a1.359,1.359,0,0,0-1.359,1.359V59.929l-2.432,3.127a1.359,1.359,0,1,0,2.146,1.669L27.264,53.37l3.721,1.861a4.078,4.078,0,1,0,7.9-.837l1.625-1.3c-.025.425-.039.851-.039,1.281A21.74,21.74,0,0,0,74.436,72.36L87.882,85.806a4.078,4.078,0,1,0,5.767-5.767L80.2,66.592a21.715,21.715,0,0,0-3.729-28.63l.3-.3A4.075,4.075,0,0,0,82.1,35.957l4.365.728a1.379,1.379,0,0,0,.223.018,1.359,1.359,0,0,0,1.023-.464l7.133-8.152v1.82a1.359,1.359,0,0,0,2.719,0V24.469A1.359,1.359,0,0,0,96.2,23.109ZM54.062,9.516h8.156V32.625a21.631,21.631,0,0,0-8.156,1.588ZM25.8,50.822l-4.364,5.611V29.906h8.156V51.5L27.483,50.44a1.359,1.359,0,0,0-1.681.381Zm9.229,6.272a1.359,1.359,0,1,1,1.359-1.359,1.359,1.359,0,0,1-1.359,1.359Zm2.719-5.275V20.391h8.156V40.006a21.718,21.718,0,0,0-4.8,9.125ZM91.727,81.961A1.359,1.359,0,1,1,89.8,83.883L76.6,70.678a21.925,21.925,0,0,0,1.922-1.922ZM81.25,54.375A19.031,19.031,0,1,1,62.218,35.344,19.031,19.031,0,0,1,81.25,54.375ZM70.375,34.213V2.719h8.156V29.906a4.078,4.078,0,0,0-3.68,5.835L74.3,36.3a21.726,21.726,0,0,0-3.922-2.083Zm8.156,1.13a1.359,1.359,0,1,1,1.359-1.359,1.359,1.359,0,0,1-1.359,1.359Z" transform="translate(0 0)" fill="#b13e8d"/>
        <path id="Trazado_194444" data-name="Trazado 194444" d="M208.313,224a16.313,16.313,0,1,0,16.313,16.313A16.313,16.313,0,0,0,208.313,224Zm0,29.906a13.594,13.594,0,1,1,13.594-13.594,13.594,13.594,0,0,1-13.594,13.594Z" transform="translate(-146.094 -185.937)" fill="#b13e8d"/>
        <path id="Trazado_194445" data-name="Trazado 194445" d="M234.875,321.516a8.165,8.165,0,0,1-8.156-8.156,1.359,1.359,0,1,0-2.719,0,10.887,10.887,0,0,0,10.875,10.875,1.359,1.359,0,1,0,0-2.719Z" transform="translate(-172.657 -258.984)" fill="#b13e8d"/>
      </g>
    </g>
  </g>
</svg>
