<svg xmlns="http://www.w3.org/2000/svg" width="87" height="87" viewBox="0 0 87 87">
  <g id="Grupo_136697" data-name="Grupo 136697" transform="translate(-1171 -1770.758)">
    <g id="Grupo_136689" data-name="Grupo 136689">
      <g id="configuraciones" transform="translate(1171 1770.758)">
        <g id="Grupo_136375" data-name="Grupo 136375" transform="translate(16.345 16.345)">
          <g id="Grupo_136374" data-name="Grupo 136374">
            <path id="Trazado_194446" data-name="Trazado 194446" d="M150.5,123.329a27.071,27.071,0,0,0-6.037-17.058,1.274,1.274,0,0,0-1.98,1.6c.153.189.3.381.45.575H132.881a.088.088,0,0,1-.088-.088v-7.742a24.472,24.472,0,0,1,6.023,3.588,1.274,1.274,0,1,0,1.6-1.98,27.157,27.157,0,0,0-38.192,38.192,1.274,1.274,0,1,0,1.98-1.6,24.608,24.608,0,0,1,17.92-40.046c.436-.021.871-.03,1.3-.029v5.769a1.44,1.44,0,0,1-.425,1.025l-3.852,3.853a1.44,1.44,0,0,1-1.025.425h-3.255a4,4,0,1,0,0,2.549h3.255a3.973,3.973,0,0,0,2.828-1.171l3.852-3.853a3.973,3.973,0,0,0,1.171-2.827V98.882a24.6,24.6,0,0,1,4.262.842v8.639A2.64,2.64,0,0,0,132.881,111h11.754a24.466,24.466,0,0,1,1.956,4.262H129.859a4,4,0,1,0,0,2.549h17.465a24.648,24.648,0,0,1,.593,4.262H134.009a3.973,3.973,0,0,0-2.828,1.171l-3.852,3.853a1.441,1.441,0,0,1-1.025.425h-4.617a4,4,0,1,0,0,2.549H126.3a3.973,3.973,0,0,0,2.828-1.171l3.852-3.853a1.441,1.441,0,0,1,1.025-.425h13.909a24.63,24.63,0,0,1-.6,4.262H136.733a3.973,3.973,0,0,0-2.828,1.171l-7.939,7.939a3.973,3.973,0,0,0-1.171,2.827v7.088l-.233.014a24.692,24.692,0,0,1-6.753-.6v-6.5a3.972,3.972,0,0,0-1.171-2.828l-6.577-6.577a1.441,1.441,0,0,1-.425-1.025v-4.617a4,4,0,1,0-2.549,0v4.617a3.972,3.972,0,0,0,1.171,2.827l6.577,6.577a1.441,1.441,0,0,1,.424,1.025v5.771a24.475,24.475,0,0,1-7.385-4.108,1.274,1.274,0,0,0-1.6,1.98,27.072,27.072,0,0,0,17.07,6.038q.672,0,1.347-.033a27.155,27.155,0,0,0,25.78-25.78q.033-.665.032-1.329s0-.008,0-.013A.154.154,0,0,0,150.5,123.329Zm-39.413-10.792a1.45,1.45,0,1,1,1.45-1.45A1.451,1.451,0,0,1,111.087,112.537Zm14.983,5.449a1.45,1.45,0,1,1,1.45-1.45A1.451,1.451,0,0,1,126.07,117.986ZM117.9,130.245a1.45,1.45,0,1,1,1.45-1.45A1.451,1.451,0,0,1,117.9,130.245Zm-9.535-6.811a1.45,1.45,0,1,1,1.45-1.45A1.451,1.451,0,0,1,108.363,123.434Zm32.382,17.311a24.548,24.548,0,0,1-13.4,6.881V140.82a1.441,1.441,0,0,1,.425-1.025l7.939-7.939a1.441,1.441,0,0,1,1.025-.425h9.855A24.576,24.576,0,0,1,140.745,140.745Z" transform="translate(-96.191 -96.192)" fill="#b13e8d"/>
          </g>
        </g>
        <g id="Grupo_136377" data-name="Grupo 136377">
          <g id="Grupo_136376" data-name="Grupo 136376">
            <path id="Trazado_194447" data-name="Trazado 194447" d="M86.694,38.373a3.339,3.339,0,0,0-3.3-2.958h-4.1a36.271,36.271,0,0,0-4.764-11.506l2.9-2.9a3.339,3.339,0,0,0,.242-4.425,43.168,43.168,0,0,0-7.251-7.251,3.339,3.339,0,0,0-4.426.242l-2.9,2.9A36.269,36.269,0,0,0,51.585,7.711v-4.1a3.339,3.339,0,0,0-2.958-3.3,43.174,43.174,0,0,0-10.254,0,3.339,3.339,0,0,0-2.958,3.3v4.1a36.27,36.27,0,0,0-11.506,4.764l-2.9-2.9a3.338,3.338,0,0,0-4.425-.243,43.151,43.151,0,0,0-7.251,7.251,3.339,3.339,0,0,0,.242,4.426l2.9,2.9A36.27,36.27,0,0,0,7.712,35.415H3.606a3.339,3.339,0,0,0-3.3,2.958,43.177,43.177,0,0,0,0,10.255,3.339,3.339,0,0,0,3.3,2.958h4.1a36.266,36.266,0,0,0,4.763,11.506l-2.9,2.9a3.339,3.339,0,0,0-.242,4.425,43.168,43.168,0,0,0,7.251,7.251,3.339,3.339,0,0,0,4.426-.242l2.9-2.9a36.274,36.274,0,0,0,11.506,4.764v4.1a3.339,3.339,0,0,0,2.958,3.3,43.185,43.185,0,0,0,10.254,0,3.339,3.339,0,0,0,2.958-3.3v-4.1a36.27,36.27,0,0,0,11.506-4.764l2.9,2.9a3.339,3.339,0,0,0,4.425.243,43.168,43.168,0,0,0,7.251-7.251,3.339,3.339,0,0,0-.242-4.426l-2.9-2.9a36.268,36.268,0,0,0,4.764-11.506h4.1a3.339,3.339,0,0,0,3.3-2.958,43.164,43.164,0,0,0,0-10.254Zm-2.531,9.954a.789.789,0,0,1-.77.71h-5.14A1.274,1.274,0,0,0,77,50.067a33.783,33.783,0,0,1-5.168,12.482,1.275,1.275,0,0,0,.156,1.613l3.633,3.632a.789.789,0,0,1,.042,1.046,40.633,40.633,0,0,1-6.825,6.825.789.789,0,0,1-1.046-.042l-3.633-3.632a1.275,1.275,0,0,0-1.613-.156A33.789,33.789,0,0,1,50.067,77a1.274,1.274,0,0,0-1.031,1.251v5.14a.789.789,0,0,1-.71.77,40.631,40.631,0,0,1-9.653,0,.789.789,0,0,1-.71-.77v-5.14A1.274,1.274,0,0,0,36.933,77a33.789,33.789,0,0,1-12.482-5.168,1.275,1.275,0,0,0-1.613.156l-3.633,3.632a.789.789,0,0,1-1.046.042,40.642,40.642,0,0,1-6.826-6.825.789.789,0,0,1,.042-1.046l3.633-3.633a1.275,1.275,0,0,0,.156-1.613A33.788,33.788,0,0,1,10,50.067a1.274,1.274,0,0,0-1.251-1.031H3.606a.789.789,0,0,1-.77-.71,40.639,40.639,0,0,1,0-9.652.789.789,0,0,1,.77-.71h5.14A1.274,1.274,0,0,0,10,36.933a33.788,33.788,0,0,1,5.168-12.482,1.275,1.275,0,0,0-.156-1.613l-3.632-3.633a.789.789,0,0,1-.042-1.046,40.633,40.633,0,0,1,6.825-6.825.789.789,0,0,1,1.046.042l3.633,3.632a1.275,1.275,0,0,0,1.613.156A33.785,33.785,0,0,1,36.933,10a1.274,1.274,0,0,0,1.031-1.251V3.606a.789.789,0,0,1,.71-.77,40.63,40.63,0,0,1,9.653,0,.789.789,0,0,1,.71.77v5.14A1.275,1.275,0,0,0,50.067,10a33.785,33.785,0,0,1,12.482,5.167,1.274,1.274,0,0,0,1.613-.156l3.633-3.633a.789.789,0,0,1,1.046-.042,40.636,40.636,0,0,1,6.826,6.826.789.789,0,0,1-.042,1.046l-3.633,3.632a1.275,1.275,0,0,0-.156,1.613A33.785,33.785,0,0,1,77,36.933a1.274,1.274,0,0,0,1.251,1.031h5.14a.789.789,0,0,1,.77.71,40.628,40.628,0,0,1,0,9.652Z" fill="#b13e8d"/>
          </g>
        </g>
      </g>
    </g>
  </g>
</svg>
