<svg xmlns="http://www.w3.org/2000/svg" width="79.688" height="79.63" viewBox="0 0 79.688 79.63">
  <g id="Grupo_136694" data-name="Grupo 136694" transform="translate(-352 -1784)">
    <g id="Grupo_136686" data-name="Grupo 136686">
      <g id="Layer_3" data-name="Layer 3" transform="translate(352.047 1784.046)">
        <path id="Trazado_194437" data-name="Trazado 194437" d="M49.129,24.695a1.243,1.243,0,1,0-1.958,1.532,14.77,14.77,0,0,1,3.158,9.181,14.92,14.92,0,1,1-6.887-12.575,1.244,1.244,0,0,0,1.34-2.1,17.418,17.418,0,1,0,4.352,3.958Z" transform="translate(4.389 4.39)" fill="#b13e8d"/>
        <path id="Trazado_194438" data-name="Trazado 194438" d="M58.751,53.474a1.254,1.254,0,0,1-.142-1.58,22.226,22.226,0,0,0,2.9-6.69l3.2,1.6c-.014.15-.046.3-.046.451a4.988,4.988,0,1,0,.88-2.815l-3.556-1.778a22.717,22.717,0,0,0,.034-5.523A21.981,21.981,0,0,0,58.6,27.726l2.819-2.819a11.219,11.219,0,1,0-1.758-1.758l-2.538,2.538A22.323,22.323,0,0,0,42.679,17.6c-.547-.068-1.093-.109-1.637-.139v-2.7a4.973,4.973,0,1,0-2.487,0v2.7a22.241,22.241,0,0,0-13.677,5.66l-4.941-4.941a11.219,11.219,0,1,0-1.758,1.758l4.94,4.942a22.256,22.256,0,0,0-5.661,13.677h-2.7a4.973,4.973,0,1,0,0,2.487h2.7c.029.545.071,1.09.139,1.637a22.007,22.007,0,0,0,4.42,10.653l-3.842,3.842a11.219,11.219,0,1,0,1.758,1.758l3.708-3.708a22.3,22.3,0,0,0,13.5,6.8,22.855,22.855,0,0,0,4.158.1l.829,3.317a4.953,4.953,0,1,0,2.643-.776c-.091,0-.175.022-.266.027l-.721-2.883a22.131,22.131,0,0,0,8.111-3.2,1.252,1.252,0,0,1,1.579.142l19.743,19.74a3.722,3.722,0,0,0,2.637,1.093,2.455,2.455,0,0,0,.3-.012,3.74,3.74,0,0,0,2.735-1.553,3.833,3.833,0,0,0-.5-4.9Zm10.887-8.7a2.487,2.487,0,1,1-2.487,2.487A2.487,2.487,0,0,1,69.638,44.771Zm-1.243-37.3a8.7,8.7,0,1,1-8.7,8.7,8.7,8.7,0,0,1,8.7-8.7ZM11.2,74.611a8.7,8.7,0,1,1,8.7-8.7,8.7,8.7,0,0,1-8.7,8.7Zm36.056-4.973a2.487,2.487,0,1,1-2.487-2.487A2.487,2.487,0,0,1,47.258,69.637ZM37.311,9.958A2.487,2.487,0,1,1,39.8,12.444,2.487,2.487,0,0,1,37.311,9.958ZM11.2,19.9a8.7,8.7,0,1,1,8.7-8.7A8.7,8.7,0,0,1,11.2,19.9ZM9.958,42.284A2.487,2.487,0,1,1,12.445,39.8,2.487,2.487,0,0,1,9.958,42.284ZM76.875,76.566a1.243,1.243,0,0,1-.919.527,1.22,1.22,0,0,1-.981-.361l-19.74-19.74a3.688,3.688,0,0,0-2.62-1.089,3.807,3.807,0,0,0-2.068.622,19.941,19.941,0,1,1,5.973-5.978,3.723,3.723,0,0,0,.472,4.687L76.638,74.879a1.348,1.348,0,0,1,.237,1.687Z" transform="translate(0)" fill="#b13e8d"/>
        <path id="Trazado_194439" data-name="Trazado 194439" d="M24,39.407v2.221a3.777,3.777,0,0,0,2.147,3.387,17.363,17.363,0,0,0,15.6,0,3.776,3.776,0,0,0,2.148-3.387V39.407a9.957,9.957,0,0,0-6.194-9.2,4.973,4.973,0,1,0-7.5,0A9.957,9.957,0,0,0,24,39.407Zm7.46-12.433a2.487,2.487,0,1,1,2.487,2.487A2.487,2.487,0,0,1,31.46,26.973Zm2.487,4.973a7.467,7.467,0,0,1,7.46,7.46v2.221a1.277,1.277,0,0,1-.731,1.141,14.787,14.787,0,0,1-13.458,0,1.277,1.277,0,0,1-.731-1.141V39.407A7.467,7.467,0,0,1,33.947,31.947Z" transform="translate(5.851 5.364)" fill="#b13e8d"/>
        <path id="Trazado_194440" data-name="Trazado 194440" d="M52.034,21.136a11.563,11.563,0,0,0,8.365,0,3.161,3.161,0,0,0,2.034-2.945A6.2,6.2,0,0,0,59.3,12.826a3.73,3.73,0,1,0-6.167,0A6.2,6.2,0,0,0,50,18.191,3.161,3.161,0,0,0,52.034,21.136Zm2.939-10.405a1.243,1.243,0,1,1,1.243,1.243A1.243,1.243,0,0,1,54.973,10.731Zm1.243,3.73a3.73,3.73,0,0,1,3.73,3.73.661.661,0,0,1-.423.622h0a9.013,9.013,0,0,1-6.613,0,.661.661,0,0,1-.424-.622A3.73,3.73,0,0,1,56.217,14.461Z" transform="translate(12.178 1.714)" fill="#b13e8d"/>
        <path id="Trazado_194441" data-name="Trazado 194441" d="M13.3,52.826a3.73,3.73,0,1,0-6.167,0A6.2,6.2,0,0,0,4,58.191a3.161,3.161,0,0,0,2.034,2.945,11.563,11.563,0,0,0,8.365,0,3.161,3.161,0,0,0,2.034-2.945A6.2,6.2,0,0,0,13.3,52.826Zm-4.327-2.1a1.243,1.243,0,1,1,1.243,1.243A1.243,1.243,0,0,1,8.973,50.731Zm4.551,8.082h0a9.013,9.013,0,0,1-6.613,0,.661.661,0,0,1-.424-.622,3.73,3.73,0,0,1,7.46,0,.661.661,0,0,1-.423.622Z" transform="translate(0.985 11.447)" fill="#b13e8d"/>
        <path id="Trazado_194442" data-name="Trazado 194442" d="M13.3,8.826a3.73,3.73,0,1,0-6.167,0A6.2,6.2,0,0,0,4,14.191a3.161,3.161,0,0,0,2.034,2.945,11.563,11.563,0,0,0,8.365,0,3.161,3.161,0,0,0,2.034-2.945A6.2,6.2,0,0,0,13.3,8.826Zm-4.327-2.1a1.243,1.243,0,1,1,1.243,1.243A1.243,1.243,0,0,1,8.973,6.731Zm4.551,8.082h0a9.013,9.013,0,0,1-6.613,0,.661.661,0,0,1-.424-.622,3.73,3.73,0,1,1,7.46,0,.661.661,0,0,1-.423.622Z" transform="translate(0.985 0.74)" fill="#b13e8d"/>
      </g>
    </g>
  </g>
</svg>
