<svg xmlns="http://www.w3.org/2000/svg" width="85.34" height="85.537" viewBox="0 0 85.34 85.537">
  <g id="Grupo_136693" data-name="Grupo 136693" transform="translate(-1176.943 -2138.492)">
    <g id="Grupo_136685" data-name="Grupo 136685">
      <g id="servicio-al-cliente" transform="translate(1176.371 2138.492)">
        <g id="Grupo_136361" data-name="Grupo 136361" transform="translate(0.573 13.796)">
          <g id="Grupo_136360" data-name="Grupo 136360" transform="translate(0)">
            <path id="Trazado_194426" data-name="Trazado 194426" d="M69.9,140.7,66.7,131.121a9.658,9.658,0,0,0-7.435-6.447L50.048,123v-.715a13.885,13.885,0,0,0,4.113-3.652h2.785a4.144,4.144,0,0,0,4.139-4.139V97.935a17.935,17.935,0,1,0-35.87,0v9.657a5.528,5.528,0,0,0,4.4,5.4,13.822,13.822,0,0,0,6.637,9.285V123l-9.221,1.678a9.656,9.656,0,0,0-7.433,6.447l-.552,1.657-4.7-4.7a1.382,1.382,0,0,1,0-1.952l5.45-5.448L9.567,110.45l-6.159,6.159a9.657,9.657,0,0,0,0,13.657l18.646,18.646a9.653,9.653,0,0,0,13.614.041l6.72-6.157-2.1-2.092ZM58.326,114.491a1.381,1.381,0,0,1-1.38,1.38h-1.16a13.7,13.7,0,0,0,.9-2.874,5.465,5.465,0,0,0,1.64-.653Zm-1.38-4.522v-4.751a2.735,2.735,0,0,1,0,4.751Zm-27.593,0a2.735,2.735,0,0,1,0-4.751Zm0-9.274v1.576a5.472,5.472,0,0,0-1.38.571V97.935a15.176,15.176,0,1,1,30.352,0v4.906a5.421,5.421,0,0,0-1.38-.571v-1.576h-1.38a15.179,15.179,0,0,1-10.8-4.474L43.15,94.6,41.534,96.22a15.179,15.179,0,0,1-10.8,4.474Zm2.759,9.657V103.4A17.887,17.887,0,0,0,43.15,98.5a17.879,17.879,0,0,0,11.037,4.9v6.951a10.954,10.954,0,0,1-1.493,5.519H43.15v2.759h7.276a11.02,11.02,0,0,1-18.313-8.278Zm15.176,13.16v.065l-4.139,4.139-4.139-4.139v-.065a13.785,13.785,0,0,0,8.278,0Zm-25.076,8.481a6.9,6.9,0,0,1,5.31-4.607l9.644-1.752,5.983,5.983,5.982-5.982,9.642,1.752a6.9,6.9,0,0,1,5.31,4.607l1.985,5.95H37.533l-5.374-5.374-5.971,5.4a1.409,1.409,0,0,1-1.951,0l-3.013-3.013ZM9.566,114.351l6.327,6.327-1.5,1.5L8.067,115.85Zm24.192,32.612a6.9,6.9,0,0,1-9.755,0L5.356,128.316a6.9,6.9,0,0,1,0-9.755l.759-.759,6.327,6.327-.05.05a4.146,4.146,0,0,0,0,5.854l9.893,9.893a4.117,4.117,0,0,0,2.928,1.213,4.062,4.062,0,0,0,2.877-1.164l.1-.092,6.356,6.356Zm2.828-2.594-6.342-6.342,1.822-1.647,6.331,6.331Z" transform="translate(-0.58 -80)" fill="#b13e8d"/>
          </g>
        </g>
        <g id="Grupo_136363" data-name="Grupo 136363" transform="translate(58.319)">
          <g id="Grupo_136362" data-name="Grupo 136362">
            <path id="Trazado_194427" data-name="Trazado 194427" d="M358.882,0H339.567a4.144,4.144,0,0,0-4.139,4.139V15.176a4.144,4.144,0,0,0,4.139,4.139h3.685l-1.427,8.321,13.313-8.321h3.743a4.144,4.144,0,0,0,4.139-4.139V4.139A4.144,4.144,0,0,0,358.882,0Zm1.38,15.176a1.382,1.382,0,0,1-1.38,1.38h-4.535l-8.762,5.476.939-5.476h-6.957a1.382,1.382,0,0,1-1.38-1.38V4.139a1.382,1.382,0,0,1,1.38-1.38h19.315a1.382,1.382,0,0,1,1.38,1.38Z" transform="translate(-335.428)" fill="#b13e8d"/>
          </g>
        </g>
        <g id="Grupo_136365" data-name="Grupo 136365" transform="translate(63.838 5.519)">
          <g id="Grupo_136364" data-name="Grupo 136364">
            <rect id="Rectángulo_43796" data-name="Rectángulo 43796" width="16.556" height="2.759" fill="#b13e8d"/>
          </g>
        </g>
        <g id="Grupo_136367" data-name="Grupo 136367" transform="translate(63.838 11.037)">
          <g id="Grupo_136366" data-name="Grupo 136366">
            <rect id="Rectángulo_43797" data-name="Rectángulo 43797" width="11.037" height="2.759" fill="#b13e8d"/>
          </g>
        </g>
        <g id="Grupo_136369" data-name="Grupo 136369" transform="translate(77.634 11.037)">
          <g id="Grupo_136368" data-name="Grupo 136368">
            <rect id="Rectángulo_43798" data-name="Rectángulo 43798" width="2.759" height="2.759" fill="#b13e8d"/>
          </g>
        </g>
        <g id="Grupo_136371" data-name="Grupo 136371" transform="translate(0.572 4.139)">
          <g id="Grupo_136370" data-name="Grupo 136370" transform="translate(0)">
            <path id="Trazado_194428" data-name="Trazado 194428" d="M43.143,24A38.6,38.6,0,0,0,5.552,53.862L2.938,49.5.572,50.923,5.421,59l8.08-4.849-1.42-2.366L8.343,54.032A35.88,35.88,0,0,1,53.772,28.36l.817-2.635A38.6,38.6,0,0,0,43.143,24Z" transform="translate(-0.572 -24)" fill="#b13e8d"/>
          </g>
        </g>
        <g id="Grupo_136373" data-name="Grupo 136373" transform="translate(71.013 25.698)">
          <g id="Grupo_136372" data-name="Grupo 136372">
            <path id="Trazado_194429" data-name="Trazado 194429" d="M423.264,153.865l-8.081-4.849-4.848,8.082,2.366,1.42,2.414-4.024a35.9,35.9,0,0,1-6.08,34.178l2.143,1.738a38.635,38.635,0,0,0,6.611-36.61l4.055,2.432Z" transform="translate(-409.036 -149.016)" fill="#b13e8d"/>
          </g>
        </g>
      </g>
    </g>
  </g>
</svg>
