<svg xmlns="http://www.w3.org/2000/svg" width="85.041" height="85.041" viewBox="0 0 85.041 85.041">
  <g id="Grupo_136695" data-name="Grupo 136695" transform="translate(-619.959 -1778.823)">
    <g id="Grupo_136687" data-name="Grupo 136687">
      <g id="innovacion" transform="translate(618.959 1777.823)">
        <path id="Trazado_194430" data-name="Trazado 194430" d="M8,19.115h2.743a1.372,1.372,0,0,1,1.372-1.372V15A4.12,4.12,0,0,0,8,19.115Z" transform="translate(2.601 5.203)" fill="#b13e8d"/>
        <path id="Trazado_194431" data-name="Trazado 194431" d="M18.115,21.115A4.12,4.12,0,0,0,14,17v2.743a1.372,1.372,0,0,1,1.372,1.372Z" transform="translate(4.831 5.946)" fill="#b13e8d"/>
        <path id="Trazado_194432" data-name="Trazado 194432" d="M7,24.372v2.743A4.12,4.12,0,0,0,11.115,23H8.372A1.372,1.372,0,0,1,7,24.372Z" transform="translate(2.23 8.176)" fill="#b13e8d"/>
        <path id="Trazado_194433" data-name="Trazado 194433" d="M56.115,60.23A4.115,4.115,0,1,0,52,56.115,4.12,4.12,0,0,0,56.115,60.23Zm0-5.487a1.372,1.372,0,1,1-1.372,1.372A1.372,1.372,0,0,1,56.115,54.743Z" transform="translate(18.953 18.953)" fill="#b13e8d"/>
        <path id="Trazado_194434" data-name="Trazado 194434" d="M56.115,37.23A4.115,4.115,0,1,0,52,33.115,4.12,4.12,0,0,0,56.115,37.23Zm0-5.487a1.372,1.372,0,1,1-1.372,1.372A1.372,1.372,0,0,1,56.115,31.743Z" transform="translate(18.953 10.406)" fill="#b13e8d"/>
        <path id="Trazado_194435" data-name="Trazado 194435" d="M56.115,14.23A4.115,4.115,0,1,0,52,10.115,4.12,4.12,0,0,0,56.115,14.23Zm0-5.487a1.372,1.372,0,1,1-1.372,1.372A1.372,1.372,0,0,1,56.115,8.743Z" transform="translate(18.953 1.858)" fill="#b13e8d"/>
        <path id="Trazado_194436" data-name="Trazado 194436" d="M64.19,44.892a10.973,10.973,0,1,0,0-2.743H49.4a24.926,24.926,0,0,0,.627-2.743h4.469a4.12,4.12,0,0,0,4.115-4.115V29.8a1.372,1.372,0,0,1,1.372-1.372H61.6a4.115,4.115,0,1,0,0-2.743H59.98A4.12,4.12,0,0,0,55.865,29.8v5.487a1.372,1.372,0,0,1-1.372,1.372H50.336c.025-.455.043-.912.043-1.372a24.559,24.559,0,0,0-4.115-13.57v-7a1.372,1.372,0,0,1,1.372-1.372H64.19a10.973,10.973,0,1,0,0-2.743H47.635a4.12,4.12,0,0,0-4.115,4.115v3.561a24.539,24.539,0,0,0-14.506-7.453,4.173,4.173,0,0,0-3.291.988,4.085,4.085,0,0,0-.983,1.3A8.218,8.218,0,0,0,11.7,14.72a8.24,8.24,0,0,0-7.958,8.226,8.035,8.035,0,0,0,.594,3.018A8.18,8.18,0,0,0,4.325,39.14a8.193,8.193,0,0,0,6.419,11.138A18.848,18.848,0,0,0,13.1,55.865H11.973a4.1,4.1,0,0,0-1.07,8.071,4.08,4.08,0,0,0,2.743,5.487,4.078,4.078,0,0,0,2.441,5.393V76.44a9.6,9.6,0,0,0,19.2,0V74.816a4.078,4.078,0,0,0,2.442-5.393,4.08,4.08,0,0,0,2.743-5.487,4.1,4.1,0,0,0-1.07-8.071h9.6a1.372,1.372,0,0,1,1.372,1.372V72.325a4.12,4.12,0,0,0,4.115,4.115h9.7a10.973,10.973,0,1,0,0-2.743h-9.7a1.372,1.372,0,0,1-1.372-1.372V57.237a4.12,4.12,0,0,0-4.115-4.115H42.758a24.78,24.78,0,0,0,2.463-2.743h9.272a1.372,1.372,0,0,1,1.372,1.372v5.487a4.12,4.12,0,0,0,4.115,4.115H61.6a4.115,4.115,0,1,0,0-2.743H59.98a1.372,1.372,0,0,1-1.372-1.372V51.75a4.12,4.12,0,0,0-4.115-4.115H47.061a24.677,24.677,0,0,0,1.366-2.743Zm10.878-9.6a8.23,8.23,0,1,1-8.23,8.23A8.238,8.238,0,0,1,75.068,35.291Zm-9.6-9.6a1.372,1.372,0,1,1-1.372,1.372A1.372,1.372,0,0,1,65.467,25.689Zm9.6-21.946a8.23,8.23,0,1,1-8.23,8.23A8.238,8.238,0,0,1,75.068,3.743Zm0,63.095a8.23,8.23,0,1,1-8.23,8.23A8.238,8.238,0,0,1,75.068,66.838Zm-9.6-8.23a1.372,1.372,0,1,1-1.372,1.372A1.372,1.372,0,0,1,65.467,58.608ZM27.061,61.352V33.281L29.63,31.57l2.751,2.751a7.823,7.823,0,0,0,.667.6L28.642,61.352ZM11.973,58.608h4.115V55.447l-.23-.346a19.316,19.316,0,0,1-2.318-4.876A8.24,8.24,0,0,0,20.2,42.149H17.46A5.487,5.487,0,1,1,6.781,40.406,8.232,8.232,0,0,0,17.46,32.547H14.716a5.487,5.487,0,1,1-7.972-4.858l1.306-.671-.759-1.258a5.384,5.384,0,0,1-.805-2.815,5.492,5.492,0,0,1,5.487-5.487,1.373,1.373,0,0,1,.151.018c.095.014.192.026.289.033l.983.078.387-.907a5.486,5.486,0,0,1,10.534,2.149V61.352H11.973a1.372,1.372,0,1,1,0-2.743ZM25.689,83.3a6.866,6.866,0,0,1-6.858-6.858V75.068H32.547V76.44A6.866,6.866,0,0,1,25.689,83.3Zm8.23-10.973H17.46a1.372,1.372,0,1,1,0-2.743h16.46a1.372,1.372,0,1,1,0,2.743Zm2.743-5.487H14.716a1.372,1.372,0,0,1,0-2.743H36.662a1.372,1.372,0,0,1,0,2.743Zm-.647-12.186-.724.387v3.569h4.115a1.372,1.372,0,1,1,0,2.743H31.423L35.6,36.28a8.013,8.013,0,0,0,2.432.383,4.115,4.115,0,1,0,0-8.23h-.42A4.1,4.1,0,0,0,33.6,31.657l-3.62-3.618-2.916,1.945V14.906a1.348,1.348,0,0,1,.468-1.029,1.387,1.387,0,0,1,1.118-.333,21.945,21.945,0,0,1,7.368,41.109Zm.047-21.122.2-1.21a1.367,1.367,0,0,1,1.352-1.145h.42a1.372,1.372,0,0,1,0,2.743,5.26,5.26,0,0,1-1.972-.388Z" transform="translate(0 0)" fill="#b13e8d"/>
      </g>
    </g>
  </g>
</svg>
