<svg xmlns="http://www.w3.org/2000/svg" width="58.967" height="86.559" viewBox="0 0 58.967 86.559">
  <g id="Grupo_136642" data-name="Grupo 136642" transform="translate(-429.417 -2143)">
    <g id="Grupo_136639" data-name="Grupo 136639">
      <g id="creatividad" transform="translate(428.918 2143)">
        <path id="Trazado_194307" data-name="Trazado 194307" d="M58.887,155.521a26.852,26.852,0,0,1-4.129-14.073,1.264,1.264,0,0,0-1.265-1.265h-.271l5.5-11.233a4.211,4.211,0,0,0-1.936-5.637l-5.634-2.749a4.225,4.225,0,0,0-5.639,1.937l-8.656,17.682H33.108v-7.714a1.266,1.266,0,0,0-2.53,0v7.714H28.386v-7.714a1.266,1.266,0,0,0-2.53,0v7.714h-5.3L16.9,129.463a1.277,1.277,0,0,0-.384-.561l-9.684-8.137a1.265,1.265,0,0,0-2.052.709l-2.63,12.59a1.283,1.283,0,0,0,.04.666l1.856,5.454H2.873a1.266,1.266,0,0,0-1.224.942A43.216,43.216,0,0,0,.5,151.063c-.022,7.456,1.928,13.812,5.636,18.381A1.265,1.265,0,0,0,8.1,167.85c-6.962-8.577-4.946-21.556-4.214-25.137H32.254a12.54,12.54,0,0,1-3.918,8.425,7.737,7.737,0,0,0-5.14-2.268,7.084,7.084,0,0,0-1.771,13.944,20.846,20.846,0,0,1-9.213,9.125,1.264,1.264,0,0,0-1.222,1.263v11.921a1.265,1.265,0,0,0,1.265,1.265h19.9a1.265,1.265,0,0,0,1.265-1.265v-5.608h3.245a19.116,19.116,0,0,0,19.064-18.045,3.828,3.828,0,0,0,3.233-2A3.891,3.891,0,0,0,58.887,155.521Zm-11.1-31.907a1.693,1.693,0,0,1,2.259-.776l5.634,2.749a1.7,1.7,0,0,1,.773,2.251l-.993,2.027-2.222-1.084a1.266,1.266,0,0,0-1.109,2.274l2.219,1.082L52.41,136.09,48.8,134.331a1.265,1.265,0,0,0-1.109,2.273l3.6,1.759-.892,1.821H39.673ZM13.547,140.183l-1.658-5,3.252-3.045,2.739,8.05ZM6.3,126.577l2.519-.839,4.98,4.184-3.808,3.565-5.066-.332Zm-1.1,9.132,4.293.282,1.389,4.193H6.721Zm51.553,22.537a1.319,1.319,0,0,1-1.154.7H54.5a1.33,1.33,0,0,0-1.265,1.48,16.581,16.581,0,0,1-16.562,16.562h-4.51a1.265,1.265,0,0,0-1.265,1.265v5.608H13.521v-9.738a23.007,23.007,0,0,0,10.934-11.878,1.264,1.264,0,0,0-1.226-1.733H23.2a4.554,4.554,0,0,1,0-9.108,5.386,5.386,0,0,1,3.952,2.222,1.265,1.265,0,0,0,1.7.325,14.6,14.6,0,0,0,5.939-11.233h17.47a29.578,29.578,0,0,0,4.468,14.122A1.389,1.389,0,0,1,56.752,158.246Zm0,0" transform="translate(0 -99.828)" fill="#b13e8d"/>
        <path id="Trazado_194308" data-name="Trazado 194308" d="M231.458,276.8a4.643,4.643,0,0,0-4.637,4.638,1.266,1.266,0,0,0,2.53,0,2.108,2.108,0,1,1,4.215,0,1.266,1.266,0,0,0,2.53,0A4.643,4.643,0,0,0,231.458,276.8Zm0,0" transform="translate(-188.059 -230.002)" fill="#b13e8d"/>
        <path id="Trazado_194309" data-name="Trazado 194309" d="M39.3,42.26h1.312v1.312a1.266,1.266,0,0,0,2.53,0V42.26h1.312a1.266,1.266,0,0,0,0-2.53H43.146V38.418a1.266,1.266,0,0,0-2.53,0V39.73H39.3A1.266,1.266,0,0,0,39.3,42.26Zm0,0" transform="translate(-31.228 -30.906)" fill="#b13e8d"/>
        <path id="Trazado_194310" data-name="Trazado 194310" d="M234.225,5.346h1.312V6.657a1.266,1.266,0,0,0,2.53,0V5.346h1.312a1.266,1.266,0,0,0,0-2.53h-1.312V1.5a1.266,1.266,0,0,0-2.53,0V2.816h-1.312A1.266,1.266,0,0,0,234.225,5.346Zm0,0" transform="translate(-193.196 -0.233)" fill="#b13e8d"/>
        <path id="Trazado_194311" data-name="Trazado 194311" d="M286.1,61.216h1.312v1.311a1.266,1.266,0,0,0,2.53,0V61.216h1.312a1.266,1.266,0,0,0,0-2.53h-1.312V57.374a1.266,1.266,0,0,0-2.53,0v1.312H286.1A1.266,1.266,0,0,0,286.1,61.216Zm0,0" transform="translate(-236.302 -46.658)" fill="#b13e8d"/>
        <path id="Trazado_194312" data-name="Trazado 194312" d="M113,31.489a1.321,1.321,0,0,0,1.408-.394c.053-.065,1.256-1.549,2.531-3.264a7.574,7.574,0,0,0,5.218,2.056h.02a7.676,7.676,0,0,0,5.253-2.082c1.253,1.7,2.435,3.177,2.486,3.242a1.278,1.278,0,0,0,2.251-.786l.043-7.89a3.788,3.788,0,0,0-1.115-2.714,3.88,3.88,0,0,0-1.2-.817l.03-5.381c.026-4.837-2.387-9.512-6.8-13.163a1.266,1.266,0,0,0-1.614,1.948,15.748,15.748,0,0,1,5.578,8.479l-9.644.023a13.741,13.741,0,0,1,1.787-4.162A1.266,1.266,0,0,0,117.1,5.233a15.424,15.424,0,0,0-2.51,8.244l-.03,5.393A3.892,3.892,0,0,0,112.2,22.4l-.043,7.89A1.263,1.263,0,0,0,113,31.489Zm1.734-9.074a1.383,1.383,0,0,1,1.4-1.343h0a1.378,1.378,0,0,1,.986.4,1.278,1.278,0,0,1,.376.848,24.688,24.688,0,0,1-2.791,4.264Zm14.924,4.151a24.285,24.285,0,0,1-2.745-4.248,1.387,1.387,0,0,1,1.4-1.277h0a1.38,1.38,0,0,1,.987.4,1.28,1.28,0,0,1,.378.913Zm-2.265-13.312c0,.064,0,.128,0,.193l-.028,5.181a3.906,3.906,0,0,0-2.986,3.744c0,.485.139,1.193,1.569,3.338a5.168,5.168,0,0,1-3.781,1.648h-.013a5.063,5.063,0,0,1-3.729-1.614c1.453-2.15,1.6-2.858,1.605-3.342a3.789,3.789,0,0,0-1.116-2.714,3.866,3.866,0,0,0-1.829-1.028l.028-5.168c0-.071,0-.142,0-.213Zm0,0" transform="translate(-92.784 0)" fill="#b13e8d"/>
        <path id="Trazado_194313" data-name="Trazado 194313" d="M126.752,324.1a1.266,1.266,0,0,0,0,2.53A1.266,1.266,0,0,0,126.752,324.1Zm0,0" transform="translate(-103.893 -269.309)" fill="#b13e8d"/>
      </g>
    </g>
  </g>
</svg>
