<svg xmlns="http://www.w3.org/2000/svg" xmlns:xlink="http://www.w3.org/1999/xlink" width="81.9" height="81.901" viewBox="0 0 81.9 81.901">
  <defs>
    <clipPath id="clip-path">
      <path id="path961" d="M0-682.665H81.9v81.9H0Z" transform="translate(0 682.665)" fill="#b13e8d"/>
    </clipPath>
  </defs>
  <g id="Grupo_136605" data-name="Grupo 136605" transform="translate(-759.049 -974.356)">
    <g id="g951" transform="translate(759.049 1657.021)">
      <g id="g953" transform="translate(38.383 -629.842)">
        <path id="path955" d="M0-23.216,2.212-21.3l4.171-5.083" transform="translate(0 26.381)" fill="rgba(0,0,0,0)" stroke="#af418c" stroke-linecap="round" stroke-linejoin="round" stroke-miterlimit="10" stroke-width="3"/>
      </g>
      <g id="g957" transform="translate(0 -682.665)">
        <g id="g959" clip-path="url(#clip-path)">
          <g id="g965" transform="translate(33.12 46.738)">
            <path id="path967" d="M-64.018,0A8.819,8.819,0,0,1-55.29,8.91a8.818,8.818,0,0,1-8.728,8.906A8.818,8.818,0,0,1-72.745,8.91,8.819,8.819,0,0,1-64.018,0Z" transform="translate(72.745)" fill="rgba(0,0,0,0)" stroke="#af418c" stroke-linecap="round" stroke-linejoin="round" stroke-miterlimit="10" stroke-width="3"/>
          </g>
          <g id="g969" transform="translate(41.767 36.271)">
            <path id="path971" d="M0,0V10.467" fill="rgba(0,0,0,0)" stroke="#af418c" stroke-linecap="round" stroke-linejoin="round" stroke-miterlimit="10" stroke-width="3"/>
          </g>
          <g id="g973" transform="translate(48.017 61.947)">
            <path id="path975" d="M0,0,9.589,9.917" fill="rgba(0,0,0,0)" stroke="#af418c" stroke-linecap="round" stroke-linejoin="round" stroke-miterlimit="10" stroke-width="3"/>
          </g>
          <g id="g977" transform="translate(25.974 61.947)">
            <path id="path979" d="M-71.186,0l-9.7,10.134" transform="translate(80.89)" fill="rgba(0,0,0,0)" stroke="#af418c" stroke-linecap="round" stroke-linejoin="round" stroke-miterlimit="10" stroke-width="3"/>
          </g>
          <g id="g981" transform="translate(58.369 56.533)">
            <path id="path983" d="M-136.7,0V2.911c0,3.414-3.14,7.7-6.982,9.155a5.92,5.92,0,0,1-4.668,0c-3.846-1.455-6.986-5.741-6.986-9.155V0" transform="translate(155.338)" fill="rgba(0,0,0,0)" stroke="#af418c" stroke-linecap="round" stroke-linejoin="round" stroke-miterlimit="10" stroke-width="3"/>
          </g>
          <g id="g985" transform="translate(58.369 45.809)">
            <path id="path987" d="M-68.351-65.989a17.021,17.021,0,0,1-3.5-.793c-2.6-.685-2.043,2.253-5.814,2.521,0-7.065,4.659-10.647,9.318-10.724,4.659.077,9.318,3.659,9.318,10.724-3.771-.268-3.207-3.206-5.814-2.521A17.019,17.019,0,0,1-68.351-65.989Z" transform="translate(77.669 74.985)" fill="rgba(0,0,0,0)" stroke="#af418c" stroke-linecap="round" stroke-linejoin="round" stroke-miterlimit="10" stroke-width="3"/>
          </g>
          <g id="g989" transform="translate(60.634 70.893)">
            <path id="path991" d="M0,0,5.792,3.469a1.885,1.885,0,0,0,2.527,0L14.106,0" fill="rgba(0,0,0,0)" stroke="#af418c" stroke-linecap="round" stroke-linejoin="round" stroke-miterlimit="10" stroke-width="3"/>
          </g>
          <g id="g993" transform="translate(54.674 67.977)">
            <path id="path995" d="M-76.984-93.331h-9.744a.76.76,0,0,1-.751-.766v-2.512c0-5.214,4.091-6,7.564-6.974,1.226-.34,1.546-1.95,1.8-2.471m7.3,0c.253.521.577,2.131,1.8,2.471,3.478.97,7.564,1.759,7.564,6.974V-94.1a.761.761,0,0,1-.751.766h-9.353" transform="translate(87.478 106.054)" fill="rgba(0,0,0,0)" stroke="#af418c" stroke-linecap="round" stroke-linejoin="round" stroke-miterlimit="10" stroke-width="3"/>
          </g>
          <g id="g997" transform="translate(4.895 44.458)">
            <path id="path999" d="M-68.351-65.989a17.019,17.019,0,0,1-3.5-.793c-2.607-.685-2.043,2.253-5.814,2.521,0-7.065,4.659-10.647,9.318-10.724,4.659.077,9.318,3.659,9.318,10.724-3.771-.268-3.211-3.206-5.814-2.521A17.019,17.019,0,0,1-68.351-65.989Z" transform="translate(77.669 74.985)" fill="rgba(0,0,0,0)" stroke="#af418c" stroke-linecap="round" stroke-linejoin="round" stroke-miterlimit="10" stroke-width="3"/>
          </g>
          <g id="g1001" transform="translate(4.895 55.181)">
            <path id="path1003" d="M-136.7,0V2.911c0,3.414-3.14,7.7-6.986,9.155a5.92,5.92,0,0,1-4.668,0c-3.842-1.455-6.982-5.741-6.982-9.155V0" transform="translate(155.338)" fill="rgba(0,0,0,0)" stroke="#af418c" stroke-linecap="round" stroke-linejoin="round" stroke-miterlimit="10" stroke-width="3"/>
          </g>
          <g id="g1005" transform="translate(1.2 66.626)">
            <path id="path1007" d="M-75.322-93.331H-84.84a.76.76,0,0,1-.751-.766v-2.512c0-5.214,4.086-6,7.564-6.974,1.221-.34,1.546-1.95,1.8-2.471m7.3,0c.253.521.573,2.131,1.8,2.471,3.473.97,7.564,1.759,7.564,6.974V-94.1a.761.761,0,0,1-.751.766H-70.1" transform="translate(85.59 106.054)" fill="rgba(0,0,0,0)" stroke="#af418c" stroke-linecap="round" stroke-linejoin="round" stroke-miterlimit="10" stroke-width="3"/>
          </g>
          <g id="g1009" transform="translate(7.16 69.542)">
            <path id="path1011" d="M0,0,5.787,3.469a1.885,1.885,0,0,0,2.527,0L14.106,0" fill="rgba(0,0,0,0)" stroke="#af418c" stroke-linecap="round" stroke-linejoin="round" stroke-miterlimit="10" stroke-width="3"/>
          </g>
          <g id="g1013" transform="translate(32.689 1.2)">
            <path id="path1015" d="M-68.351-65.99a16.835,16.835,0,0,1-3.5-.8c-2.6-.685-2.043,2.258-5.814,2.526,0-7.065,4.659-10.647,9.318-10.724,4.663.077,9.322,3.659,9.322,10.724-3.775-.268-3.211-3.21-5.814-2.526A16.8,16.8,0,0,1-68.351-65.99Z" transform="translate(77.669 74.986)" fill="rgba(0,0,0,0)" stroke="#af418c" stroke-linecap="round" stroke-linejoin="round" stroke-miterlimit="10" stroke-width="3"/>
          </g>
          <g id="g1017" transform="translate(32.689 11.923)">
            <path id="path1019" d="M-136.734,0V2.911c0,3.414-3.145,7.7-6.986,9.15a5.92,5.92,0,0,1-4.668,0c-3.842-1.451-6.986-5.736-6.986-9.15V0" transform="translate(155.374)" fill="rgba(0,0,0,0)" stroke="#af418c" stroke-linecap="round" stroke-linejoin="round" stroke-miterlimit="10" stroke-width="3"/>
          </g>
          <g id="g1021" transform="translate(28.994 23.364)">
            <path id="path1023" d="M-122.269,0c.249.521.573,2.136,1.8,2.476,3.473.966,7.564,1.759,7.564,6.969v2.512a.76.76,0,0,1-.751.766h-24.53a.76.76,0,0,1-.751-.766V9.445c0-5.21,4.09-6,7.564-6.969,1.226-.34,1.55-1.954,1.8-2.476" transform="translate(138.937 0)" fill="rgba(0,0,0,0)" stroke="#af418c" stroke-linecap="round" stroke-linejoin="round" stroke-miterlimit="10" stroke-width="3"/>
          </g>
          <g id="g1025" transform="translate(34.954 26.284)">
            <path id="path1027" d="M0,0,5.792,3.464a1.885,1.885,0,0,0,2.527,0L14.106,0" fill="rgba(0,0,0,0)" stroke="#af418c" stroke-linecap="round" stroke-linejoin="round" stroke-miterlimit="10" stroke-width="3"/>
          </g>
        </g>
      </g>
    </g>
  </g>
</svg>
