<svg xmlns="http://www.w3.org/2000/svg" width="81.958" height="81.666" viewBox="0 0 81.958 81.666">
  <g id="Grupo_136692" data-name="Grupo 136692" transform="translate(-902.693 -2140.588)">
    <g id="Grupo_136684" data-name="Grupo 136684">
      <g id="gestion-de-productos" transform="translate(896.444 2133.49)">
        <path id="Trazado_194419" data-name="Trazado 194419" d="M217.6,379.756a4.62,4.62,0,0,1-.566.994c-1.7,2.255-4.7,2.2-7.7.258l-11.123-7.226" transform="translate(-160.234 -307.023)" fill="none" stroke="#af418c" stroke-linecap="round" stroke-linejoin="round" stroke-miterlimit="10" stroke-width="2.5"/>
        <path id="Trazado_194420" data-name="Trazado 194420" d="M7.5,313.928H21.582a2.3,2.3,0,0,0,2.293-2.287V301.3m0-5.522V285.367a2.3,2.3,0,0,0-2.293-2.287H7.5" transform="translate(-0.001 -230.819)" fill="none" stroke="#af418c" stroke-linecap="round" stroke-linejoin="round" stroke-miterlimit="10" stroke-width="2.5"/>
        <path id="Trazado_194421" data-name="Trazado 194421" d="M109.945,318.321c6.053,0,7.041.628,14.544,5.179,7.666,4.641,11.1,4.564,18.205,1.261l26.47-12.315c6.783-3.154,3.96-11.687-3.525-8.767l-22.2,8.663c1.341-3.182.127-8.767-4.069-11.515l-4.073-2.671c-5.428-3.557-12.845-6.16-19.587-3.561l-5.768,2.224" transform="translate(-86.071 -239.608)" fill="none" stroke="#af418c" stroke-linecap="round" stroke-linejoin="round" stroke-miterlimit="10" stroke-width="2.5"/>
        <path id="Trazado_194422" data-name="Trazado 194422" d="M31.06,12.664a14.105,14.105,0,0,0-3.679-1.523v-1.5a1.3,1.3,0,0,0-1.3-1.3h-4.35a1.3,1.3,0,0,0-1.3,1.3v1.5a14.107,14.107,0,0,0-3.679,1.523L15.682,11.6a1.313,1.313,0,0,0-1.84,0l-3.081,3.073a1.3,1.3,0,0,0,0,1.835l1.065,1.062A14.065,14.065,0,0,0,10.3,21.237H8.8a1.306,1.306,0,0,0-1.3,1.3v4.339a1.3,1.3,0,0,0,1.3,1.3h1.5a14.031,14.031,0,0,0,1.527,3.67l-1.065,1.057a1.31,1.31,0,0,0,0,1.839l3.081,3.069a1.3,1.3,0,0,0,1.84,0l1.065-1.062a13.948,13.948,0,0,0,3.679,1.523v1.5a1.306,1.306,0,0,0,1.3,1.3h4.35a1.307,1.307,0,0,0,1.3-1.3v-1.5a13.95,13.95,0,0,0,3.679-1.523l1.06,1.062a1.309,1.309,0,0,0,1.844,0l3.076-3.069a1.3,1.3,0,0,0,0-1.839l-1.065-1.057a13.875,13.875,0,0,0,1.527-3.67H39a1.306,1.306,0,0,0,1.3-1.3V22.538a1.309,1.309,0,0,0-1.3-1.3H37.5a13.91,13.91,0,0,0-1.527-3.665l1.065-1.062a1.3,1.3,0,0,0,0-1.835L33.965,11.6a1.318,1.318,0,0,0-1.844,0Z" transform="translate(0)" fill="none" stroke="#af418c" stroke-linecap="round" stroke-linejoin="round" stroke-miterlimit="10" stroke-width="2.5"/>
        <path id="Trazado_194423" data-name="Trazado 194423" d="M68.938,77.439a7.814,7.814,0,1,1,7.834-7.814,7.823,7.823,0,0,1-7.834,7.814Z" transform="translate(-45.037 -44.917)" fill="none" stroke="#af418c" stroke-linecap="round" stroke-linejoin="round" stroke-miterlimit="10" stroke-width="2.5"/>
        <path id="Trazado_194424" data-name="Trazado 194424" d="M297.817,110.7v12.681a1.066,1.066,0,0,1-1.06,1.057h-7.508a1.06,1.06,0,0,1-1.06-1.057V110.7" transform="translate(-235.825 -85.99)" fill="none" stroke="#af418c" stroke-linecap="round" stroke-linejoin="round" stroke-miterlimit="10" stroke-width="2.5"/>
        <path id="Trazado_194425" data-name="Trazado 194425" d="M163.407,140.194v-16.17M171.3,110.7h37.91a3.729,3.729,0,0,1,3.72,3.71v13.675m-.068,5.775.068,15.628" transform="translate(-130.988 -85.99)" fill="none" stroke="#af418c" stroke-linecap="round" stroke-linejoin="round" stroke-miterlimit="10" stroke-width="2.5"/>
        <line id="Línea_450" data-name="Línea 450" x2="7.163" transform="translate(67.439 54.191)" fill="none" stroke="#af418c" stroke-linecap="round" stroke-linejoin="round" stroke-miterlimit="10" stroke-width="2.5"/>
        <line id="Línea_451" data-name="Línea 451" x2="7.163" transform="translate(67.439 59.031)" fill="none" stroke="#af418c" stroke-linecap="round" stroke-linejoin="round" stroke-miterlimit="10" stroke-width="2.5"/>
      </g>
    </g>
  </g>
</svg>
