<svg xmlns="http://www.w3.org/2000/svg" width="84.1" height="83.313" viewBox="0 0 84.1 83.313">
  <g id="Grupo_136604" data-name="Grupo 136604" transform="translate(-406 -974.213)">
    <g id="interpersonal" transform="translate(405 972.913)">
      <g id="Grupo_136341" data-name="Grupo 136341" transform="translate(61.09 5.892)">
        <path id="Trazado_194319" data-name="Trazado 194319" d="M53.1,17.658a6.413,6.413,0,0,0,6.3-6.429A6.328,6.328,0,0,0,53.1,4.8a6.413,6.413,0,0,0-6.3,6.429A6.328,6.328,0,0,0,53.1,17.658Zm0-10.234a3.782,3.782,0,0,1,3.674,3.8,3.7,3.7,0,0,1-3.674,3.8,3.782,3.782,0,0,1-3.674-3.8,3.7,3.7,0,0,1,3.674-3.8Z" transform="translate(-46.8 -4.8)" fill="#b13e8d"/>
      </g>
      <g id="Grupo_136342" data-name="Grupo 136342" transform="translate(1 1.3)">
        <path id="Trazado_194320" data-name="Trazado 194320" d="M84.969,18.881a17.581,17.581,0,0,0-35.162,0,20.025,20.025,0,0,0,.394,3.936L40.623,32a21.317,21.317,0,1,0-.656,22.7l9.84,9.971a14.261,14.261,0,0,0-.131,2.362,17.535,17.535,0,0,0,5.9,13.12,17.1,17.1,0,0,0,11.808,4.461A19.051,19.051,0,0,0,79.2,80.152a18.015,18.015,0,0,0,5.9-13.12A17.617,17.617,0,0,0,68.831,49.451V36.331a17.449,17.449,0,0,0,16.138-17.45ZM67.388,3.793a15.035,15.035,0,0,1,12.858,22.7,15.848,15.848,0,0,0-8.266-6.3,1.481,1.481,0,0,0-1.443.394l-3.28,4.33-3.149-4.33a1.242,1.242,0,0,0-1.443-.394,16.2,16.2,0,0,0-8.266,6.3,14.489,14.489,0,0,1-2.1-7.61A15.007,15.007,0,0,1,67.388,3.793ZM22.255,61.521A18.052,18.052,0,0,1,9.4,56.273a13.157,13.157,0,0,1,8.266-9.84,8.069,8.069,0,0,0,4.592,1.574,7.22,7.22,0,0,0,4.592-1.574,12.905,12.905,0,0,1,8.266,9.84A17.831,17.831,0,0,1,22.255,61.521ZM17.138,40.267a5.123,5.123,0,0,1,5.117-5.117,5.21,5.21,0,0,1,5.117,5.117,5.123,5.123,0,0,1-5.117,5.117,5.21,5.21,0,0,1-5.117-5.117ZM37.343,54.043a15.79,15.79,0,0,0-8.528-9.578A7.492,7.492,0,0,0,30,40.267a7.741,7.741,0,1,0-15.482,0,8.719,8.719,0,0,0,1.181,4.2,16.191,16.191,0,0,0-8.528,9.578A19.748,19.748,0,0,1,3.624,42.891a18.631,18.631,0,1,1,37.261,0A17.949,17.949,0,0,1,37.343,54.043Zm4.067-1.706a21.285,21.285,0,0,0,2.23-9.446A20.733,20.733,0,0,0,41.8,34.363l9.184-8.79a17.646,17.646,0,0,0,14.957,10.89V49.451a17.67,17.67,0,0,0-15.482,12.2Zm35.031,26.5a15.347,15.347,0,0,1-2.624,1.574V75.035a1.312,1.312,0,1,0-2.624,0v6.3a15.988,15.988,0,0,1-7.872,0v-6.3a1.312,1.312,0,1,0-2.624,0v5.379a15.284,15.284,0,0,1-2.624-1.574v-8a1.315,1.315,0,0,1,1.312-1.312H75.129a1.315,1.315,0,0,1,1.312,1.312Zm5.9-11.939a14.924,14.924,0,0,1-3.28,9.315V70.837A3.947,3.947,0,0,0,75.129,66.9H59.385a3.947,3.947,0,0,0-3.936,3.936v5.379a15.035,15.035,0,1,1,26.9-9.315ZM67.388,33.838A14.9,14.9,0,0,1,56.1,28.721a13.417,13.417,0,0,1,6.56-5.773l3.674,4.986a1.366,1.366,0,0,0,2.1,0l3.674-4.986a13.339,13.339,0,0,1,6.56,5.773A15.106,15.106,0,0,1,67.388,33.838Z" transform="translate(-1 -1.3)" fill="#b13e8d"/>
      </g>
      <g id="Grupo_136343" data-name="Grupo 136343" transform="translate(61.484 53.912)">
        <path id="Trazado_194321" data-name="Trazado 194321" d="M47.1,47.3A5.9,5.9,0,1,0,53,41.4,5.88,5.88,0,0,0,47.1,47.3Zm9.053,0a3.28,3.28,0,1,1-3.28-3.28A3.248,3.248,0,0,1,56.153,47.3Z" transform="translate(-47.1 -41.4)" fill="#b13e8d"/>
      </g>
    </g>
  </g>
</svg>
