<svg xmlns="http://www.w3.org/2000/svg" width="79.555" height="79.721" viewBox="0 0 79.555 79.721">
  <g id="Grupo_136690" data-name="Grupo 136690" transform="translate(-350.793 -2142.132)">
    <g id="Grupo_136682" data-name="Grupo 136682">
      <g id="materias-primas" transform="translate(346.151 2138.015)">
        <path id="Trazado_194401" data-name="Trazado 194401" d="M194.13,247.462a1.931,1.931,0,0,0-1.532-.716H138.845a1.93,1.93,0,0,0-1.533.716,1.516,1.516,0,0,0-.276,1.318l.825,3.134-.669,5.3a80.812,80.812,0,0,0,0,20.229l.669,5.3-.825,3.134a1.516,1.516,0,0,0,.276,1.319,1.931,1.931,0,0,0,1.532.716H192.6a1.929,1.929,0,0,0,1.532-.716,1.516,1.516,0,0,0,.276-1.319l-.825-3.133.658-5.164a80.8,80.8,0,0,0,.023-20.23l-.681-5.439.826-3.134A1.516,1.516,0,0,0,194.13,247.462Zm-1.256,29.948-.6,4.686H165.847l-.609-4.823a79.446,79.446,0,0,1,0-19.884l.609-4.823h26.43l.62,4.958A79.443,79.443,0,0,1,192.875,277.41Zm-.277-29.289a.564.564,0,0,1,.443.18.136.136,0,0,1,.035.128l-.727,2.76H165.774l-.727-2.76a.135.135,0,0,1,.035-.128.565.565,0,0,1,.444-.181ZM138.4,286.36a.136.136,0,0,1-.035-.13l.726-2.759h23.428a.688.688,0,1,0,0-1.375H139.165l-.609-4.823a79.446,79.446,0,0,1,0-19.884l.609-4.823h23.355a.688.688,0,0,0,0-1.375H139.093l-.726-2.76a.135.135,0,0,1,.035-.129.564.564,0,0,1,.443-.18H163.7a1.483,1.483,0,0,0,.021.659l.825,3.133-.669,5.3a80.812,80.812,0,0,0,0,20.229l.669,5.3-.825,3.133a1.484,1.484,0,0,0-.021.66H138.845A.554.554,0,0,1,138.4,286.36Zm54.639,0a.565.565,0,0,1-.443.181H165.526a.564.564,0,0,1-.443-.181.137.137,0,0,1-.035-.129l.727-2.76h26.575l.727,2.76A.134.134,0,0,1,193.041,286.36Z" transform="translate(-110.979 -204.229)" fill="#b13e8d" stroke="#af418c" stroke-width="0.3"/>
        <path id="Trazado_194402" data-name="Trazado 194402" d="M369.677,320.2a3.205,3.205,0,0,0,2.306-3.7l-2.65-13.749a1.551,1.551,0,0,0-1.683-1.286,1.569,1.569,0,0,0-1.106.561l-1.244-3.546a4.364,4.364,0,1,0-8.235,2.889l1.244,3.545a1.6,1.6,0,0,0-1.725,2.309l6.52,12.391a3.206,3.206,0,0,0,3.6,1.625Zm-9.485-23.1A2.991,2.991,0,0,1,364,298.93l2.1,5.985-.323,8.109-5.316-6.129-.474-1.351,3.5-1.229a.688.688,0,1,0-.455-1.3l-3.5,1.229-.994-2.834L362,300.2a.688.688,0,1,0-.455-1.3l-3.347,1.174A2.993,2.993,0,0,1,360.192,297.1Zm6.158,22.807a1.833,1.833,0,0,1-2.031-.937l-6.52-12.392a.217.217,0,0,1,.356-.243l7.543,8.7-.077,1.944a3.16,3.16,0,0,0,1.324,2.723Zm2.948-1.033a1.807,1.807,0,0,1-.33.06,1.835,1.835,0,0,1-1.972-1.9l.557-13.991a.194.194,0,0,1,.2-.208.191.191,0,0,1,.229.175l2.65,13.749a1.814,1.814,0,0,1-1.174,2.064Z" transform="translate(-296.133 -245.338)" fill="#b13e8d" stroke="#af418c" stroke-width="0.3"/>
        <path id="Trazado_194403" data-name="Trazado 194403" d="M180.272,318.318a11.643,11.643,0,0,0,5.5,13.105,6.076,6.076,0,0,0,5.182.426,15.088,15.088,0,0,1-.237,4.448.688.688,0,0,0,.536.811.7.7,0,0,0,.139.014.688.688,0,0,0,.673-.55,16.441,16.441,0,0,0,.2-5.394,6.764,6.764,0,0,0,.827-.639,6.186,6.186,0,0,0,1.551-7.208,11.654,11.654,0,0,0-13.587-6.461.688.688,0,0,0-.471.43Zm6.179,11.909a10.267,10.267,0,0,1-4.976-11.022,15.129,15.129,0,0,1,9.28,11.24A4.757,4.757,0,0,1,186.451,330.228Zm5.715-.7c-.055.05-.112.095-.168.142a16.5,16.5,0,0,0-9.778-11.64A10.268,10.268,0,0,1,193.39,323.9,4.83,4.83,0,0,1,192.166,329.525Z" transform="translate(-147.47 -262.966)" fill="#b13e8d" stroke="#af418c" stroke-width="0.3"/>
        <path id="Trazado_194404" data-name="Trazado 194404" d="M4.792,63.016V81.762A2.981,2.981,0,0,0,7.77,84.739h16.31a.688.688,0,0,0,0-1.375H7.77a1.6,1.6,0,0,1-1.6-1.6V63.016a1.6,1.6,0,0,1,1.6-1.6h16.31a.688.688,0,0,0,0-1.375h-13.2a1.5,1.5,0,0,1-1.5-1.5v-.2a1.5,1.5,0,0,1,1.5-1.5h13.2a.688.688,0,0,0,0-1.375H11.837V36.443H17.39V37.52a8.567,8.567,0,0,0,5.605,8.007.688.688,0,0,0,.475-1.291,7.186,7.186,0,0,1-4.7-6.715V29.41a7.148,7.148,0,1,1,14.3,0V37.52a7.121,7.121,0,0,1-.853,3.375.688.688,0,0,0,1.21.654,8.5,8.5,0,0,0,1.018-4.03V36.443H39.99v4.779a.688.688,0,0,0,1.375,0V36.413a2.881,2.881,0,0,0,2.46-2.847v-.2A2.88,2.88,0,0,0,41.9,30.651a.682.682,0,0,0-.442-.165h-.093V11.439A2.879,2.879,0,0,0,43.826,8.6v-.2a2.881,2.881,0,0,0-2.877-2.877H10.878A2.88,2.88,0,0,0,8,8.393v.2a2.88,2.88,0,0,0,2.461,2.844V30.517A2.881,2.881,0,0,0,8,33.364v.2a2.881,2.881,0,0,0,2.461,2.847V55.491A2.879,2.879,0,0,0,8,58.335v.2a2.858,2.858,0,0,0,.427,1.5H7.77a2.98,2.98,0,0,0-2.978,2.977ZM42.45,33.566a1.5,1.5,0,0,1-1.5,1.5H34.437V31.862h6.511a1.5,1.5,0,0,1,1.5,1.5v.2Zm-8.013-3.08V29.41a8.524,8.524,0,1,0-17.047,0v1.076H11.837V11.472H39.989V30.486ZM9.377,8.6v-.2a1.5,1.5,0,0,1,1.5-1.5h30.07a1.5,1.5,0,0,1,1.5,1.5v.2a1.5,1.5,0,0,1-1.5,1.5H10.878a1.5,1.5,0,0,1-1.5-1.5Zm0,24.97v-.2a1.5,1.5,0,0,1,1.5-1.5h6.511v3.206H10.878A1.5,1.5,0,0,1,9.377,33.565Z" transform="translate(0 -1.052)" fill="#b13e8d" stroke="#af418c" stroke-width="0.3"/>
        <path id="Trazado_194405" data-name="Trazado 194405" d="M117.92,153.6a4.588,4.588,0,0,0,0-4.634l-2.661-4.609a1.546,1.546,0,0,0-1.353-.781h0a1.544,1.544,0,0,0-1.352.781l-2.661,4.609a4.634,4.634,0,1,0,8.026,4.634Zm-1.191-.688a3.259,3.259,0,0,1-5.645-3.259l2.661-4.609h0a.186.186,0,0,1,.323,0l2.661,4.609A3.225,3.225,0,0,1,116.728,152.909Z" transform="translate(-87.993 -117.331)" fill="#b13e8d" stroke="#af418c" stroke-width="0.3"/>
        <path id="Trazado_194406" data-name="Trazado 194406" d="M349.644,47.487l4.135,2.464a.718.718,0,0,0,1-.249l1.591-2.725.594,1.04-.494.265a.95.95,0,0,0,.349,1.783l4.548.474c.033,0,.066.005.1.005a.947.947,0,0,0,.839-.507l2.13-4.046a.95.95,0,0,0-1.29-1.28l-.624.334-2.664-4.665a.744.744,0,0,0-.629-.379l-5.607-.027a.744.744,0,0,0-.619.355l-.008.013-.011.018-2.513,4.306-.006.011-1.071,1.834A.741.741,0,0,0,349.644,47.487Zm5.136-6.132,4.058.019,2.842,4.917a.744.744,0,0,0,.891.28l-1.352,2.569-2.905-.3a.715.715,0,0,0,.177-.915Zm-1.191.689,1.995,3.545-1.662,2.847-3.015-1.8Z" transform="translate(-290.163 -30.073)" fill="#b13e8d" stroke="#af418c" stroke-width="0.3"/>
        <path id="Trazado_194407" data-name="Trazado 194407" d="M404.195,109.837l-.009-.016-.008-.014-3.587-6.144a.74.74,0,0,0-.979-.265l-4.192,2.4a.718.718,0,0,0-.26.984l1.591,2.725-1.2.006.013-.561a.95.95,0,0,0-1.725-.572l-2.647,3.725a.947.947,0,0,0-.025,1.067l2.475,3.841a.944.944,0,0,0,.8.438.963.963,0,0,0,.26-.036.944.944,0,0,0,.693-.893l.016-.708,5.388-.026a.745.745,0,0,0,.623-.362l2.788-4.882A.751.751,0,0,0,404.195,109.837Zm-7.514-3.18,3.047-1.742.738,1.263.009.016,1.936,3.316-4.068-.006Zm5.745,4.228-2.012,3.524-5.689.058a.745.745,0,0,0-.672.637l-1.572-2.44,1.692-2.382a.75.75,0,0,0,.193.387.793.793,0,0,0,.516.217Z" transform="translate(-325.298 -83.419)" fill="#b13e8d" stroke="#af418c" stroke-width="0.3"/>
        <path id="Trazado_194408" data-name="Trazado 194408" d="M325.606,106.367h0l-3.155.023.592-1.042.48.29a.95.95,0,0,0,1.355-1.211l-1.913-4.15a.946.946,0,0,0-.912-.552l-4.566.234a.95.95,0,0,0-.443,1.762l.607.367-2.67,4.7a.746.746,0,0,0,.013.7l2.831,4.82a.743.743,0,0,0,.626.366h0l7.15-.053a.74.74,0,0,0,.717-.716l.008-4.827a.741.741,0,0,0-.72-.718Zm-6.453-4.211a.744.744,0,0,0-.221-.893l2.9-.149,1.223,2.652a.715.715,0,0,0-.877.315l-3.755,6.544-2.055-3.5Zm5.79,9.1-1.469.011h-.013l-3.839.028,2.03-3.525,3.3-.024Z" transform="translate(-261.184 -80.399)" fill="#b13e8d" stroke="#af418c" stroke-width="0.3"/>
        <path id="Trazado_194409" data-name="Trazado 194409" d="M300.538,4.267a17.7,17.7,0,1,0,17.7,17.7,17.717,17.717,0,0,0-17.7-17.7Zm0,34.018a16.321,16.321,0,1,1,16.321-16.321A16.34,16.34,0,0,1,300.538,38.285Z" transform="translate(-234.188)" fill="#b13e8d" stroke="#af418c" stroke-width="0.3"/>
      </g>
    </g>
  </g>
</svg>
