<svg xmlns="http://www.w3.org/2000/svg" width="82.179" height="82.179" viewBox="0 0 82.179 82.179">
  <g id="Grupo_136643" data-name="Grupo 136643" transform="translate(-769.222 -2146.6)">
    <g id="Grupo_136640" data-name="Grupo 136640">
      <g id="pruebas" transform="translate(768.222 2145.6)">
        <path id="Trazado_194314" data-name="Trazado 194314" d="M81.676,57.306l-5.652-5.652a25.147,25.147,0,0,0-37.406-32.1H23.9a10.6,10.6,0,1,0-13.622.309A11.943,11.943,0,0,0,1,31.486v7.953a9.291,9.291,0,0,0,6.627,8.887V77.877a5.28,5.28,0,0,0,9.278,3.47,5.28,5.28,0,0,0,9.278-3.47v-2.1L37.336,64.622,36.011,63.3,39.4,59.906a25.036,25.036,0,0,0,9.315,4.143v6.91l3.2.8-1.7,2.831,7.087,7.087,2.829-1.7.8,3.2H70.959l.8-3.2,2.829,1.7,7.087-7.087-1.7-2.831,3.2-.8V60.936l-3.2-.8ZM76.551,39.438A22.533,22.533,0,1,1,54.019,16.906,22.558,22.558,0,0,1,76.551,39.438ZM72.575,65.948a6.628,6.628,0,1,1-12.918-1.986,25.039,25.039,0,0,0,8.971-4.051,6.6,6.6,0,0,1,3.947,6.036Zm-43.74-9.827-2.651,2.651V48.717h.663a4.626,4.626,0,0,0,3.282-1.364,25.109,25.109,0,0,0,3.422,6.7L30.16,57.446Zm0-16.682c0,.162.021.318.024.478a4.586,4.586,0,0,0-2.012-.478h-.663V30.823a1.991,1.991,0,0,1,1.988-1.988h3.035A25.008,25.008,0,0,0,28.835,39.438ZM18.177,32.317l-1.271,1.271-1.271-1.271.982-10.109h.577ZM8.953,11.6a7.953,7.953,0,1,1,7.953,7.953A7.961,7.961,0,0,1,8.953,11.6Zm3.976,10.6h1.025l-1.079,11.1,4.031,4.031,4.031-4.031-1.079-11.1H35.7a25.363,25.363,0,0,0-3.058,3.976H28.172a4.644,4.644,0,0,0-4.639,4.639v8.616H11.6a1.327,1.327,0,0,1-1.325-1.325V28.835H7.627v7.953H3.651v-5.3A9.289,9.289,0,0,1,12.929,22.207ZM3.651,39.438h4.22A3.971,3.971,0,0,0,11.6,42.089H26.847a1.988,1.988,0,0,1,0,3.976H10.278A6.635,6.635,0,0,1,3.651,39.438ZM20.882,80.528a2.654,2.654,0,0,1-2.651-2.651V54.019H15.58V77.877a2.651,2.651,0,0,1-5.3,0V48.717H23.533v29.16A2.654,2.654,0,0,1,20.882,80.528Zm5.3-8.5V62.52l2.651-2.651,4.753,4.753Zm7.953-10.6-2.1-2.1,3.184-3.184a25.169,25.169,0,0,0,2.1,2.1Zm46.391,1.584v5.882l-2.583.644-.708.273-.618,1.51,1.718,2.862-4.159,4.159-2.86-1.716-1.617.657-.811,3.25H63.006l-.646-2.583-.269-.709-1.514-.615-2.86,1.716-4.159-4.159,1.718-2.862L54.614,69.7l-3.246-.81V64.48a24.4,24.4,0,0,0,5.432-.02,9.276,9.276,0,1,0,14.058-6.35,25.417,25.417,0,0,0,3.71-4.163l3.77,3.77-1.718,2.862.667,1.617Z" transform="translate(0)" fill="#b13e8d"/>
        <path id="Trazado_194315" data-name="Trazado 194315" d="M67.556,7.627A6.635,6.635,0,0,0,60.929,1h-5.3A6.635,6.635,0,0,0,49,7.627v6.627H60.929A6.635,6.635,0,0,0,67.556,7.627Zm-15.906,0a3.981,3.981,0,0,1,3.976-3.976h5.3a3.976,3.976,0,1,1,0,7.953H51.651Z" transform="translate(15.622)" fill="#b13e8d"/>
        <path id="Trazado_194316" data-name="Trazado 194316" d="M53,5h2.651V7.651H53Z" transform="translate(16.924 1.302)" fill="#b13e8d"/>
        <path id="Trazado_194317" data-name="Trazado 194317" d="M57,5h2.651V7.651H57Z" transform="translate(18.226 1.302)" fill="#b13e8d"/>
        <path id="Trazado_194318" data-name="Trazado 194318" d="M45.882,54.764A19.882,19.882,0,1,0,26,34.882,19.9,19.9,0,0,0,45.882,54.764ZM39.255,41.509h2.651V51.632a16.927,16.927,0,0,1-2.651-.848ZM36.6,49.379a17.3,17.3,0,0,1-2.651-2.092V33.556H36.6Zm7.953,2.667V22.953h2.651V52.045c-.439.034-.877.068-1.325.068S45,52.08,44.556,52.045Zm5.3-15.838h2.651V50.784a17.211,17.211,0,0,1-2.651.848Zm7.953,11.08a17.3,17.3,0,0,1-2.651,2.092V30.906h2.651ZM45.882,17.651a17.2,17.2,0,0,1,14.58,26.371V28.255H52.509v5.3H49.858V20.3H41.906V38.858H39.255V30.906H31.3V44.022a17.2,17.2,0,0,1,14.58-26.371Z" transform="translate(8.137 4.556)" fill="#b13e8d"/>
      </g>
    </g>
  </g>
</svg>
