<svg xmlns="http://www.w3.org/2000/svg" xmlns:xlink="http://www.w3.org/1999/xlink" width="79.697" height="79.697" viewBox="0 0 79.697 79.697">
  <defs>
    <clipPath id="clip-path">
      <path id="path957" d="M0-682.665H79.7v79.7H0Z" transform="translate(0 682.665)"/>
    </clipPath>
  </defs>
  <g id="Grupo_136644" data-name="Grupo 136644" transform="translate(-1115.132 -2145.848)">
    <g id="Grupo_136641" data-name="Grupo 136641">
      <g id="g951" transform="translate(1115.132 2828.513)">
        <g id="g953" transform="translate(0 -682.665)">
          <g id="g955" clip-path="url(#clip-path)">
            <g id="g961" transform="translate(1.557 12.764)">
              <path id="path963" d="M-96.569,0h0a12.764,12.764,0,0,0-12.764,12.764h25.528A12.764,12.764,0,0,0-96.569,0Z" transform="translate(109.333)" fill="rgba(0,0,0,0)" stroke="#af418c" stroke-linecap="round" stroke-linejoin="round" stroke-miterlimit="10" stroke-width="3"/>
            </g>
            <g id="g965" transform="translate(9.339 1.557)">
              <path id="path967" d="M-37.686,0h0a4.981,4.981,0,0,0-4.981,4.981V6.226a4.981,4.981,0,0,0,4.981,4.981h0A4.981,4.981,0,0,0-32.7,6.226V4.981A4.981,4.981,0,0,0-37.686,0Z" transform="translate(42.667)" fill="rgba(0,0,0,0)" stroke="#af418c" stroke-linecap="round" stroke-linejoin="round" stroke-miterlimit="10" stroke-width="3"/>
            </g>
            <g id="g969" transform="translate(52.612 12.764)">
              <path id="path971" d="M-96.569,0h0a12.764,12.764,0,0,0-12.764,12.764h25.528A12.764,12.764,0,0,0-96.569,0Z" transform="translate(109.333)" fill="rgba(0,0,0,0)" stroke="#af418c" stroke-linecap="round" stroke-linejoin="round" stroke-miterlimit="10" stroke-width="3"/>
            </g>
            <g id="g973" transform="translate(60.395 1.557)">
              <path id="path975" d="M-37.686,0h0a4.981,4.981,0,0,0-4.981,4.981V6.226a4.981,4.981,0,0,0,4.981,4.981h0A4.981,4.981,0,0,0-32.7,6.226V4.981A4.981,4.981,0,0,0-37.686,0Z" transform="translate(42.667)" fill="rgba(0,0,0,0)" stroke="#af418c" stroke-linecap="round" stroke-linejoin="round" stroke-miterlimit="10" stroke-width="3"/>
            </g>
            <g id="g977" transform="translate(1.557 65.376)">
              <path id="path979" d="M-96.569,0h0a12.764,12.764,0,0,0-12.764,12.764h25.528A12.764,12.764,0,0,0-96.569,0Z" transform="translate(109.333)" fill="rgba(0,0,0,0)" stroke="#af418c" stroke-linecap="round" stroke-linejoin="round" stroke-miterlimit="10" stroke-width="3"/>
            </g>
            <g id="g981" transform="translate(9.339 54.169)">
              <path id="path983" d="M-37.686,0h0a4.981,4.981,0,0,0-4.981,4.981V6.226a4.981,4.981,0,0,0,4.981,4.981h0A4.981,4.981,0,0,0-32.7,6.226V4.981A4.981,4.981,0,0,0-37.686,0Z" transform="translate(42.667)" fill="rgba(0,0,0,0)" stroke="#af418c" stroke-linecap="round" stroke-linejoin="round" stroke-miterlimit="10" stroke-width="3"/>
            </g>
            <g id="g985" transform="translate(52.612 65.376)">
              <path id="path987" d="M-149.564-96.569h5.759a12.764,12.764,0,0,0-12.764-12.764h0a12.764,12.764,0,0,0-12.764,12.764h5.759" transform="translate(169.333 109.333)" fill="rgba(0,0,0,0)" stroke="#af418c" stroke-linecap="round" stroke-linejoin="round" stroke-miterlimit="10" stroke-width="3"/>
            </g>
            <g id="g989" transform="translate(60.395 54.169)">
              <path id="path991" d="M-37.686,0h0a4.981,4.981,0,0,0-4.981,4.981V6.226a4.981,4.981,0,0,0,4.981,4.981h0A4.981,4.981,0,0,0-32.7,6.226V4.981A4.981,4.981,0,0,0-37.686,0Z" transform="translate(42.667)" fill="rgba(0,0,0,0)" stroke="#af418c" stroke-linecap="round" stroke-linejoin="round" stroke-miterlimit="10" stroke-width="3"/>
            </g>
            <g id="g993" transform="translate(32.377 71.914)">
              <path id="path995" d="M0,0H14.943" fill="rgba(0,0,0,0)" stroke="#af418c" stroke-linecap="round" stroke-linejoin="round" stroke-miterlimit="10" stroke-width="3"/>
            </g>
            <g id="g997" transform="translate(32.377 7.783)">
              <path id="path999" d="M0,0H14.943" fill="rgba(0,0,0,0)" stroke="#af418c" stroke-linecap="round" stroke-linejoin="round" stroke-miterlimit="10" stroke-width="3"/>
            </g>
            <g id="g1001" transform="translate(7.783 32.377)">
              <path id="path1003" d="M0,0V14.943" fill="rgba(0,0,0,0)" stroke="#af418c" stroke-linecap="round" stroke-linejoin="round" stroke-miterlimit="10" stroke-width="3"/>
            </g>
            <g id="g1005" transform="translate(71.914 32.377)">
              <path id="path1007" d="M0,0V14.943" fill="rgba(0,0,0,0)" stroke="#af418c" stroke-linecap="round" stroke-linejoin="round" stroke-miterlimit="10" stroke-width="3"/>
            </g>
            <g id="g1009" transform="translate(44.396 4.859)">
              <path id="path1011" d="M0,0,2.924,2.924,0,5.848" fill="rgba(0,0,0,0)" stroke="#af418c" stroke-linecap="round" stroke-linejoin="round" stroke-miterlimit="10" stroke-width="3"/>
            </g>
            <g id="g1013" transform="translate(32.377 4.859)">
              <path id="path1015" d="M-22.12,0l-2.924,2.924,2.924,2.924" transform="translate(25.044)" fill="rgba(0,0,0,0)" stroke="#af418c" stroke-linecap="round" stroke-linejoin="round" stroke-miterlimit="10" stroke-width="3"/>
            </g>
            <g id="g1017" transform="translate(44.396 68.99)">
              <path id="path1019" d="M0-44.242l2.924-2.924L0-50.089" transform="translate(0 50.089)" fill="rgba(0,0,0,0)" stroke="#af418c" stroke-linecap="round" stroke-linejoin="round" stroke-miterlimit="10" stroke-width="3"/>
            </g>
            <g id="g1021" transform="translate(32.377 68.99)">
              <path id="path1023" d="M-22.12-44.242l-2.924-2.924,2.924-2.924" transform="translate(25.044 50.089)" fill="rgba(0,0,0,0)" stroke="#af418c" stroke-linecap="round" stroke-linejoin="round" stroke-miterlimit="10" stroke-width="3"/>
            </g>
            <g id="g1025" transform="translate(68.99 44.396)">
              <path id="path1027" d="M-44.242,0l-2.924,2.924L-50.089,0" transform="translate(50.089)" fill="rgba(0,0,0,0)" stroke="#af418c" stroke-linecap="round" stroke-linejoin="round" stroke-miterlimit="10" stroke-width="3"/>
            </g>
            <g id="g1029" transform="translate(68.99 32.377)">
              <path id="path1031" d="M-44.242-22.12l-2.924-2.924-2.924,2.924" transform="translate(50.089 25.044)" fill="rgba(0,0,0,0)" stroke="#af418c" stroke-linecap="round" stroke-linejoin="round" stroke-miterlimit="10" stroke-width="3"/>
            </g>
            <g id="g1033" transform="translate(4.859 44.396)">
              <path id="path1035" d="M0,0,2.924,2.924,5.848,0" fill="rgba(0,0,0,0)" stroke="#af418c" stroke-linecap="round" stroke-linejoin="round" stroke-miterlimit="10" stroke-width="3"/>
            </g>
            <g id="g1037" transform="translate(4.859 32.377)">
              <path id="path1039" d="M0-22.12l2.924-2.924L5.848-22.12" transform="translate(0 25.044)" fill="rgba(0,0,0,0)" stroke="#af418c" stroke-linecap="round" stroke-linejoin="round" stroke-miterlimit="10" stroke-width="3"/>
            </g>
            <g id="g1041" transform="translate(25.58 25.58)">
              <path id="path1043" d="M-215.906,0l-28.537,28.537" transform="translate(244.443)" fill="rgba(0,0,0,0)" stroke="#af418c" stroke-linecap="round" stroke-linejoin="round" stroke-miterlimit="10" stroke-width="3"/>
            </g>
            <g id="g1045" transform="translate(25.554 50.008)">
              <path id="path1047" d="M-31.284-31.284h-4.135v-4.135" transform="translate(35.419 35.419)" fill="rgba(0,0,0,0)" stroke="#af418c" stroke-linecap="round" stroke-linejoin="round" stroke-miterlimit="10" stroke-width="3"/>
            </g>
            <g id="g1049" transform="translate(50.008 25.554)">
              <path id="path1051" d="M-31.284-31.284v-4.135h-4.135" transform="translate(35.419 35.419)" fill="rgba(0,0,0,0)" stroke="#af418c" stroke-linecap="round" stroke-linejoin="round" stroke-miterlimit="10" stroke-width="3"/>
            </g>
            <g id="g1053" transform="translate(25.58 25.58)">
              <path id="path1055" d="M-215.906-215.906l-28.537-28.537" transform="translate(244.443 244.443)" fill="rgba(0,0,0,0)" stroke="#af418c" stroke-linecap="round" stroke-linejoin="round" stroke-miterlimit="10" stroke-width="3"/>
            </g>
            <g id="g1057" transform="translate(25.554 25.554)">
              <path id="path1059" d="M0-31.284v-4.135H4.135" transform="translate(0 35.419)" fill="rgba(0,0,0,0)" stroke="#af418c" stroke-linecap="round" stroke-linejoin="round" stroke-miterlimit="10" stroke-width="3"/>
            </g>
            <g id="g1061" transform="translate(50.008 50.008)">
              <path id="path1063" d="M0-31.284H4.135v-4.135" transform="translate(0 35.419)" fill="rgba(0,0,0,0)" stroke="#af418c" stroke-linecap="round" stroke-linejoin="round" stroke-miterlimit="10" stroke-width="3"/>
            </g>
            <g id="g1065" transform="translate(65.376 78.14)">
              <path id="path1067" d="M0,0H0" fill="rgba(0,0,0,0)" stroke="#af418c" stroke-linecap="round" stroke-linejoin="round" stroke-miterlimit="10" stroke-width="3"/>
            </g>
          </g>
        </g>
      </g>
    </g>
  </g>
</svg>
